<svg width="16" height="16" viewBox="0 0 16 16" fill="none" xmlns="http://www.w3.org/2000/svg">
<path fill-rule="evenodd" clip-rule="evenodd" d="M9.69719 7.38651H11.9115C12.2472 7.38651 12.511 7.10893 12.511 6.77421C12.511 6.43132 12.2472 6.1619 11.9115 6.1619H9.69719C9.36145 6.1619 9.09766 6.43132 9.09766 6.77421C9.09766 7.10893 9.36145 7.38651 9.69719 7.38651ZM14.5413 3.14199C15.0289 3.14199 15.3486 3.31344 15.6684 3.68899C15.9881 4.06453 16.0441 4.60336 15.9721 5.09239L15.2127 10.448C15.0689 11.4775 14.2055 12.236 13.1903 12.236H4.46911C3.40594 12.236 2.52662 11.404 2.43869 10.3264L1.70327 1.42672L0.496207 1.21446C0.176456 1.15731 -0.0473694 0.83891 0.00858702 0.512347C0.0645434 0.178436 0.3763 -0.0428102 0.704045 0.00699064L2.61056 0.300081C2.88235 0.349882 3.08219 0.577659 3.10617 0.855238L3.25805 2.68399C3.28204 2.94606 3.48987 3.14199 3.74567 3.14199H14.5413ZM4.34201 13.5263C3.67053 13.5263 3.12695 14.0815 3.12695 14.7672C3.12695 15.4449 3.67053 16 4.34201 16C5.00549 16 5.54907 15.4449 5.54907 14.7672C5.54907 14.0815 5.00549 13.5263 4.34201 13.5263ZM13.3342 13.5263C12.6627 13.5263 12.1191 14.0815 12.1191 14.7672C12.1191 15.4449 12.6627 16 13.3342 16C13.9977 16 14.5413 15.4449 14.5413 14.7672C14.5413 14.0815 13.9977 13.5263 13.3342 13.5263Z" fill="black"/>
</svg>
