<svg width="18" height="16" viewBox="0 0 18 16" fill="none" xmlns="http://www.w3.org/2000/svg">
<path d="M16 8L17.2545 2.36443L11.7467 4.0958L16 8ZM8.50011 16C8.77626 16 9.00011 15.7761 9.00011 15.5C9.00011 15.2239 8.77626 15 8.50011 15V16ZM1.5 8C1.5 4.13401 4.63401 1 8.5 1V0C4.08172 0 0.5 3.58172 0.5 8H1.5ZM8.5 1C10.8752 1 12.9743 2.18255 14.2407 3.99328L15.0602 3.42018C13.6148 1.35339 11.2155 0 8.5 0V1ZM0.5 8C0.5 12.4183 4.08185 16 8.50011 16V15C4.63411 15 1.5 11.866 1.5 8H0.5Z" fill="black"/>
</svg>
