<svg width="21" height="28" viewBox="0 0 21 28" fill="none" xmlns="http://www.w3.org/2000/svg">
<path d="M6.575 14.7981L6.57477 14.7982C6.69635 15.3309 7.00632 16.1349 7.53958 16.8116C8.07134 17.4864 8.82153 18.0306 9.8257 18.0604C9.93998 18.0339 10.0423 17.9687 10.1153 17.8758C10.1894 17.7814 10.2284 17.6644 10.2252 17.5454L10.2252 17.544L10.2252 17.544L10.2278 14.2689C10.222 13.962 10.1766 13.4798 10.058 13.0325C9.99866 12.8087 9.92142 12.5954 9.82267 12.4175C9.72381 12.2395 9.60519 12.1003 9.46461 12.0202C9.46451 12.0202 9.4644 12.0201 9.46429 12.02L9.48961 11.9765C9.11073 11.768 8.31134 11.224 8.07641 10.6318L6.575 14.7981ZM6.575 14.7981L6.57345 14.7935C6.35998 14.156 6.38272 13.494 6.49928 12.9238C6.61588 12.3534 6.82569 11.8782 6.98233 11.6166L6.98235 11.6167L6.98325 11.615C7.2183 11.1883 7.58678 10.8497 8.03023 10.6518L6.575 14.7981Z" fill="black" stroke="white" stroke-width="0.1"/>
<path d="M14.5105 14.6392L14.5103 14.6392L14.5092 14.6439C14.3868 15.1809 14.0755 15.9962 13.5412 16.6919C13.0083 17.3857 12.2573 17.9565 11.2531 18.0213C11.1388 17.9984 11.0365 17.9367 10.9634 17.8465C10.8891 17.7546 10.8498 17.6391 10.8523 17.5198L10.8523 17.5198L10.8523 17.5188L10.8549 14.2417C10.8611 13.9346 10.9073 13.4513 11.0266 13.0001C11.0863 12.7744 11.1639 12.5584 11.2629 12.377C11.362 12.1955 11.4809 12.0519 11.6216 11.9664C11.8188 11.8521 12.1269 11.6443 12.4129 11.3872C12.683 11.1442 12.9386 10.8526 13.0581 10.5501C13.5013 10.7325 13.8693 11.0583 14.1037 11.477L14.1036 11.477L14.1046 11.4786C14.2619 11.7348 14.4714 12.2011 14.5874 12.7664C14.7033 13.3315 14.725 13.9923 14.5105 14.6392Z" fill="black" stroke="white" stroke-width="0.1"/>
<path d="M13.2849 3.18512C13.4168 3.3806 13.4871 3.61191 13.4868 3.8498C13.4865 4.1688 13.3596 4.47695 13.1339 4.70646C12.9082 4.93596 12.6023 5.06803 12.2835 5.0736C12.0457 5.07776 11.8133 5.01129 11.6158 4.88259C11.4182 4.75389 11.2643 4.56874 11.1735 4.35055C11.0827 4.13236 11.0592 3.89093 11.1058 3.6568C11.1524 3.42268 11.2671 3.20636 11.4354 3.03521C11.6037 2.86406 11.818 2.74576 12.0513 2.69528C12.2845 2.64479 12.5262 2.66438 12.7458 2.75157C12.9653 2.83876 13.153 2.98963 13.2849 3.18512Z" fill="black" stroke="white" stroke-width="0.1"/>
<path d="M9.35322 3.25201C9.48513 3.4475 9.55541 3.67881 9.55518 3.9167C9.55503 4.07465 9.52378 4.2316 9.46322 4.37858C9.40266 4.52557 9.31398 4.65971 9.20224 4.77335C9.0905 4.88699 8.95788 4.9779 8.81197 5.0409C8.66606 5.10389 8.5097 5.13774 8.35183 5.1405C8.11407 5.14466 7.88171 5.07818 7.68414 4.94948C7.48657 4.82078 7.33266 4.63563 7.24188 4.41744C7.15111 4.19925 7.12753 3.95783 7.17415 3.7237C7.22076 3.48957 7.33547 3.27325 7.50376 3.1021C7.67205 2.93095 7.88637 2.81266 8.11961 2.76217C8.35286 2.71168 8.59455 2.73127 8.81413 2.81846C9.03371 2.90565 9.22131 3.05653 9.35322 3.25201Z" fill="black" stroke="white" stroke-width="0.1"/>
<path d="M13.4517 7.15735C13.4511 7.80295 13.4327 8.86075 13.0545 9.80161C12.8658 10.2713 12.588 10.7101 12.1794 11.0538C11.7722 11.3965 11.2324 11.6468 10.5153 11.7373C9.7643 11.6724 9.20838 11.4409 8.79589 11.1127C8.3822 10.7835 8.10986 10.3547 7.93067 9.89186C7.5862 9.00207 7.58818 7.99337 7.58945 7.3412C7.58951 7.3134 7.58956 7.28624 7.58958 7.25977C7.59076 6.00716 8.89195 4.94638 10.5218 4.91791C12.1517 4.88943 13.4529 5.90677 13.4517 7.15735Z" fill="black" stroke="white" stroke-width="0.1"/>
<path d="M13.6056 7.97536C17.2816 11.9473 19.6133 17.1883 20.3529 22.5893L20.4742 23.8749C20.5635 25.105 20.1493 26.6246 18.8978 27.1639C18.1858 27.4751 17.3418 27.2692 16.6924 27.0016C15.3435 26.4454 14.3017 25.4666 13.3983 24.379C12.3909 23.2192 11.5598 21.9161 10.9312 20.5104L10.7431 20.0343L10.5931 19.5435L10.4792 19.046L10.4792 19.0279C10.4792 19.0279 10.4792 19.0279 10.4792 19.0139L10.4893 19.0017L10.5033 19.0014C10.5124 18.9982 10.5223 18.998 10.5314 19.0009C10.5395 19.0062 10.5458 19.0137 10.5494 19.0227C10.9354 20.3058 11.6743 21.4463 12.4775 22.5015C13.9037 24.2459 15.5361 26.2595 17.8977 26.6196C18.9743 26.7513 19.6248 25.6428 19.7037 24.6967C19.7944 24.1254 19.6306 23.2818 19.589 22.6928C19.424 21.3602 19.1637 20.0428 18.8101 18.7507C18.0861 16.1683 17.0563 13.6867 15.7423 11.3582C15.0947 10.1892 14.3583 9.07275 13.5394 8.01863L13.5394 8.0066L13.5394 7.99055L13.5394 7.97651L13.5394 7.96447C13.5434 7.96383 13.5475 7.96376 13.5515 7.96427C13.5561 7.96331 13.5609 7.96323 13.5655 7.96402C13.5708 7.96303 13.5762 7.96294 13.5815 7.96374C13.5855 7.9631 13.5896 7.96303 13.5936 7.96353L13.6056 7.97536Z" fill="black"/>
<path d="M7.48371 8.1426C6.4222 9.86938 5.49576 11.6741 4.71286 13.5404C3.41939 16.5977 2.41047 19.8266 2.02102 23.0929C2.00687 23.2456 1.89989 24.1842 1.88375 24.3229C1.81305 25.0061 2.01482 25.9514 2.55791 26.2448C3.35959 26.5919 4.7637 25.6709 5.47579 25.1912C6.49217 24.3525 7.42866 23.4208 8.27271 22.4086C9.17563 21.4079 9.91254 20.2698 10.4546 19.039C10.4686 18.9966 10.5428 19.0194 10.5267 19.0638C10.3316 19.7159 10.062 20.3446 9.72335 20.9372C9.04213 22.1166 8.23447 23.2197 7.31499 24.2265C6.41202 25.2451 5.3848 26.1957 4.10529 26.7354C2.51285 27.4932 1.36664 26.7449 1.16745 25.0534C1.07368 24.4653 1.23472 23.612 1.27728 23.0176C1.45009 21.6738 1.71912 20.3425 2.08228 19.034C2.82576 16.4198 3.87487 13.8975 5.20761 11.5199C5.86357 10.3272 6.6091 9.18499 7.43763 8.10328L7.44966 8.10307C7.45432 8.10233 7.45904 8.10225 7.4637 8.10283C7.46901 8.10184 7.47443 8.10174 7.47974 8.10255L7.49177 8.10234C7.49455 8.11144 7.49454 8.12122 7.49174 8.13042C7.49449 8.13885 7.49449 8.14798 7.49172 8.1565L7.48371 8.1426Z" fill="black"/>
<path d="M13.7139 7.03638C14.6712 6.43778 15.5064 5.57244 15.7421 4.45869C15.865 3.88868 15.7151 3.27126 16.0264 2.73811C16.1632 2.46848 16.3533 2.2288 16.585 2.0339C16.8167 1.83899 17.085 1.69301 17.3734 1.60499C16.8833 1.88814 16.4967 2.32279 16.2731 2.84216C16.1408 3.23674 16.0953 3.6538 16.1396 4.06449C16.0843 5.43795 14.984 6.62697 13.7139 7.03236L13.7139 7.03638Z" fill="black"/>
<path d="M20.2784 8.88117C19.1238 9.33974 17.6823 9.13779 16.9915 8.044C16.7205 7.52597 16.1878 7.40461 15.6348 7.4344C15.0554 7.49503 14.4806 7.5992 13.9153 7.74603C14.7199 7.37001 15.6452 6.95567 16.5519 7.22531C16.8616 7.33724 17.1198 7.55556 17.2812 7.84187C17.8997 8.85248 19.1683 9.03132 20.2784 8.88117Z" fill="black"/>
<path d="M14.5472 8.49075C15.1223 8.75219 15.6785 9.05232 16.212 9.38911C16.8939 9.85497 17.5697 10.3832 17.9443 11.1435C18.2608 11.8064 18.3624 12.5013 18.7873 13.0961C19.2015 13.6688 19.6715 14.1984 20.1907 14.6775C19.5708 14.2964 19.0194 13.8151 18.5584 13.2526C18.0873 12.6988 17.9275 11.9267 17.6251 11.2996C17.2946 10.6108 16.6649 10.0818 16.0573 9.59056C15.572 9.21962 15.0345 8.8476 14.5411 8.48684L14.5472 8.49075Z" fill="black"/>
<path d="M7.31108 7.14382C6.04165 6.78269 4.94342 5.63199 4.89046 4.26041C4.93652 3.84683 4.8917 3.42983 4.75914 3.03869C4.5378 2.52517 4.15174 2.10231 3.66096 1.83582C3.9492 1.9138 4.21729 2.05043 4.44864 2.23727C4.68 2.4241 4.86969 2.65716 5.00597 2.92202C5.31643 3.44434 5.16544 4.067 5.28731 4.63274C5.52103 5.73831 6.35476 6.57456 7.31108 7.1398L7.31108 7.14382Z" fill="black"/>
<path d="M0.753108 9.21657C1.85894 9.32789 3.12792 9.10458 3.75214 8.0722C3.91404 7.78022 4.1727 7.55284 4.48259 7.43005C5.3897 7.12863 6.31634 7.51052 7.11834 7.85839C6.55328 7.73137 5.97865 7.64733 5.39935 7.60701C4.84238 7.59666 4.31343 7.73663 4.04152 8.26418C3.34887 9.38221 1.90693 9.63469 0.753108 9.21657H0.753108Z" fill="black"/>
<path d="M6.48782 8.62544C5.99377 9.00345 5.45555 9.39428 4.96951 9.78218C4.36696 10.2946 3.73025 10.8457 3.39845 11.5461C3.129 12.0989 2.98386 12.7719 2.62814 13.3021C2.1383 13.981 1.52462 14.5621 0.820312 15.0139C1.33989 14.5162 1.81089 13.9701 2.22669 13.3834C2.65273 12.7737 2.75574 12.0753 3.07347 11.4012C3.44949 10.6278 4.12634 10.076 4.80915 9.58625C5.34334 9.2308 5.90013 8.91122 6.47577 8.62966L6.48782 8.62544Z" fill="black"/>
<path d="M7.21207 2.95362C7.11004 3.07651 7.02951 3.21404 6.97264 3.36027C7.00798 3.08855 7.07653 2.82092 7.17722 2.56353C7.34055 2.14599 7.58513 1.76381 7.89658 1.43949C8.20802 1.11516 8.58003 0.855248 8.9907 0.675037C9.40138 0.494827 9.84243 0.397964 10.2879 0.390148C10.7334 0.382332 11.1742 0.46372 11.5846 0.629525C11.9949 0.79533 12.3664 1.0422 12.6772 1.35561C12.9881 1.66901 13.2319 2.04262 13.3944 2.45444C13.4797 2.67039 13.5416 2.89455 13.5797 3.12319C13.529 3.01967 13.4655 2.92222 13.39 2.83326C13.1731 2.57758 12.8714 2.40851 12.5382 2.3559C12.2047 2.30278 11.861 2.36996 11.5681 2.54552C11.2752 2.72108 11.052 2.99366 10.9382 3.31487L10.938 3.31544C10.8949 3.44194 10.8141 3.55276 10.7065 3.63277C10.5991 3.71271 10.4702 3.75799 10.3375 3.76247L10.2597 3.76383C10.1258 3.76486 9.9956 3.72416 9.88725 3.64738C9.78085 3.57042 9.70094 3.46248 9.65814 3.33788L9.65816 3.33787L9.65773 3.33671C9.5411 3.02315 9.31735 2.76253 9.02551 2.60034C8.73367 2.43815 8.39226 2.38467 8.06084 2.44923C7.72943 2.5138 7.42904 2.6923 7.21207 2.95362Z" fill="black" stroke="white" stroke-width="0.1"/>
</svg>
