<svg width="25" height="27" viewBox="0 0 25 27" fill="none" xmlns="http://www.w3.org/2000/svg">
<path d="M1 6V19C1 20.1046 1.89543 21 3 21H13C14.1046 21 15 20.1046 15 19V6C15 4.89543 14.1046 4 13 4H3C1.89543 4 1 4.89543 1 6Z" stroke="black" stroke-width="2"/>
<g filter="url(#filter0_d_236_15309)">
<path d="M6 3V16C6 17.1046 6.89543 18 8 18H18C19.1046 18 20 17.1046 20 16V3C20 1.89543 19.1046 1 18 1H8C6.89543 1 6 1.89543 6 3Z" stroke="black" stroke-width="2" shape-rendering="crispEdges"/>
</g>
<defs>
<filter id="filter0_d_236_15309" x="1" y="0" width="24" height="27" filterUnits="userSpaceOnUse" color-interpolation-filters="sRGB">
<feFlood flood-opacity="0" result="BackgroundImageFix"/>
<feColorMatrix in="SourceAlpha" type="matrix" values="0 0 0 0 0 0 0 0 0 0 0 0 0 0 0 0 0 0 127 0" result="hardAlpha"/>
<feOffset dy="4"/>
<feGaussianBlur stdDeviation="2"/>
<feComposite in2="hardAlpha" operator="out"/>
<feColorMatrix type="matrix" values="0 0 0 0 0 0 0 0 0 0 0 0 0 0 0 0 0 0 0.25 0"/>
<feBlend mode="normal" in2="BackgroundImageFix" result="effect1_dropShadow_236_15309"/>
<feBlend mode="normal" in="SourceGraphic" in2="effect1_dropShadow_236_15309" result="shape"/>
</filter>
</defs>
</svg>
