<svg width="48" height="48" viewBox="0 0 48 48" fill="none" xmlns="http://www.w3.org/2000/svg">
<path d="M14.0128 25.5127C14.6144 27.4247 17.0697 31.2878 22.0782 31.4509C22.3908 31.4051 22.6712 31.2807 22.8698 31.0996C23.0684 30.9186 23.1726 30.6925 23.164 30.4612L23.164 24.6684C23.1346 23.5723 22.714 21.2204 21.2369 20.5925C20.288 20.2023 18.2583 19.1736 17.7447 18.0881C16.5857 18.4254 15.622 19.0416 15.0155 19.8334C14.2378 20.7664 12.9515 23.2069 14.0128 25.5127Z" fill="black"/>
<path d="M33.5572 25.4808C32.9556 27.3928 30.5003 31.2594 25.4919 31.4226C25.1792 31.3762 24.8988 31.2518 24.6995 31.0709C24.5003 30.8901 24.3947 30.6644 24.4012 30.4329L24.4012 24.6366C24.4305 23.5404 24.8511 21.1921 26.3282 20.5607C27.2771 20.174 29.3069 19.1417 29.8204 18.0598C30.9795 18.3971 31.9432 19.0133 32.5496 19.8051C33.3322 20.738 34.6186 23.168 33.5572 25.4808Z" fill="black"/>
<path d="M31.0674 6.30387C31.0674 5.86608 30.8884 5.43811 30.553 5.07409C30.2177 4.71008 29.741 4.42637 29.1833 4.25883C28.6257 4.09129 28.012 4.04746 27.42 4.13287C26.8279 4.21828 26.2841 4.42909 25.8573 4.73866C25.4305 5.04823 25.1398 5.44265 25.022 5.87203C24.9043 6.30141 24.9647 6.74649 25.1957 7.15096C25.4267 7.55543 25.8179 7.90114 26.3198 8.14436C26.8217 8.38759 27.4118 8.51741 28.0154 8.51741C28.8248 8.51741 29.6011 8.2842 30.1735 7.86908C30.7459 7.45396 31.0674 6.89094 31.0674 6.30387Z" fill="black"/>
<path d="M21.521 6.30387C21.521 5.86608 21.342 5.43811 21.0067 5.07409C20.6713 4.71008 20.1946 4.42637 19.637 4.25883C19.0793 4.09129 18.4656 4.04746 17.8736 4.13287C17.2816 4.21828 16.7377 4.42909 16.3109 4.73866C15.8841 5.04823 15.5934 5.44265 15.4756 5.87203C15.3579 6.30141 15.4183 6.74649 15.6493 7.15096C15.8803 7.55543 16.2715 7.90114 16.7734 8.14436C17.2753 8.38759 17.8654 8.51741 18.469 8.51741C18.8698 8.51741 19.2667 8.46016 19.637 8.34891C20.0072 8.23767 20.3437 8.07463 20.6271 7.86908C20.9105 7.66353 21.1353 7.41952 21.2887 7.15096C21.4421 6.8824 21.521 6.59456 21.521 6.30387Z" fill="black"/>
<path d="M30.994 12.1712C30.994 14.4521 30.8277 19.7093 23.7259 20.2626C16.2964 19.7093 16.4627 14.4521 16.4627 12.1712C16.4627 9.89023 19.7153 8.03497 23.7259 8.03497C27.7366 8.03497 30.994 9.89378 30.994 12.1712Z" fill="black"/>
<path d="M31.1847 13.6504C40.1597 20.7877 45.8578 30.1278 47.6724 39.7021L47.9708 41.9795C48.1908 44.1575 47.1833 46.8322 44.1313 47.7474C42.395 48.276 40.3358 47.8858 38.7511 47.3927C35.4595 46.3675 32.9161 44.6045 30.7102 42.6535C28.2505 40.5714 26.2207 38.2414 24.6845 35.7362L24.2247 34.8883L23.8579 34.0157L23.5791 33.1324L23.5791 33.1005C23.5791 33.1005 23.5791 33.1005 23.5791 33.0757L23.6036 33.0544L23.6378 33.0544C23.66 33.049 23.6841 33.049 23.7063 33.0544C23.726 33.0639 23.7414 33.0775 23.7503 33.0934C24.6943 35.3743 26.4991 37.4141 28.4604 39.3048C31.9428 42.4335 35.929 46.0447 41.6906 46.7542C44.3171 47.0202 45.9018 45.0798 46.0926 43.409C46.3127 42.4016 45.9116 40.9046 45.8089 39.8617C45.404 37.4999 44.7665 35.1622 43.9014 32.8664C42.1304 28.2771 39.6134 23.8569 36.4034 19.6986C34.8216 17.6113 33.0231 15.6143 31.0233 13.7249L31.0233 13.7036L31.0233 13.6753L31.0233 13.6504L31.0233 13.6291C31.033 13.6281 31.0429 13.6281 31.0526 13.6291C31.0639 13.6276 31.0755 13.6276 31.0869 13.6291C31.0998 13.6276 31.113 13.6276 31.126 13.6291C31.1357 13.6281 31.1456 13.6281 31.1553 13.6291L31.1847 13.6504Z" fill="black"/>
<path d="M16.3559 13.764C13.7695 16.7851 11.5127 19.9483 9.60625 23.2247C6.45641 28.5918 4.00111 34.2711 3.05714 40.0355C3.0229 40.3051 2.76367 41.9617 2.72454 42.2065C2.55336 43.4126 3.04735 45.0905 4.37283 45.6261C6.32925 46.2647 9.75298 44.679 11.4893 43.8525C13.9673 42.4005 16.2502 40.7816 18.3074 39.0175C20.5083 37.2754 22.3039 35.2854 23.624 33.1253C23.6582 33.0508 23.8392 33.0934 23.8001 33.1714C23.3252 34.3187 22.6687 35.4222 21.8436 36.4598C20.184 38.5247 18.2157 40.4507 15.9744 42.203C13.7734 43.9766 11.2692 45.6261 8.14871 46.5414C4.26522 47.8326 1.46755 46.474 0.978441 43.4765C0.748562 42.4335 1.13985 40.9295 1.24256 39.8795C1.66163 37.5084 2.31546 35.1623 3.19898 32.8593C5.00788 28.259 7.56254 23.8306 10.8094 19.6667C12.4075 17.5776 14.2241 15.5805 16.2434 13.693L16.2727 13.693C16.2841 13.6918 16.2956 13.6918 16.307 13.693C16.3199 13.6914 16.3332 13.6914 16.3461 13.693L16.3755 13.693C16.3823 13.7092 16.3823 13.7265 16.3755 13.7427C16.3822 13.7577 16.3822 13.7738 16.3755 13.7888L16.3559 13.764Z" fill="black"/>
<path d="M31.4731 11.9442C33.8062 10.9154 35.8408 9.41137 36.4131 7.44969C36.7115 6.44579 36.3446 5.34966 37.1027 4.41671C37.4356 3.94428 37.8986 3.52641 38.4631 3.18899C39.0277 2.85157 39.6816 2.60176 40.3846 2.45504C39.1901 2.9405 38.2485 3.69698 37.7043 4.60827C37.3826 5.30175 37.2725 6.03765 37.3815 6.76505C37.2495 9.19143 34.5692 11.2595 31.4731 11.9371L31.4731 11.9442Z" fill="black"/>
<path d="M47.4431 15.4205C44.6356 16.1939 41.1287 15.793 39.4462 13.842C38.7859 12.9197 37.4898 12.6891 36.1447 12.7246C34.7356 12.8136 33.3376 12.9796 31.9629 13.2212C33.9193 12.5827 36.1692 11.8803 38.3751 12.384C39.1286 12.5911 39.7573 12.9842 40.1505 13.4943C41.6569 15.2964 44.7432 15.6511 47.4431 15.4205Z" fill="black"/>
<path d="M33.4785 14.5727C34.8808 15.0525 36.237 15.6 37.5381 16.2116C39.2011 17.0559 40.8493 18.0101 41.764 19.3652C42.5368 20.5465 42.7862 21.7774 43.8231 22.8416C44.8338 23.8664 45.9806 24.8168 47.2468 25.6795C45.7352 24.9869 44.3903 24.1193 43.2655 23.1112C42.1161 22.1179 41.7248 20.7487 40.9863 19.6312C40.1793 18.4039 38.6435 17.4496 37.1615 16.5628C35.9779 15.8924 34.6671 15.2184 33.4639 14.5656L33.4785 14.5727Z" fill="black"/>
<path d="M15.9593 11.9442C12.8633 11.2666 10.183 9.19853 10.051 6.77215C10.1624 6.04241 10.0522 5.30383 9.72814 4.60827C9.18734 3.69363 8.2451 2.93417 7.04785 2.44794C7.75084 2.59467 8.40482 2.84448 8.96933 3.1819C9.53384 3.51933 9.99687 3.93718 10.3297 4.40962C11.0879 5.34257 10.721 6.4387 11.0194 7.44259C11.5916 9.40427 13.6263 10.9083 15.9593 11.9371L15.9593 11.9442Z" fill="black"/>
<path d="M-1.36183e-08 15.4205C2.69007 15.6511 5.77632 15.2964 7.29255 13.4943C7.68577 12.9842 8.31447 12.5911 9.068 12.384C11.2739 11.8803 13.5286 12.5827 15.4802 13.2212C14.1054 12.9796 12.7075 12.8136 11.2983 12.7246C9.94349 12.6891 8.65715 12.9197 7.99686 13.842C6.31434 15.793 2.80746 16.1939 -1.36183e-08 15.4205H-1.36183e-08Z" fill="black"/>
<path d="M13.9549 14.5727C12.7517 15.2254 11.4409 15.8994 10.2572 16.5699C8.78992 17.4567 7.23946 18.4109 6.43244 19.6383C5.77704 20.6067 5.42488 21.7916 4.55917 22.7174C3.36694 23.902 1.87266 24.9099 0.157227 25.6865C1.42235 24.8231 2.56897 23.8727 3.58096 22.8487C4.61786 21.7845 4.8673 20.5535 5.64009 19.3723C6.55471 18.0172 8.203 17.063 9.86595 16.2187C11.167 15.6071 12.5233 15.0596 13.9255 14.5798L13.9549 14.5727Z" fill="black"/>
<path d="M14.9136 6.1407L14.9821 6.1407C14.9852 5.56732 15.2658 5.01293 15.7749 4.57426C16.2841 4.13559 16.9894 3.84047 17.7678 3.74039C18.5463 3.64031 19.3484 3.74162 20.0344 4.02665C20.7204 4.31167 21.2467 4.76232 21.5214 5.29998C21.6339 5.5383 21.8437 5.74615 22.123 5.89593C22.4076 6.0458 22.7495 6.12764 23.1012 6.13006L23.2919 6.13006C23.6403 6.12613 23.9786 6.04429 24.2605 5.89572C24.5423 5.74716 24.7541 5.53911 24.8669 5.29998C25.1334 4.75625 25.657 4.29861 26.3447 4.00832C27.0324 3.71803 27.8397 3.61387 28.6232 3.71432C29.406 3.81388 30.1152 4.11092 30.6253 4.55297C31.1355 4.99501 31.4138 5.55361 31.4111 6.13006C31.4379 5.33216 31.2443 4.53843 30.8418 3.79559C30.4393 3.05275 29.836 2.37581 29.0674 1.80461C28.2988 1.23341 27.3804 0.779498 26.3663 0.469581C25.3521 0.159664 24.2628 9.05191e-06 23.1623 9.10896e-06C22.0619 9.16601e-06 20.9725 0.159664 19.9584 0.469581C18.9443 0.779499 18.0259 1.23341 17.2573 1.80461C16.4886 2.37581 15.8853 3.05275 15.4828 3.79559C15.0803 4.53843 14.8868 5.33216 14.9136 6.13006L14.9136 6.1407Z" fill="black"/>
</svg>
