<svg width="110" height="91" fill="none" xmlns="http://www.w3.org/2000/svg"><g clip-path="url(#clip0_601_5078)"><path d="M73.621 11.271c-2.125.484-6.421 2.46-6.602 6.488a1.09 1.09 0 001.1.873h6.441c1.22-.024 3.834-.362 4.532-1.55.434-.763 1.578-2.396 2.785-2.809a4.379 4.379 0 00-1.94-2.195c-1.038-.626-3.752-1.66-6.316-.807zm.036 15.721c-2.126-.484-6.426-2.459-6.607-6.488a1.097 1.097 0 011.1-.877h6.445c1.22.024 3.83.362 4.533 1.55.43.763 1.577 2.396 2.78 2.81a4.378 4.378 0 01-1.94 2.194c-1.038.63-3.74 1.665-6.311.81zM94.98 24.99a2.467 2.467 0 002.275-1.516 2.45 2.45 0 00-.534-2.675 2.463 2.463 0 00-4.202 1.736 2.457 2.457 0 002.461 2.455zm0-7.68a2.466 2.466 0 002.275-1.515 2.45 2.45 0 00-.534-2.676 2.464 2.464 0 00-4.202 1.736 2.449 2.449 0 001.52 2.268c.299.124.619.187.942.187z" fill="#000"/><path d="M88.456 24.93c-2.536 0-8.382-.133-8.997-5.846.615-5.976 6.46-5.842 8.997-5.842s4.6 2.616 4.6 5.842c0 3.226-2.067 5.846-4.6 5.846z" fill="#000"/><path d="M86.812 25.084c-7.936 7.219-18.322 11.802-28.968 13.262l-2.532.24c-2.422.177-5.396-.634-6.414-3.088-.588-1.397-.154-3.053.394-4.328 1.14-2.648 3.1-4.694 5.27-6.468a31.498 31.498 0 017.692-4.847l.943-.37.97-.294.982-.225h.063l.024.02v.027a.087.087 0 010 .056.095.095 0 01-.044.035c-2.536.76-4.804 2.211-6.906 3.789-3.48 2.8-7.495 6.007-8.284 10.641-.295 2.113 1.862 3.388 3.72 3.541 1.12.177 2.785-.146 3.944-.228a55.62 55.62 0 007.779-1.534 66.963 66.963 0 0014.642-6.031 52.203 52.203 0 006.642-4.328h.106a.078.078 0 010 .024.075.075 0 010 .027.092.092 0 010 .032.078.078 0 010 .023l-.023.024z" fill="#057C02"/><path d="M86.686 13.156a75.931 75.931 0 00-10.52-5.43C70.198 5.194 63.883 3.219 57.474 2.46c-.3-.028-2.142-.236-2.414-.268-1.342-.137-3.207.26-3.803 1.326-.71 1.574 1.053 4.328 1.972 5.724a40.64 40.64 0 005.377 5.484 24.237 24.237 0 006.551 4.277c.083.027.036.173-.051.141a17.267 17.267 0 01-3.656-1.573 36.186 36.186 0 01-6.387-4.721c-1.972-1.77-3.806-3.785-4.824-6.295-1.435-3.124.075-5.374 3.409-5.767 1.16-.185 2.832.13 4 .212a55.47 55.47 0 017.805 1.574 67.381 67.381 0 0114.67 6.121 51.957 51.957 0 016.642 4.371v.024a.098.098 0 010 .027.093.093 0 010 .032v.023a.096.096 0 01-.055 0 .083.083 0 01-.052 0l.028-.015z" fill="#057C02"/><mask id="a" fill="#fff"><path d="M88.709 25.316c1.144 1.877 2.816 3.513 4.998 3.973 1.116.24 2.335-.055 3.372.555a4.309 4.309 0 012.181 2.64 5.036 5.036 0 00-2.394-2.156 5.63 5.63 0 00-2.398-.26c-2.698-.106-4.998-2.262-5.751-4.752h-.008z"/></mask><path d="M88.709 25.316c1.144 1.877 2.816 3.513 4.998 3.973 1.116.24 2.335-.055 3.372.555a4.309 4.309 0 012.181 2.64 5.036 5.036 0 00-2.394-2.156 5.63 5.63 0 00-2.398-.26c-2.698-.106-4.998-2.262-5.751-4.752h-.008z" fill="#057C02"/><path d="M88.709 25.316v-1h-1.78l.926 1.52.854-.52zm4.998 3.973l.21-.977-.004-.001-.206.978zm3.372.555l-.507.862.026.015.027.014.454-.89zm2.181 2.64l-.872.49 1.833-.767-.96.277zm-2.394-2.156l.397-.918-.039-.017-.04-.013-.318.948zm-2.398-.26l-.04 1 .074.002.074-.008-.108-.994zm-5.751-4.752l.957-.29-.215-.71h-.742v1zm-.862.52c1.218 1.999 3.087 3.892 5.645 4.432l.413-1.957c-1.804-.38-3.28-1.76-4.35-3.516l-1.708 1.041zm5.641 4.431c.66.142 1.406.133 1.87.16.533.03.9.099 1.206.28l1.014-1.725c-.73-.43-1.492-.518-2.107-.552-.684-.039-1.105-.02-1.562-.118l-.42 1.955zm3.129.468c.403.206.76.492 1.048.84l1.542-1.274a5.308 5.308 0 00-1.682-1.348l-.908 1.782zm1.048.84c.288.349.501.752.626 1.186l1.922-.554a5.293 5.293 0 00-1.006-1.906l-1.542 1.274zm2.459.42a6.035 6.035 0 00-2.87-2.585l-.793 1.836a4.037 4.037 0 011.92 1.728l1.743-.98zm-2.948-2.615a6.631 6.631 0 00-2.824-.306l.216 1.988a4.629 4.629 0 011.972.214l.636-1.896zm-2.677-.31c-2.192-.087-4.178-1.879-4.833-4.044l-1.914.58c.852 2.815 3.464 5.335 6.668 5.462l.08-1.999zm-5.79-4.754h-.008v2h.008v-2z" fill="#057C02" mask="url(#a)"/><mask id="b" fill="#fff"><path d="M84.844 38.16c-.86-2.257-.415-5.078 1.755-6.431 1.025-.531 1.282-1.574 1.242-2.656a22.584 22.584 0 00-.552-3.364c.71 1.574 1.491 3.384.93 5.158a2.756 2.756 0 01-1.234 1.428c-2.003 1.212-2.398 3.694-2.141 5.866z"/></mask><path d="M84.844 38.16c-.86-2.257-.415-5.078 1.755-6.431 1.025-.531 1.282-1.574 1.242-2.656a22.584 22.584 0 00-.552-3.364c.71 1.574 1.491 3.384.93 5.158a2.756 2.756 0 01-1.234 1.428c-2.003 1.212-2.398 3.694-2.141 5.866z" fill="#057C02"/><path d="M84.844 38.16l-.935.357 1.928-.473-.993.117zm1.755-6.431l-.46-.888-.036.018-.033.021.529.849zm1.242-2.656l1-.036-.001-.026-.002-.025-.997.087zm-.552-3.364l.912-.41-1.884.646.972-.236zm.93 5.158l.936.355.01-.027.008-.027-.953-.3zm-1.234 1.428l-.487-.873-.015.008-.015.01.517.855zm-1.207 5.51c-.749-1.966-.288-4.206 1.35-5.228L86.07 30.88c-2.701 1.685-3.132 5.087-2.161 7.637l1.869-.712zm1.28-5.188c1.547-.801 1.827-2.362 1.783-3.58l-2 .073c.035.945-.197 1.47-.702 1.73l.92 1.777zm1.78-3.63a23.573 23.573 0 00-.577-3.514l-1.944.473c.257 1.056.433 2.13.528 3.214l1.993-.174zm-2.46-2.866c.74 1.64 1.315 3.093.888 4.445l1.907.602c.694-2.196-.293-4.363-.972-5.87l-1.823.823zm.907 4.391a1.756 1.756 0 01-.787.91l.974 1.747a3.757 3.757 0 001.683-1.947l-1.87-.71zm-.817.927c-2.529 1.53-2.887 4.56-2.618 6.84l1.987-.235c-.244-2.064.187-3.999 1.666-4.893l-1.035-1.712z" fill="#057C02" mask="url(#b)"/><mask id="c" fill="#fff"><path d="M85.787 26.929a27.852 27.852 0 01-1.823 3.265c-.939 1.338-2 2.664-3.506 3.4-1.314.621-2.683.822-3.866 1.656a21.434 21.434 0 00-3.156 2.754 13.177 13.177 0 012.856-3.203c1.105-.924 2.627-1.239 3.87-1.833 1.364-.65 2.426-1.885 3.412-3.077.745-.952 1.495-2.006 2.22-2.974l-.007.012z"/></mask><path d="M85.787 26.929a27.852 27.852 0 01-1.823 3.265c-.939 1.338-2 2.664-3.506 3.4-1.314.621-2.683.822-3.866 1.656a21.434 21.434 0 00-3.156 2.754 13.177 13.177 0 012.856-3.203c1.105-.924 2.627-1.239 3.87-1.833 1.364-.65 2.426-1.885 3.412-3.077.745-.952 1.495-2.006 2.22-2.974l-.007.012z" fill="#057C02"/><path d="M85.787 26.929l-.832-.556-.04.062-.033.067.904.427zm-1.823 3.265l.819.575.01-.015.01-.015-.839-.545zm-3.506 3.4l.427.903.011-.005-.438-.899zm-3.866 1.656l-.576-.818-.005.004.581.814zm-3.156 2.754l-.844-.535 1.573 1.22-.729-.685zm2.856-3.203l.628.778.007-.005.007-.006-.642-.767zm3.87-1.833l-.43-.903h-.002l.432.903zm3.412-3.077l.77.638.009-.01.008-.011-.787-.617zm2.22-2.974l.832.556-1.632-1.156.8.6zm-.912-.416a26.839 26.839 0 01-1.756 3.148l1.677 1.09a28.834 28.834 0 001.888-3.382l-1.809-.855zm-1.736 3.119c-.932 1.327-1.869 2.46-3.127 3.075l.877 1.797c1.755-.857 2.94-2.375 3.887-3.723l-1.637-1.15zm-3.116 3.07c-.596.282-1.181.459-1.888.71-.675.239-1.42.534-2.126 1.032l1.152 1.635c.476-.336 1.009-.558 1.642-.783.602-.213 1.358-.447 2.075-.787l-.855-1.807zm-4.019 1.746a22.44 22.44 0 00-3.302 2.882l1.456 1.371a20.44 20.44 0 013.008-2.625l-1.162-1.628zm-1.73 4.103a12.175 12.175 0 012.64-2.96l-1.257-1.556a14.176 14.176 0 00-3.072 3.445l1.69 1.07zm2.653-2.971c.428-.358.965-.62 1.611-.878.591-.236 1.39-.506 2.048-.82l-.863-1.804c-.585.28-1.168.464-1.925.766-.701.279-1.478.636-2.155 1.202l1.284 1.534zm3.657-1.697c1.595-.759 2.787-2.175 3.753-3.342l-1.54-1.275c-1.007 1.216-1.937 2.271-3.072 2.81l.86 1.807zm3.77-3.363c.751-.96 1.532-2.055 2.233-2.99l-1.6-1.2c-.75.999-1.468 2.012-2.208 2.957l1.575 1.233zm.602-4.147l-.008.012 1.663 1.112.008-.012-1.663-1.112z" fill="#057C02" mask="url(#c)"/><mask id="d" fill="#fff"><path d="M88.709 12.837c.753-2.49 3.053-4.646 5.75-4.753.812.09 1.634.001 2.407-.26a5.017 5.017 0 002.402-2.155 4.297 4.297 0 01-2.181 2.64c-1.038.61-2.256.314-3.373.554-2.18.46-3.853 2.097-4.997 3.974h-.008z"/></mask><path d="M88.709 12.837c.753-2.49 3.053-4.646 5.75-4.753.812.09 1.634.001 2.407-.26a5.017 5.017 0 002.402-2.155 4.297 4.297 0 01-2.181 2.64c-1.038.61-2.256.314-3.373.554-2.18.46-3.853 2.097-4.997 3.974h-.008z" fill="#057C02"/><path d="M88.709 12.837l-.957-.29-.39 1.29h1.347v-1zm5.75-4.753l.11-.993-.074-.009-.074.003.039 1zm2.407-.26l.32.948.037-.012.036-.016-.393-.92zm2.402-2.155l.961.277-1.833-.767.872.49zm-2.181 2.64l-.454-.891-.027.013-.026.016.507.862zm-3.373.554l.207.979h.004l-.21-.979zm-4.997 3.974v1h.561l.293-.48-.854-.52zm.95.29c.654-2.166 2.64-3.957 4.832-4.043l-.078-1.999c-3.205.126-5.817 2.647-6.67 5.462l1.915.58zm4.683-4.049a6.607 6.607 0 002.835-.306l-.638-1.895a4.607 4.607 0 01-1.977.214l-.22 1.987zm2.91-.334a6.016 6.016 0 002.88-2.585l-1.744-.98a4.017 4.017 0 01-1.923 1.726l.786 1.84zm1.047-3.352a3.296 3.296 0 01-.626 1.186l1.542 1.273a5.293 5.293 0 001.006-1.905l-1.922-.554zm-.626 1.186a3.31 3.31 0 01-1.048.84L97.54 9.2a5.309 5.309 0 001.682-1.349L97.68 6.578zm-1.1.869c-.308.18-.674.25-1.207.28-.465.026-1.21.017-1.87.159l.42 1.955c.457-.098.88-.08 1.563-.118.614-.035 1.376-.123 2.107-.552L96.58 7.447zm-3.073.438c-2.558.54-4.427 2.433-5.645 4.431l1.708 1.041c1.07-1.754 2.546-3.134 4.35-3.515l-.413-1.957zm-4.791 3.952h-.008v2h.008v-2z" fill="#057C02" mask="url(#d)"/><mask id="e" fill="#fff"><path d="M84.844 0c-.257 2.164.138 4.646 2.141 5.866a2.756 2.756 0 011.235 1.428c.56 1.774-.221 3.588-.931 5.157.269-1.105.453-2.23.552-3.363.04-1.09-.217-2.125-1.242-2.656C84.429 5.08 83.984 2.258 84.844 0z"/></mask><path d="M84.844 0c-.257 2.164.138 4.646 2.141 5.866a2.756 2.756 0 011.235 1.428c.56 1.774-.221 3.588-.931 5.157.269-1.105.453-2.23.552-3.363.04-1.09-.217-2.125-1.242-2.656C84.429 5.08 83.984 2.258 84.844 0z" fill="#057C02"/><path d="M84.844 0l.993.118.007-.059V0h-1zm2.141 5.866l-.52.854.017.01.016.01.487-.874zm1.235 1.428l.954-.301-.01-.027-.01-.027-.934.355zm-.931 5.157l-.972-.236 1.883.649-.911-.413zm.552-3.363l.997.087.002-.026v-.025l-.999-.036zM86.6 6.432l-.53.849.034.02.036.02.46-.889zM84.844 0h1l-1.935-.356.934.356zm-.994-.118c-.269 2.274.09 5.301 2.615 6.838l1.04-1.708c-1.482-.903-1.912-2.84-1.668-4.894L83.85-.118zm2.648 6.857c.362.202.64.524.787.91l1.87-.71a3.756 3.756 0 00-1.683-1.947l-.974 1.747zm.768.856c.427 1.352-.148 2.809-.888 4.444l1.822.825c.68-1.504 1.667-3.675.974-5.871l-1.908.602zm.995 5.093a23.57 23.57 0 00.577-3.513L86.845 9a21.582 21.582 0 01-.528 3.214l1.944.473zm.58-3.564c.044-1.227-.237-2.78-1.782-3.58l-.92 1.776c.505.262.737.779.703 1.732l1.999.072zm-1.713-3.54c-1.638-1.022-2.099-3.262-1.35-5.228l-1.869-.712c-.971 2.55-.54 5.952 2.16 7.637l1.059-1.697zM83.844 0h2-2z" fill="#057C02" mask="url(#e)"/><mask id="f" fill="#fff"><path d="M85.787 11.224c-.726-.968-1.476-2.022-2.221-2.974-.986-1.18-2.047-2.427-3.412-3.077-1.077-.527-2.394-.81-3.424-1.506a12.74 12.74 0 01-3.3-3.541 21.645 21.645 0 003.155 2.754c1.184.834 2.552 1.035 3.866 1.656 1.507.736 2.568 2.062 3.506 3.4A27.843 27.843 0 0185.78 11.2l.008.024z"/></mask><path d="M85.787 11.224c-.726-.968-1.476-2.022-2.221-2.974-.986-1.18-2.047-2.427-3.412-3.077-1.077-.527-2.394-.81-3.424-1.506a12.74 12.74 0 01-3.3-3.541 21.645 21.645 0 003.155 2.754c1.184.834 2.552 1.035 3.866 1.656 1.507.736 2.568 2.062 3.506 3.4A27.843 27.843 0 0185.78 11.2l.008.024z" fill="#057C02"/><path d="M85.787 11.224l-.8.6 1.748-.917-.948.317zM83.566 8.25l.787-.617-.01-.012-.01-.012-.767.64zm-3.412-3.077l-.44.899.01.005.43-.904zM76.73 3.667l-.588.808.014.01.014.01.56-.828zM73.43.126l.727-.686L72.581.656l.848-.53zm3.155 2.754l-.581.813.005.004.576-.817zm3.866 1.656l.439-.899-.011-.005-.428.904zm3.506 3.4l.839-.546-.01-.015-.01-.014-.819.574zM85.78 11.2l.948-.316-.019-.057-.025-.054-.904.428zm.808-.576c-.702-.936-1.482-2.03-2.234-2.99l-1.575 1.232c.74.945 1.459 1.958 2.209 2.958l1.6-1.2zM84.333 7.61c-.96-1.149-2.154-2.58-3.75-3.339l-.859 1.807c1.134.539 2.062 1.602 3.075 2.814l1.534-1.282zm-3.74-3.334c-.594-.29-1.27-.52-1.816-.727-.582-.22-1.075-.431-1.487-.71l-1.12 1.657c.618.418 1.298.696 1.901.924.64.241 1.161.416 1.643.653l.88-1.797zM77.32 2.858a11.74 11.74 0 01-3.043-3.263L72.581.656a13.74 13.74 0 003.56 3.82l1.178-1.618zM72.7.812a22.638 22.638 0 003.302 2.881l1.163-1.627a20.635 20.635 0 01-3.01-2.626L72.701.812zm3.307 2.885c.707.499 1.45.794 2.126 1.033.707.25 1.292.428 1.888.71l.855-1.808c-.717-.34-1.473-.573-2.075-.787-.633-.225-1.165-.447-1.642-.783l-1.152 1.635zm4.003 1.738c1.258.614 2.196 1.748 3.127 3.075l1.637-1.15c-.946-1.347-2.131-2.866-3.887-3.722l-.877 1.797zm3.107 3.045a26.84 26.84 0 011.757 3.148l1.808-.855a28.818 28.818 0 00-1.888-3.383l-1.677 1.09zm1.712 3.037l.008.024 1.897-.634-.008-.023-1.897.633z" fill="#057C02" mask="url(#f)"/><path d="M95.162 11.995v.055a2.726 2.726 0 011.742.638 2.713 2.713 0 01-.807 4.622 1.38 1.38 0 00-.663.484 1.359 1.359 0 00-.26.787v.153a1.359 1.359 0 00.923 1.267 2.7 2.7 0 011.763 3.021 2.7 2.7 0 01-.932 1.61 2.722 2.722 0 01-1.754.633 6.67 6.67 0 004.81-1.885 6.639 6.639 0 002.006-4.75 6.615 6.615 0 00-2.006-4.75 6.657 6.657 0 00-4.81-1.885h-.012zM10.523 53.11a.298.298 0 01.15-.283c.11-.061.228-.106.35-.133l.395-.115a.477.477 0 00.276-.228.64.64 0 00.067-.197c.017-.081.028-.164.032-.247a1.773 1.773 0 000-.244v-.209c0-.393 0-.787-.032-1.18-.031-.393-.027-.787-.027-1.224v-.861a.753.753 0 010-.106.172.172 0 01.023-.067c.02-.366.032-.724.036-1.086.004-.362 0-.716 0-1.082v-1.066a1.463 1.463 0 01-.048-.177 1.365 1.365 0 010-.181v-.094a.392.392 0 010-.095.311.311 0 00-.173-.122.99.99 0 00-.256-.047h-.285a1.767 1.767 0 01-.26 0 .447.447 0 01-.197-.083.224.224 0 01-.075-.18.31.31 0 01.256-.331h1.306l.083.027h.28c.3 0 .601-.02.9-.059.3-.04.603-.061.906-.063h.17a.69.69 0 01.197.028.451.451 0 01.162.083.186.186 0 01.075.153.361.361 0 01-.122.268.497.497 0 01-.245.141c-.101.024-.204.04-.308.047l-.3.028c-.094 0-.189.024-.287.04-.1.02-.2.047-.296.082v.22c0 .102-.024.213-.036.33-.011.119 0 .221-.031.323-.032.103-.024.17-.028.209v1.99c.035.056.053.12.052.185v.197c.002.06.015.118.039.173.037.058.095.1.162.118h2.287l.15-.02h.134a.095.095 0 01.048 0L16.1 48h1.949a.083.083 0 00.05-.028.24.24 0 00.048-.062.243.243 0 00.044-.067l.031-.051a.925.925 0 01.02-.138.527.527 0 00.027-.118v-1.959a1.072 1.072 0 000-.146 4.569 4.569 0 00-.039-.618 16.796 16.796 0 01-.067-.625.43.43 0 00-.174-.13A.872.872 0 0017.8 44h-1.14s-.04-.02-.079-.063a.519.519 0 01-.075-.086v-.095a.278.278 0 01.107-.26.506.506 0 01.276-.07c.364 0 .727.022 1.089.063.366.04.735.06 1.104.059h.627c.131-.063.273-.099.418-.107h.698c.068.032.13.073.186.122a.29.29 0 01.04.177v.126a.094.094 0 00-.04.028l-.075.047a.44.44 0 00-.083.047l-.06.028h-.504l-.177.031-.166.047a.716.716 0 00-.13.056c-.028 0-.048.047-.06.102a1.04 1.04 0 00-.035.18c0 .068 0 .139-.028.21a.627.627 0 01-.039.169v2.281c0 .13 0 .315.028.555v1.495a.418.418 0 000 .07v1.268c.002.05.002.102 0 .153 0 .11-.009.221-.028.33a2.778 2.778 0 000 .311v1.019c.035.067.075.13.122.189a.3.3 0 00.182.114h.256c.05.014.102.023.154.028.07.007.14.02.209.035l.197.024.115.023c.036.009.07.025.098.047.055.024.087.048.095.067a.15.15 0 01.067.048c.027.02.043.035.043.047a.028.028 0 000 .02l-.055.055-.055.047-.114.02h-.269l-.087.055-.18.02h-.317l-.17-.02h-.216a.11.11 0 01-.047 0l-.032-.02a.761.761 0 00-.122-.024h-.485l-.115.02a.156.156 0 00-.063 0h-.815l-.21.035-.161.02h-.539a.405.405 0 01-.094 0h-.06l-.082-.06a.233.233 0 01-.071-.078v-.102a.27.27 0 01.031-.15.268.268 0 01.103-.086.364.364 0 01.134-.047l.154-.032a.347.347 0 01.083 0h.248c.03 0 .06-.007.087-.02h.34a.064.064 0 00.047 0 .083.083 0 00.052 0 .483.483 0 00.067-.058l.063-.063.04-.051a.602.602 0 000-.064.822.822 0 00.035-.117c0-.048.023-.091.031-.13a.393.393 0 000-.107v-.141a.246.246 0 000-.075c0-.035 0-.075-.02-.114a.693.693 0 00-.027-.106.574.574 0 010-.067.298.298 0 010-.055.313.313 0 00.02-.083c0-.023 0-.05.027-.07a.12.12 0 000-.048v-1.916a1.38 1.38 0 00-.02-.141v-.114a2.092 2.092 0 00-.043-.158.354.354 0 00-.04-.106.11.11 0 00-.039-.051h-.098l-.13-.028a.625.625 0 00-.115 0 .247.247 0 00-.075 0h-.43a2.36 2.36 0 01-.264.02h-.82a2.267 2.267 0 01-.265-.02l-.102.047h-2.335l-.13-.027h-.06a.1.1 0 00-.102.063.447.447 0 00-.036.134 30.27 30.27 0 00-.106.692 5.47 5.47 0 00-.047.712v.37a.243.243 0 000 .059.242.242 0 010 .067.92.92 0 000 .11.366.366 0 000 .134.37.37 0 01.027.134v-.056a.718.718 0 010 .075.301.301 0 000 .075v.885a.26.26 0 00.055.102l.095.107a.225.225 0 00.142.082h.154a.536.536 0 01.126.036.394.394 0 00.114.02h.123a.597.597 0 01.13.027l.118.023a.469.469 0 01.075.024.07.07 0 01.047.02c.021.003.04.013.056.027h.248a.339.339 0 01.182.06.173.173 0 01.094.149.212.212 0 01-.051.145l-.11.107-.194.035-.177.02h-.588a1.292 1.292 0 01-.343-.055 1.36 1.36 0 00-.394-.056h-.75a.486.486 0 01-.106 0H12.1a7.528 7.528 0 01-.646.075 6.415 6.415 0 01-.66.036h-.196c-.044-.024-.071-.048-.08-.075a.465.465 0 01.005.023zm11.64.02a.126.126 0 00-.04-.075.312.312 0 01-.04-.086v-.036a.435.435 0 01.06-.078l.102-.106.107-.11a.78.78 0 00.075-.068.302.302 0 01.087-.027h.595a.134.134 0 00.052 0l.074-.02a.214.214 0 00.068-.027h.035a.178.178 0 00.107-.15.91.91 0 000-.2v-1.236c0-.047.02-.086.027-.122.008-.035 0-.059.02-.074v-2.931a.428.428 0 00-.047-.217.308.308 0 00-.119-.118.502.502 0 00-.177-.063 1.647 1.647 0 00-.201 0h-.276a.942.942 0 01-.32-.047.216.216 0 01-.126-.228v-.11a.627.627 0 01.035-.126c.21.014.421.014.631 0 .209-.024.418-.035.628-.035h.177a.611.611 0 00.107 0h3.62a.348.348 0 01.288.106.629.629 0 01.13.255v.937c0 .07-.023.141-.035.22-.012.079-.02.154-.035.232-.016.079 0 .122 0 .154l-.048.059c-.018.023-.034.035-.047.035h-.028a.626.626 0 01-.173-.18 1.269 1.269 0 01-.103-.225 3.81 3.81 0 01-.075-.228.973.973 0 00-.098-.217.48.48 0 00-.091-.086l-.071-.075a.447.447 0 01-.063-.07c-.028-.044-.06-.084-.095-.13-.035-.048-.063-.095-.095-.134l-.05-.075c0-.04-.04-.06-.064-.06h-.127a.319.319 0 00-.082 0h-.106l-.123-.027-.114-.027-.067-.028h-.036a.241.241 0 00-.07 0 .215.215 0 01-.068 0h-.023a.575.575 0 00-.115 0h-.193a1.777 1.777 0 00-.201 0h-.11a.395.395 0 00-.202.047.394.394 0 00-.134.122c-.035.054-.065.11-.09.17 0 .055-.044.114-.068.173-.023.059 0 .13-.027.244-.028.114-.02.228-.032.354-.012.125 0 .243-.027.358-.028.114 0 .188 0 .236v.657c.033.043.07.084.11.122a.32.32 0 00.142.078h.753c.119 0 .257 0 .418-.043a.25.25 0 00.024-.047l.032-.177s.023-.044.035-.06v-.035l.067-.133c.028-.063.052-.122.08-.181.027-.06.05-.118.066-.162l.044-.074a.678.678 0 00.027-.114.286.286 0 01.024-.107.284.284 0 01.142-.082.908.908 0 01.177 0 .103.103 0 01.115.074c.018.05.027.102.027.154v.252a.597.597 0 010 .118.334.334 0 01-.047.11v1.558a.288.288 0 000 .063v.106a.94.94 0 010 .106.388.388 0 010 .075.892.892 0 01-.134.083.329.329 0 01-.134.023.154.154 0 01-.103-.04.664.664 0 01-.087-.113.706.706 0 01-.102-.268v-.511a.154.154 0 00-.197-.055l-.095-.056-.126-.03a1.354 1.354 0 00-.19-.036 1.71 1.71 0 00-.181-.028h-.797l-.094.106v.228c0 .268 0 .52-.024.768a7.935 7.935 0 00-.028.759c-.003.1.008.199.032.295a.244.244 0 00.11.138.64.64 0 00.186.059c.096.016.19.038.284.067l.047.02a.16.16 0 01.047.039h1.085a.431.431 0 01.103-.02l.094-.024h.56l.067-.055c.028 0 .048-.043.067-.059.02-.015.028-.027.032-.027a.261.261 0 01.075 0h.055l.04-.02a.142.142 0 00.04-.059.785.785 0 00.11-.224 1.49 1.49 0 01.086-.228.5.5 0 00.114-.17.084.084 0 00.04-.02l.067-.05.063-.063a.192.192 0 00.032-.047.346.346 0 01.027-.052l.056-.082a.46.46 0 01.047-.079l.032-.055.02-.028a.061.061 0 00.027 0c.067 0 .11.024.122.08a.512.512 0 010 .152v1.024a.675.675 0 01-.035.2.71.71 0 01-.095.209.513.513 0 01-.146.169.295.295 0 01-.177.074h-.706a1.128 1.128 0 01-.182-.02h-.244a.899.899 0 01-.154.024h-3.231a.357.357 0 01-.094 0h-.352a.273.273 0 01-.106.048.395.395 0 01-.114.027h-.115l-.162-.035-.17-.032-.121-.114zm9.447-4.445v.593c0 .064 0 .091.023.099v.047a.794.794 0 010 .102v.201c0 .02 0 .126.028.197a.22.22 0 00.134.161h.292c.235 0 .466-.066.666-.189.213-.122.408-.273.58-.448.1-.147.16-.318.174-.496a4.23 4.23 0 00.035-.539v-.393a1.52 1.52 0 00-.177-.394.962.962 0 00-.288-.322h-.075l-.067-.036-.095-.059-.102-.047h-.19a1.257 1.257 0 00-.173 0h-.363a.305.305 0 00-.103.04.58.58 0 00-.086.082.319.319 0 00-.067.095.223.223 0 00-.036.086.887.887 0 01-.028.134c0 .059 0 .118-.031.18-.032.064 0 .115-.028.162-.027.047 0 .075 0 .083 0 .008 0 .031-.023.078-.024.048 0 .11 0 .177v.406zm-2.24 4.327c0-.07.05-.118.149-.145.113-.033.227-.058.343-.075l.36-.075c.113-.027.184-.07.208-.134.024-.063 0-.11 0-.208 0-.099 0-.2.032-.307.031-.106.027-.216.035-.31.008-.095.024-.162.032-.198v-.07c0-.158 0-.319-.024-.48-.024-.162-.024-.323-.024-.484v-.381c0-.064 0-.13.02-.182.02-.051 0-.09 0-.102v-1.865a.55.55 0 00-.067-.287c-.043-.087-.095-.177-.146-.272a.29.29 0 00-.197-.114 1.783 1.783 0 00-.296-.059c-.099 0-.19-.039-.268-.063-.079-.023-.122-.07-.122-.133a.234.234 0 01.031-.095.337.337 0 01.083-.094h.734c.075 0 .146 0 .209-.02h.793a.171.171 0 01.055 0h2.213a.571.571 0 01.165.075l.178.094h.164l.103.028h.06c.168.122.304.284.394.472.09.182.16.373.209.57v.083c0 .112-.006.224-.02.334a2.158 2.158 0 01-.055.35 1.37 1.37 0 01-.115.323 1.05 1.05 0 01-.173.276c-.08.097-.165.19-.257.275a.761.761 0 01-.315.189.396.396 0 01-.103.031c-.045.012-.09.027-.134.043a.417.417 0 00-.122.071.138.138 0 00-.047.11.578.578 0 00.094.248 6.634 6.634 0 00.458.673c.079.102.142.177.181.22.02.036.043.07.067.103l.142.18.162.19.13.141a.252.252 0 01.047.06l.17.133.193.161.178.142a.314.314 0 00.09.063l.028.027.075.047.083.052a.202.202 0 00.07.027l.103.055c.051.02.099.047.143.079a.57.57 0 01.114.094.098.098 0 01.035.095.07.07 0 01-.043.059.224.224 0 01-.087.047l-.102.028H33.59a.636.636 0 01-.146-.028.288.288 0 01-.123-.067.195.195 0 01-.047-.142.122.122 0 01.055-.094.985.985 0 01.119-.098l.142-.095a.396.396 0 00.11-.094v-.055a.388.388 0 01-.047-.075c0-.031-.04-.063-.056-.094l-.039-.087a.134.134 0 010-.047.9.9 0 01-.09-.106 4.802 4.802 0 00-.147-.197c-.05-.067-.106-.13-.15-.189-.043-.059-.074-.094-.086-.114a8.42 8.42 0 00-.237-.303 3.651 3.651 0 00-.237-.256 3.001 3.001 0 00-.26-.228l-.304-.248a1.207 1.207 0 01-.102-.098.134.134 0 00-.122-.055h-.032a.048.048 0 00-.02.027.072.072 0 000 .032c0 .051 0 .138-.027.264-.028.125 0 .26-.032.393-.032.134 0 .275-.027.393-.028.118 0 .213 0 .256 0 .043-.024 0-.028.047v.126c0 .024 0 .036.027.036a.905.905 0 000 .114c0 .055 0 .11.028.173.028.063.024.114.032.169.008.055.023.083.027.102a.163.163 0 000 .06.782.782 0 00.04.082l.047.07c0 .024.032.036.04.036h.477a.075.075 0 000 .028l.027.039a.315.315 0 01.056.083.37.37 0 010 .078.102.102 0 01-.071.102.958.958 0 01-.142.04h-.292c-.292 0-.58 0-.864.02-.284.02-.572.027-.876.027h-.591a.395.395 0 01-.17-.035.137.137 0 01-.083-.118v.031zm7.146.083l-.094-.047a.322.322 0 01-.048-.08.273.273 0 010-.094.232.232 0 01.067-.15h.056a.12.12 0 01.05 0h.056a1.09 1.09 0 01.162-.023l.17-.027.165-.04a.488.488 0 00.142-.074.634.634 0 00.217-.217.865.865 0 00.107-.267c.022-.096.037-.193.043-.291v-.469c0-.082 0-.184.024-.283.023-.098 0-.193 0-.275v-.189a.994.994 0 00.134-.358c.023-.118.047-.244.075-.374a.086.086 0 01.02-.043.11.11 0 000-.047.523.523 0 000-.071.277.277 0 01-.02-.083v-.047a.281.281 0 01.02-.075.461.461 0 000-.098v-.862a.363.363 0 010-.059c0-.039.027-.074.039-.117a.844.844 0 00.035-.107.392.392 0 000-.067.553.553 0 00-.047-.287.675.675 0 00-.17-.224 1.323 1.323 0 00-.228-.181l-.23-.15a1.223 1.223 0 01-.18-.145.255.255 0 01-.076-.177v-.079l.174-.102c.028 0 .043-.024.047 0h1.414c.12.023.226.092.295.193.096.12.175.252.237.393.068.137.125.279.17.425.043.142.078.256.102.342 0 0 0 .028.02.055a.482.482 0 010 .087.793.793 0 010 .078v.036c.02.022.042.042.067.059l.075.047c.079.181.15.358.209.54.06.18.13.361.201.542a.394.394 0 00.075.122.251.251 0 01.071.134.11.11 0 01.043.067c.01.028.02.055.032.082a.504.504 0 01.028.15c0 .035.023.067.075.098.05.032 0 0 .039.035l.067.032a.67.67 0 000 .083.305.305 0 01.028.067c0 .031.04.086.075.169.035.082.075.157.114.248.04.09.087.165.122.24.036.074.067.13.08.16a.076.076 0 00.054.048h.056c.043 0 .086-.01.126-.027a.159.159 0 00.094-.087 5.12 5.12 0 01.17-.315c.063-.11.118-.224.17-.338a.183.183 0 00.023-.04.39.39 0 00.036-.082c0-.032.023-.055.031-.079a.139.139 0 00.024-.055c0-.047.032-.086.043-.114l.056-.075a.549.549 0 00.047-.07.568.568 0 00.055-.11.067.067 0 010-.032v-.182a.742.742 0 00.048-.09 2.03 2.03 0 00.082-.16l.087-.162a.693.693 0 01.055-.087c.025-.065.045-.132.06-.2a.926.926 0 01.082-.197l.221-.449c.075-.153.154-.295.23-.432a.935.935 0 00.062-.118c.032-.06.06-.122.09-.19a1.33 1.33 0 00.096-.188l.07-.134a.626.626 0 00.044-.114l.055-.13a.993.993 0 01.06-.114.25.25 0 01.11-.078.465.465 0 01.154-.075.937.937 0 01.181-.04l.197-.027.182-.028h.075a.609.609 0 01.122 0h.207a.051.051 0 01.04 0h.263a.306.306 0 01.091 0h.068v.087a.605.605 0 01-.052.067c-.027.027-.04.043-.04.055a.784.784 0 00-.102.051l-.142.075-.142.075a.37.37 0 01-.094.039l-.032.11v.555a.463.463 0 01-.028.082c0 .04-.031.067-.04.079l.02 1.574v.173c.036.283.064.574.08.873.015.3.027.598.027.897v.488c0 .161 0 .31-.02.464l.075.055.083.04.09.027.167.032.157.027h.095a.323.323 0 01.083.028l.134.063c.049.019.096.041.142.067l.106.05c.04 0 .06.024.064.044a.099.099 0 010 .051c0 .043 0 .067-.032.075a.417.417 0 01-.09.027.168.168 0 01-.068.02h-2.95a.115.115 0 01-.095-.13.253.253 0 010-.106.113.113 0 01.075-.067l.162-.059.126-.047.114-.043.162-.052a.696.696 0 00.154-.066.394.394 0 00.11-.114.31.31 0 00.048-.178v-2.21a.626.626 0 01-.036-.083.393.393 0 010-.067v-.417a.533.533 0 010-.094.31.31 0 00-.027-.087.646.646 0 010-.079s0-.039-.02-.074c-.02-.036 0-.083 0-.122v-.221a.06.06 0 00-.043-.04.137.137 0 00-.06 0 .119.119 0 00-.106.052.43.43 0 00-.055.13 1.237 1.237 0 00-.036.142.267.267 0 010 .098v.023l-.106.146a.756.756 0 01-.11.122.161.161 0 010 .035l-.036.048-.032.05a.97.97 0 00-.09.139l-.048.106c0 .035-.027.074-.047.122-.02.047-.028.086-.051.145-.091.181-.178.37-.265.567a7.317 7.317 0 01-.26.55l-.063.103-.075.114-.075.114a.583.583 0 00-.044.086 2.1 2.1 0 00-.074.264 1.09 1.09 0 01-.087.248l-.028.04a.49.49 0 00-.047.066l-.047.067v.066a.618.618 0 01-.02.068.718.718 0 010 .075.09.09 0 010 .039.703.703 0 01-.158.264 1.233 1.233 0 01-.256.188h-.04a.148.148 0 00-.059 0c-.024 0-.035-.02-.035-.027a.321.321 0 00-.048-.079l-.04-.07a.483.483 0 01-.035-.06 15.755 15.755 0 00-.355-.767 24.633 24.633 0 01-.363-.787c-.118-.271-.189-.425-.28-.637-.09-.212-.177-.429-.28-.641 0 0-.031-.028-.043-.028a1.684 1.684 0 01-.126-.287 3.238 3.238 0 00-.142-.35 1.654 1.654 0 00-.182-.33.559.559 0 00-.244-.21l-.028.056c0 .027 0 .055-.032.087l-.027.094v.067a11.9 11.9 0 00-.095.645 5.336 5.336 0 00-.035.625v.634a.395.395 0 01-.044.098.058.058 0 010 .028.06.06 0 010 .027v.484a.634.634 0 010 .083c0 .02 0 .035-.02.04v.219c0 .052 0 .115.02.178.02.063 0 .114 0 .165a1.01 1.01 0 000 .11.32.32 0 00.201.22c.102.035.206.06.312.075l.079.02h.15c.05.002.1.008.15.02h.087s.035.027.086.082c.044.036.085.076.123.118a.157.157 0 01-.083.122.229.229 0 01-.127.055H37.19l-.675.016zm9.889.047a.126.126 0 00-.04-.075.35.35 0 01-.043-.086v-.036s.032-.043.063-.078c.032-.038.067-.073.103-.107l.106-.11.075-.067a.26.26 0 01.087-.027.683.683 0 01.114 0h.478a.156.156 0 00.055 0l.075-.02.067-.027h.032a.19.19 0 00.11-.15 1.245 1.245 0 000-.2v-1.047a.622.622 0 010-.075 1.034 1.034 0 000-.114.793.793 0 01.028-.122v-3.005a.428.428 0 00-.048-.217.291.291 0 00-.122-.118.477.477 0 00-.174-.063 1.632 1.632 0 00-.205 0h-.276a.917.917 0 01-.315-.047c-.087-.032-.127-.11-.127-.228v-.11a.958.958 0 01.032-.126c.211.014.424.014.635 0 .208-.024.418-.036.627-.036h3.901a.356.356 0 01.292.107.63.63 0 01.13.255v.937c0 .07-.02.141-.035.22-.016.079-.02.153-.032.232-.012.079 0 .122 0 .153l-.047.06c-.024.023-.04.035-.047.035h-.052a.626.626 0 01-.173-.181 1.638 1.638 0 01-.103-.224c-.023-.075-.051-.15-.07-.229a.985.985 0 00-.103-.216.417.417 0 00-.087-.087.568.568 0 01-.075-.074l-.06-.071c-.027-.043-.058-.083-.094-.13-.035-.047-.063-.094-.095-.134l-.055-.074c0-.04-.04-.06-.059-.06h-.13a.29.29 0 00-.08 0h-.11l-.118-.027-.114-.028-.067-.027h-.036a.235.235 0 00-.075 0 .216.216 0 01-.067 0 .575.575 0 00-.114 0h-.197a1.775 1.775 0 00-.202 0h-.106a.395.395 0 00-.205.047.443.443 0 00-.134.122c-.034.054-.063.11-.087.17l-.067.172c0 .052 0 .13-.028.244-.027.114 0 .229-.035.354-.036.126 0 .244-.024.358a2.384 2.384 0 000 .236v.552c0 .06 0 .09.02.106.033.043.069.084.106.122.041.037.09.064.142.08h.79c.118 0 .256 0 .417-.044a.336.336 0 00.02-.047.386.386 0 01.036-.067l.031-.06v-.035c.025-.043.047-.088.067-.133l.08-.288c.027-.063.046-.118.066-.16l.04-.076a.418.418 0 00.027-.114.256.256 0 01.028-.106.284.284 0 01.142-.083.867.867 0 01.173 0c.063 0 .103.024.115.075.02.049.029.101.027.154v.251a.597.597 0 010 .118.66.66 0 01-.047.11v1.558a.23.23 0 000 .063v.107a.94.94 0 010 .106.492.492 0 010 .075c-.043.03-.088.058-.134.082a.36.36 0 01-.138.024.143.143 0 01-.099-.04.516.516 0 01-.087-.114 1.104 1.104 0 01-.07-.133.716.716 0 01-.032-.134v-.512a.122.122 0 00-.075-.047l-.09-.055-.13-.031a1.339 1.339 0 00-.19-.036 1.585 1.585 0 00-.182-.027h-.781l-.094.106v.228c0 .268 0 .52-.028.767-.028.248-.028.496-.028.76-.004.1.008.199.036.295a.24.24 0 00.106.137c.06.029.124.048.19.06.096.017.19.039.284.066l.047.02.047.04H50.8a.4.4 0 01.099-.02l.094-.024h.561l.067-.055a.544.544 0 00.067-.06c0-.019.031-.027.035-.027a.236.236 0 01.075 0h.051l.044-.02a.188.188 0 00.04-.058.787.787 0 00.106-.225 1.51 1.51 0 01.09-.228.5.5 0 00.11-.17.087.087 0 00.044-.019l.067-.05.06-.064a.14.14 0 00.035-.047.166.166 0 01.027-.051l.052-.083.047-.078.036-.055.02-.028h.027c.067 0 .107.024.122.079a.69.69 0 010 .153v1.022a.66.66 0 01-.031.2.992.992 0 01-.095.21.52.52 0 01-.15.168.276.276 0 01-.173.075h-.71a1.174 1.174 0 01-.182-.02h-.24a.904.904 0 01-.158.024h-3.295a.357.357 0 01-.094 0h-.351a.345.345 0 01-.107.047.395.395 0 01-.118.028h-.11l-.167-.036-.165-.031a.84.84 0 01-.225-.157v.031zm8.966-.047a.192.192 0 01.04-.134.308.308 0 01.102-.087.6.6 0 01.193-.055l.256-.055c.082-.017.161-.043.237-.078a.229.229 0 00.122-.15v-4.717a.394.394 0 00-.161-.208.395.395 0 00-.257-.095h-.864a.424.424 0 00-.134.04l-.118.055a1.577 1.577 0 00-.414.338 3.796 3.796 0 00-.308.393.273.273 0 00-.043.047c0 .024-.028.048-.048.08a.442.442 0 01-.047.082l-.024.047-.047.087-.075.106a.394.394 0 01-.087.094.114.114 0 01-.075.044.181.181 0 01-.114-.036.245.245 0 01-.067-.086.557.557 0 01-.036-.114v-.13c.001-.094.01-.188.028-.28.02-.09.035-.185.055-.283.018-.09.031-.18.04-.271 0-.122.04-.248.067-.37.025-.113.063-.223.114-.327a.229.229 0 01.205-.141.038.038 0 01.024 0h.075a.424.424 0 00.083.047l.126.063.134.059.075.027h.379a.302.302 0 01.078.028h.048c.225 0 .45-.02.67-.06a3.52 3.52 0 01.671-.066c.395 0 .79.022 1.183.067.393.04.788.06 1.184.059h.409l.114-.032.123-.043.086-.031a.642.642 0 00.103-.047l.075-.067a.391.391 0 01.087-.056.268.268 0 01.122-.027.233.233 0 01.201.122c.058.083.1.177.122.275.033.108.055.219.067.33.015.085.034.167.06.249.02.099.048.196.082.29.04.098.06.203.06.308a.615.615 0 010 .11.319.319 0 01-.036.114.268.268 0 01-.071.078.193.193 0 01-.118.036.264.264 0 01-.162-.102l-.201-.236a6.783 6.783 0 00-.201-.26.535.535 0 00-.178-.17l-.06-.035-.094-.05a.536.536 0 00-.094-.048l-.052-.035a2.475 2.475 0 01-.252-.162.952.952 0 00-.257-.141h-.464c-.096 0-.193.008-.288.023a.296.296 0 00-.22.126v.826a.156.156 0 010 .048.559.559 0 01-.02.063c0 .02 0 .043-.028.066a.088.088 0 010 .032v2.081a.81.81 0 00-.075.185 1.141 1.141 0 000 .185v.098a.472.472 0 000 .063c.011.029.018.06.02.09a.83.83 0 01.023.095.39.39 0 010 .055v.76c.012.084.035.168.067.247a.213.213 0 00.206.122h.603c.033.024.06.057.075.095a.204.204 0 01.03.158.11.11 0 01-.022.038.43.43 0 01-.083.071h-2.856a.429.429 0 01-.102 0c-.06.099-.071.099-.071.051v.032zm5.715-.126a.196.196 0 01.095-.177.368.368 0 01.209-.067h.331a.316.316 0 00.087-.02s.028 0 .055-.023h.107l.173.02a.197.197 0 00.095 0l.063-.067a.429.429 0 00.04-.067.205.205 0 01.055-.075v-.311c0-.123-.007-.247-.02-.37a2.94 2.94 0 01-.024-.393 1.499 1.499 0 010-.228 1.37 1.37 0 000-.201v-.303c0-.07 0-.173-.023-.287-.024-.114 0-.26-.032-.433 0-.063.024-.114.028-.161s0-.102 0-.165v-.177a.236.236 0 000-.04v-.075a.34.34 0 000-.066.118.118 0 010-.04v-.66c0-.103 0-.221-.02-.343-.02-.122 0-.232 0-.338v-.22a.303.303 0 00-.083-.15 1.11 1.11 0 00-.126-.118.205.205 0 00-.103-.047h-.04a.112.112 0 01-.054 0h-.06a.237.237 0 00-.074-.032.217.217 0 00-.075-.027h-.107a1.114 1.114 0 00-.173-.036l-.186-.027h-.098a.244.244 0 01-.11-.055.184.184 0 01-.04-.118.65.65 0 01.02-.134c0-.055.039-.09.074-.102a.394.394 0 01.162-.048c.082-.013.165-.022.249-.027h1.668a1.77 1.77 0 01.19-.024h1.313l.146.047c.06.012.12.027.177.048a.34.34 0 01.142.074.13.13 0 01.06.118.211.211 0 01-.095.17.897.897 0 01-.221.114c-.084.027-.17.05-.256.066a1.326 1.326 0 01-.198.036h-.465a.285.285 0 00-.075.047.278.278 0 01-.087.047l-.154.08a.102.102 0 00-.055.086v.279a.197.197 0 00.06.126v.303c0 .263-.018.526-.052.787-.036.26-.054.523-.055.786a1.315 1.315 0 000 .162V52.3a.263.263 0 00.047.213.59.59 0 00.182.122c.08.03.163.056.248.074l.256.06a.79.79 0 01.206.074.152.152 0 01.049.223.168.168 0 01-.073.06c-.05.03-.1.057-.154.079h-.994a.458.458 0 00-.205.055.395.395 0 01-.185.051h-.083l-.17-.023-.154-.024c-.051 0-.079 0-.087-.024h-.177c-.09 0-.18.012-.268.036a.832.832 0 01-.268.04h-.162a1.03 1.03 0 01-.197-.036.608.608 0 01-.17-.079.217.217 0 01-.079-.264v.032zm6.35-2.49a.133.133 0 00.087.133c.05.026.106.04.162.044h.655a.791.791 0 00.304-.056c.086-.039.126-.125.126-.26v-.113c-.04-.21-.1-.416-.182-.614-.078-.205-.157-.393-.228-.598a.868.868 0 00-.04-.102.452.452 0 00-.055-.106.322.322 0 00-.115-.113.122.122 0 00-.047-.01.174.174 0 00-.142.075.82.82 0 00-.079.177 1.66 1.66 0 00-.047.209 1.392 1.392 0 01-.047.161c0 .04-.04.11-.075.213l-.103.33c-.035.11-.07.22-.106.323a3.152 3.152 0 00-.067.216v.09zm-1.577 2.628h-.103l-.122.02h-.233a.084.084 0 01-.067-.032.28.28 0 01-.043-.075.392.392 0 010-.087v-.083a.166.166 0 01.083-.16l.165-.075.067-.02.119-.055.118-.047a.261.261 0 00.067-.04l.044-.031.07-.075a.723.723 0 00.076-.082l.067-.067v-.032a.119.119 0 00.027-.063.383.383 0 010-.078.266.266 0 01.032-.083 31.355 31.355 0 00.71-1.483.394.394 0 00.051-.114c.028-.071.047-.114.055-.142.008-.027 0-.035.032-.082.031-.048.04-.099.055-.146a2.82 2.82 0 00.047-.15.26.26 0 00.028-.082l.04-.09.082-.162c.03-.055.056-.111.08-.17.027-.054.046-.086.054-.101l.103-.217c.038-.075.07-.152.099-.232l.066-.122c.034-.045.064-.092.091-.141l.067-.154a.39.39 0 00.032-.142v-.094a.235.235 0 00-.02-.087v-.074a.231.231 0 01.051-.122.568.568 0 01.083-.095l.06-.027.11-.047.09-.047.056-.024a.7.7 0 01.055-.055l.087-.087.095-.102.067-.075.027-.04a.295.295 0 01.047-.074.238.238 0 01.06-.067.082.082 0 01.075-.027.218.218 0 01.114.122.97.97 0 01.087.22 1.7 1.7 0 01.067.232c.013.05.028.098.047.146a.785.785 0 00.024.094c0 .04.023.083.031.122.008.04.024.075.036.106a.46.46 0 010 .055.676.676 0 01.02.095c0 .047 0 .102.027.161.028.059.024.11.036.161a.738.738 0 010 .079s0 .059.031.13c.032.07.048.153.075.248l.083.283c.028.09.047.161.067.212.036.125.08.248.134.366a1.715 1.715 0 01.162.606.91.91 0 00.067.212s0 .032.028.063c.021.03.04.062.055.095l.047.09a.66.66 0 01.024.071v.127a.636.636 0 01.02.082.368.368 0 000 .047.143.143 0 000 .043l.031.083.036.082c0 .02 0 .032.023.032.024.118.051.244.091.393.032.128.089.248.166.354.05.065.119.113.197.138l.296.106c.093.03.183.072.268.122a.197.197 0 01.118.173.263.263 0 01-.063.181.392.392 0 01-.142.095.579.579 0 01-.193.04 1.825 1.825 0 01-.201 0h-1.235l-.58-.02h-.394a.095.095 0 01-.087-.06.296.296 0 010-.114v-.047a.075.075 0 010-.027.323.323 0 01.17-.17 1.11 1.11 0 01.22-.07l.237-.063a.37.37 0 00.19-.162v-.094a1.047 1.047 0 00-.036-.165 1.905 1.905 0 00-.047-.217 1.762 1.762 0 00-.04-.189.722.722 0 00-.027-.102.484.484 0 01-.04-.067l-.059-.118a.978.978 0 00-.063-.13.505.505 0 00-.047-.102.294.294 0 00-.21-.134 1.388 1.388 0 00-.256-.027h-.134c-.153 0-.306.011-.457.035a2.662 2.662 0 01-.446.036h-.19c-.031.031-.047.055-.047.074a.122.122 0 00-.031.056l-.036.094c0 .028 0 .059-.031.09a.186.186 0 000 .048.232.232 0 01-.048.082.343.343 0 01-.059.079.948.948 0 00-.095.35v.366a.194.194 0 00.067.161.45.45 0 00.17.071c.07.02.141.036.213.047.073.011.146.027.217.047a.412.412 0 01.17.091.223.223 0 01.067.173.255.255 0 01-.21.275h-1.451l-.193-.02h-.11l.027-.105zM14.877 68.28a.197.197 0 01.095-.177.367.367 0 01.209-.066h.331a.311.311 0 00.087-.02s.028 0 .055-.024h.107l.173.02a.197.197 0 00.095 0l.063-.067a.412.412 0 00.04-.067.206.206 0 01.055-.075v-.31a2.85 2.85 0 00-.024-.37v-.394a1.116 1.116 0 010-.228 1.37 1.37 0 000-.2v-.134a1.447 1.447 0 000-.17v-.287c0-.114-.02-.26-.031-.432 0-.063 0-.114.027-.162.028-.047 0-.102 0-.165v-.177a.215.215 0 000-.04.425.425 0 010-.074.17.17 0 000-.067.236.236 0 010-.04v-1.529a.302.302 0 00-.083-.15 1.127 1.127 0 00-.126-.118.217.217 0 00-.102-.047h-.04a.11.11 0 01-.055 0h-.06a.238.238 0 00-.074-.032.219.219 0 00-.075-.027l-.107-.02a1.25 1.25 0 00-.173-.035l-.185-.028-.1-.02a.244.244 0 01-.11-.055.185.185 0 01-.039-.118.636.636 0 010-.133c0-.055.04-.09.075-.103a.395.395 0 01.162-.047c.082-.014.165-.023.248-.027h1.688a1.69 1.69 0 01.186-.024h1.317l.146.047c.06.011.12.027.178.047.052.015.1.04.142.075a.13.13 0 01.059.118.211.211 0 01-.095.17.897.897 0 01-.296.054c-.084.028-.17.05-.256.067-.065.016-.13.028-.197.036h-.466a.29.29 0 00-.075.047.276.276 0 01-.087.047l-.153.079a.103.103 0 00-.055.086v.28a.197.197 0 00.059.125v.303c0 .27-.017.54-.052.807-.035.26-.054.524-.055.787a1.315 1.315 0 000 .161v2.187a.263.263 0 00.047.213.545.545 0 00.182.122c.08.032.164.057.248.075l.257.059a.79.79 0 01.205.074.153.153 0 01.079.134.176.176 0 01-.103.15c-.05.029-.1.055-.154.078a.118.118 0 01-.075 0h-.919a.447.447 0 00-.205.055.395.395 0 01-.189.052h-.099l-.17-.024-.153-.024c-.051 0-.079 0-.087-.023h-.177a.942.942 0 00-.269.035.842.842 0 01-.272.04h-.162a1.046 1.046 0 01-.193-.036.608.608 0 01-.17-.079.216.216 0 01-.047-.185zm5.294.174h-.083a.265.265 0 01-.067.02h-.197a.467.467 0 01-.15-.036.248.248 0 01-.103-.079.271.271 0 01-.04-.15v-.098c0-.047.06-.078.162-.094a1.98 1.98 0 01.36-.043l.37-.02a.396.396 0 00.21-.051v-.11a.098.098 0 000-.032v-.205c0-.043 0-.082.019-.117.02-.036 0-.063 0-.075v-1.936l.035-.086V63.28a.394.394 0 000-.083v-.106a.518.518 0 00-.02-.102.233.233 0 010-.059.228.228 0 00-.133-.142.746.746 0 00-.23-.066 1.577 1.577 0 00-.28 0l-.26-.028a.601.601 0 01-.2-.067.185.185 0 01-.076-.161.157.157 0 01.04-.11.542.542 0 01.094-.095.453.453 0 01.115-.059.282.282 0 01.114-.027c.077 0 .154.01.229.027.069.015.14.015.21 0h2.534c.05.004.1.015.146.032a.22.22 0 01.158.224.29.29 0 010 .059.197.197 0 000 .047l-.17.102a.79.79 0 01-.189.075h-.308l-.189.02h-.11a.153.153 0 00-.095.047.256.256 0 00-.047.087 4.51 4.51 0 00-.08.598v1.703c0 .06 0 .102-.019.154-.02.05 0 .078 0 .094v1.412a.463.463 0 010 .087v.444a.716.716 0 000 .075.325.325 0 01.02.067.165.165 0 01-.02.047.082.082 0 000 .047.118.118 0 000 .04.076.076 0 000 .031v.028c0 .086.025.17.071.244a.248.248 0 00.197.094h.04c.129-.023.26-.043.394-.059.13-.022.262-.034.395-.035h1.144c.03.003.06.003.09 0h.288l.055-.044.087-.086.095-.102.067-.071a.11.11 0 010-.036l.027-.059.028-.063.02-.031v-.02l.055-.043.047-.032h.036l.031-.031a.334.334 0 00.056-.075.3.3 0 00.04-.086.966.966 0 00.066-.083l.095-.118.095-.122.059-.083.035-.039a.194.194 0 01.067 0 .2.2 0 01.17.09.58.58 0 01.087.193c.017.078.026.157.027.236v.362a.542.542 0 010 .083v-.04a.425.425 0 010 .076.197.197 0 000 .066c-.005.09-.005.181 0 .272a.529.529 0 01-.031.185.284.284 0 01-.11.137.645.645 0 01-.25.09 1.508 1.508 0 01-.22 0h-1.921a.428.428 0 01-.142 0h-.351a2.183 2.183 0 01-.229 0H21.55l-.15-.038h-.532l-.079.02a.214.214 0 01-.114.027h-.178l-.134-.024-.126-.023h-.067zm7.076 0h-.079l-.07.02h-.202a.419.419 0 01-.146-.036.224.224 0 01-.102-.079.24.24 0 01-.04-.15v-.098c0-.047.055-.078.162-.094.116-.026.235-.04.355-.043l.37-.02a.368.368 0 00.21-.051v-.11a.128.128 0 000-.032.67.67 0 010-.082.989.989 0 00.023-.123v-.117a.665.665 0 000-.075v-1.936l.032-.086v-.449c0-.118 0-.244.023-.37.024-.126 0-.228 0-.31v-.933a.381.381 0 000-.083v-.106a.514.514 0 000-.102v-.059a.216.216 0 00-.134-.142.711.711 0 00-.228-.066 1.554 1.554 0 00-.277 0l-.264-.028a.672.672 0 01-.201-.067.185.185 0 01-.075-.161c0-.04.014-.08.04-.11a.451.451 0 01.21-.153.312.312 0 01.113-.028c.078 0 .156.01.233.027.069.015.14.015.209 0h2.619a.596.596 0 01.15.032.23.23 0 01.106.074.22.22 0 01.047.15c.003.02.003.04 0 .059a.125.125 0 000 .047l-.17.102a.859.859 0 01-.184.075h-.313l-.188.02h-.107a.154.154 0 00-.095.047.169.169 0 00-.047.087 5.307 5.307 0 00-.083.598v1.546c0 .047 0 .098-.023.157a1.03 1.03 0 01-.02.154v2.037a.716.716 0 000 .075c.011.021.02.044.024.067a.121.121 0 01-.024.047.082.082 0 000 .047.118.118 0 000 .04.072.072 0 000 .031v.028c0 .087.026.172.075.244a.24.24 0 00.201.106h-.087a6.79 6.79 0 01.395-.06c.13-.021.262-.033.394-.034h1.183a.434.434 0 00.087 0h.292l.051-.044.087-.086a.728.728 0 00.095-.103l.067-.07v-.036a.2.2 0 01.027-.059.302.302 0 01.028-.063v-.051l.051-.043.048-.032h.035l.036-.031a.394.394 0 00.051-.075.298.298 0 00.04-.087l.07-.082.091-.118c.034-.04.065-.08.095-.122a.721.721 0 01.063-.083l.032-.039a.215.215 0 01.067 0 .193.193 0 01.17.09.483.483 0 01.086.193.99.99 0 01.028.236v.362a.495.495 0 010 .083v-.051a.223.223 0 01-.02.075.392.392 0 000 .066v.272a.445.445 0 01-.036.185.3.3 0 01-.106.137.7.7 0 01-.253.09 1.508 1.508 0 01-.22 0h-1.902a.428.428 0 01-.142 0h-.351a2.239 2.239 0 01-.229 0h-1.076l-.123-.038h-.552l-.083.02a.205.205 0 01-.114.027h-.174l-.134-.024-.126-.023h-.071zm7.132-5.327a.73.73 0 00-.056-.2.299.299 0 00-.087-.127.501.501 0 00-.134-.094l-.2-.103a.56.56 0 00-.159-.047.36.36 0 01-.09-.031.335.335 0 01-.063-.13.8.8 0 01-.02-.126v-.055a.088.088 0 01.035-.067l.071-.02a.48.48 0 00.095-.027h.15c.054-.004.108-.004.162 0a1.55 1.55 0 01.236 0c.08 0 .186.023.316.047h.939c.07 0 .15 0 .232-.027h.083a.227.227 0 01.075-.02h.032a.71.71 0 01.28.051.216.216 0 01.138.224.2.2 0 01-.083.173.996.996 0 01-.193.11c-.075.032-.146.063-.225.091a.394.394 0 00-.17.118.534.534 0 00-.106.181c-.028.072-.05.145-.067.22a2.243 2.243 0 00-.028.228v.201a.55.55 0 00.024.177c.025.05.037.106.035.161v.06a.054.054 0 01-.02.047v.338a.738.738 0 000 .079v.594a.615.615 0 01-.027.114 1.27 1.27 0 00-.028.106v.142a.3.3 0 000 .067.987.987 0 010 .114v.181a.918.918 0 010 .122v.456a.973.973 0 00.028.142c0 .055.028.11.04.169.011.059.035.114.055.165a1.353 1.353 0 00.146.299l.161.2c.056.06.116.116.178.17a.59.59 0 00.173.094.182.182 0 01.063.024.177.177 0 00.08.023h.047a.354.354 0 01.134.036c.04.01.078.027.114.047l.114.04a.59.59 0 00.139.02h.094l.044-.028.082-.04.083-.031h.154l.142-.04h.114l.095-.02a.766.766 0 00.324-.224c.086-.095.165-.196.236-.303v-.058a.894.894 0 00.032-.095c0-.035.023-.07.035-.102a.363.363 0 000-.06 2.19 2.19 0 00.123-.436 4.85 4.85 0 00.055-.464v-.476c0-.154 0-.31.028-.46a.216.216 0 010-.04.606.606 0 000-.078v-.083a.175.175 0 000-.055v-.862c0-.094-.02-.193-.036-.303-.016-.11 0-.208-.024-.303-.023-.094 0-.165 0-.208l-.055-.126a.465.465 0 00-.067-.13.574.574 0 000-.067c0-.023 0-.039-.028-.039a.13.13 0 00-.086-.047h-.107a.167.167 0 01-.063 0 2.907 2.907 0 01-.308-.079.575.575 0 01-.252-.197.338.338 0 000-.047v-.059a.056.056 0 010-.027v-.036a.462.462 0 01.264-.161 1.73 1.73 0 01.324-.032h.477a.834.834 0 00.158 0 .82.82 0 01.181-.02h.844c.088-.005.177-.005.265 0a.567.567 0 01.213.083.118.118 0 010 .075v.067a.306.306 0 01-.067.208.462.462 0 01-.166.107 1.285 1.285 0 01-.205.055c-.07.01-.14.03-.205.059a.394.394 0 00-.174.15.393.393 0 00-.067.22.694.694 0 000 .188.682.682 0 01.028.19v.113a.47.47 0 01-.028.087.388.388 0 000 .075v1.857a1.09 1.09 0 00-.047.133 1.29 1.29 0 00-.02.13v.122a.493.493 0 01-.02.126v.075l-.035.106c0 .04 0 .079-.028.114a.316.316 0 000 .063v.067a.734.734 0 000 .098.392.392 0 010 .095v.043a.31.31 0 01-.047.094.68.68 0 00-.052.08.25.25 0 00-.047.086 2.51 2.51 0 01-.083.16c-.031.06-.051.115-.079.162l-.055.095a1.441 1.441 0 01-.315.393c-.127.122-.26.248-.395.37l-.079.063-.114.075-.103.07-.055.036h-.193l-.229.027-.19.032c-.064.016-.13.028-.197.035a1.983 1.983 0 01-.228 0h-.395a1.041 1.041 0 00-.157-.047l-.162-.028a.958.958 0 01-.146-.023.447.447 0 01-.142-.055.397.397 0 01-.087-.047l-.158-.107a1.494 1.494 0 00-.161-.114 1.295 1.295 0 01-.119-.102l-.047-.035a1.181 1.181 0 00-.114-.146l-.123-.13-.122-.126a.995.995 0 01-.095-.169 2.82 2.82 0 01-.2-.692 5.26 5.26 0 01-.056-.74v-2.636c-.124-.084-.184-.153-.181-.208zm6.918 1.73v-.274a.23.23 0 010-.063c.02-.081.05-.16.087-.236.04-.073.076-.15.106-.228 0 0 .028-.031.044-.067a.78.78 0 01.027-.078c.037-.137.088-.269.154-.394a3.21 3.21 0 01.24-.362 3.92 3.92 0 01.285-.33c.09-.096.188-.185.292-.268l.031-.023.067-.024.067-.028.04-.02.102-.066.142-.094.142-.083a.257.257 0 01.123-.04h.788a.147.147 0 00.06.068h.078a.487.487 0 00.186-.036.42.42 0 01.19-.04.512.512 0 01.153.032l.193.083.205.075c.06.019.12.03.182.031a.493.493 0 00.19-.047.517.517 0 01.232-.051h.055s.028 0 .04.047a.082.082 0 010 .04v1.907a.413.413 0 01-.032.181.15.15 0 01-.065.062.152.152 0 01-.089.013c-.027 0-.059-.032-.087-.094a1.322 1.322 0 01-.094-.213L45.34 64a1.668 1.668 0 00-.047-.177l-.028-.067c0-.035-.02-.075-.032-.114l-.035-.114a.356.356 0 000-.067.422.422 0 01-.06-.067l-.125-.153a3.493 3.493 0 00-.15-.185c-.051-.06-.091-.114-.13-.153a.165.165 0 00-.052-.06c-.023-.027-.043-.039-.055-.039l-.102-.047-.146-.083-.154-.074-.095-.052h-.434l-.177.02h-.099a.69.69 0 00-.13 0c-.047 0-.075.02-.075.028s-.024.027-.043.082c-.017.04-.035.08-.056.118l-.035.047-.032.083c0 .028 0 .055-.027.079a.46.46 0 000 .055.517.517 0 01-.115.15.358.358 0 00-.094.145.602.602 0 000 .063.292.292 0 010 .075.4.4 0 01-.043.106.078.078 0 01-.024.02 2.716 2.716 0 00-.11.558c0 .173-.02.358-.02.55v.752a.798.798 0 000 .142c.031.042.054.09.066.142.007.05.007.1 0 .15v.153a.568.568 0 00.03.177.032.032 0 00.014.011v.02a.346.346 0 000 .075l.055.114c.02.037.037.075.051.114l.036.059a.067.067 0 000 .028.031.031 0 010 .027c.047.051.083.09.11.126l.075.11.06.098.074.122c.054.077.122.14.202.19.1.063.206.12.315.168.118.044.233.083.343.115.092.023.186.037.28.039h.127l.082-.036s0-.039.06-.078l.078-.075a.245.245 0 01.11-.055l.127-.04.122-.039a.328.328 0 00.103-.075.292.292 0 00.024-.055 1.128 1.128 0 00.103-.2.459.459 0 01.039-.06l.067-.07.122-.118.122-.13.087-.087h.047c.055 0 .087 0 .095.056a.496.496 0 010 .118c0 .12-.008.239-.024.358a2.41 2.41 0 01-.083.342c-.134.15-.264.283-.394.393-.12.117-.252.22-.394.307-.139.084-.287.15-.442.197a2.14 2.14 0 01-.56.067 4.47 4.47 0 01-.62-.04 2.936 2.936 0 01-.568-.15 2.183 2.183 0 01-.5-.282 2.502 2.502 0 01-.438-.449 5.016 5.016 0 01-.324-.503 4.38 4.38 0 01-.24-.567c0-.035-.02-.07-.036-.106-.016-.035 0-.087-.028-.134-.027-.047 0-.118-.023-.189-.024-.07 0-.161 0-.271V64.9a.178.178 0 00.027-.051.155.155 0 01.103.008zm5.708 3.597a.125.125 0 00-.04-.075.228.228 0 01-.04-.087v-.035a.432.432 0 01.06-.079l.102-.106.107-.11.075-.067a.262.262 0 01.087-.028.683.683 0 01.114 0h.477a.15.15 0 00.055 0l.075-.02.068-.027h.031a.182.182 0 00.11-.15 1.221 1.221 0 000-.2v-1.046a.311.311 0 010-.075v-.114a.81.81 0 01.028-.122v-3.005a.428.428 0 00-.047-.217.291.291 0 00-.123-.118.454.454 0 00-.173-.063 1.67 1.67 0 00-.205 0h-.276a.934.934 0 01-.316-.047c-.087-.032-.126-.11-.126-.229v-.11a.954.954 0 01.032-.126c.211.008.424.001.635-.02a5.7 5.7 0 01.627-.035h3.901a.352.352 0 01.288.106.629.629 0 01.13.256v.937c0 .07 0 .141-.032.22l-.035.232c0 .07 0 .122-.02.153l-.047.06c-.024.023-.04.035-.048.035h-.027a.642.642 0 01-.178-.181 2.205 2.205 0 01-.181-.456.833.833 0 00-.103-.217.418.418 0 00-.086-.086l-.075-.075-.06-.071c-.027-.043-.059-.083-.094-.13-.036-.047-.063-.094-.095-.134l-.055-.074c-.016-.04-.036-.06-.06-.06h-.129a.257.257 0 00-.08-.02h-.104l-.123-.027-.114-.027-.068-.028h-.035a.263.263 0 00-.075.02.194.194 0 01-.067 0 .56.56 0 00-.114 0h-.198a1.775 1.775 0 00-.2 0h-.127a.395.395 0 00-.205.047.443.443 0 00-.134.122c-.034.054-.063.11-.087.17l-.067.172c0 .051 0 .13-.028.244-.027.114 0 .228-.031.354-.032.126 0 .244-.028.358a2.382 2.382 0 000 .236v.657c.033.043.069.084.107.122.04.037.089.064.142.08h.788c.119 0 .257 0 .419-.044a.338.338 0 000-.047.393.393 0 01.078-.134l.032-.06.02-.035a.836.836 0 00.067-.133l.083-.181c.027-.063.05-.118.067-.162l.04-.074a.308.308 0 00.027-.115.256.256 0 01.027-.106.284.284 0 01.142-.082.866.866 0 01.174-.02c.063 0 .103.024.114.075.02.049.03.1.028.153v.252a.597.597 0 010 .118.444.444 0 01-.047.11v1.558a.228.228 0 000 .063v.106a.942.942 0 010 .107.49.49 0 010 .074 1.13 1.13 0 01-.135.083.338.338 0 01-.134.023.146.146 0 01-.102-.039.513.513 0 01-.087-.114.704.704 0 01-.102-.267s0-.044-.02-.091 0-.098 0-.153v-.268a.127.127 0 00-.071-.047l-.095-.055-.13-.032a1.349 1.349 0 00-.19-.035 1.589 1.589 0 00-.18-.028h-.918l-.095.107v.228c0 .267 0 .519-.027.767-.028.248-.028.496-.028.76a.9.9 0 00.036.294.255.255 0 00.106.138.71.71 0 00.19.059c.095.017.19.04.284.067l.047.02.047.039h1.085a.397.397 0 01.102-.02l.091-.023h.513a.111.111 0 00.047 0l.067-.056.071-.059c0-.02.028-.027.032-.027a.235.235 0 01.075 0h.051l.044-.02a.189.189 0 00.039-.059.786.786 0 00.106-.224c.025-.078.055-.155.091-.228a.391.391 0 00.067-.079c.024-.047.044-.075.047-.09a.104.104 0 00.04-.02l.067-.051.06-.063a.143.143 0 00.035-.047.164.164 0 01.027-.051l.052-.083.047-.079.035-.055.02-.027h.028c.067 0 .106.023.122.078.012.05.019.102.02.154v.141a1.607 1.607 0 000 .162v.719a.66.66 0 01-.032.2.994.994 0 01-.094.209.52.52 0 01-.15.169.277.277 0 01-.174.075h-.706a1.188 1.188 0 01-.185-.02h-.24a.899.899 0 01-.155.024h-3.297a.357.357 0 01-.095 0h-.351a.343.343 0 01-.107.047.396.396 0 01-.114.027h-.114l-.162-.035-.17-.031a.828.828 0 01-.086-.122zm10.133-.19v.028a.65.65 0 01-.186.17.455.455 0 01-.24.05h-.028a.04.04 0 00-.027 0h-.099a.355.355 0 01-.103-.02l-.753.02h-.986a.912.912 0 01-.264-.035.84.84 0 01-.166-.059.155.155 0 01-.083-.142.831.831 0 010-.102.17.17 0 01.075-.09c.06-.025.12-.046.181-.063l.182-.055h.067l.095-.024.094-.027.06-.02a1.04 1.04 0 00.114-.09.347.347 0 00.095-.134.595.595 0 00.075-.209c.014-.078.02-.157.02-.236v-.421a1.078 1.078 0 010-.122.659.659 0 010-.086c0-.048.027-.095.043-.142l.047-.15a.749.749 0 01.024-.078v-.134a.096.096 0 000-.043v-.161l.02-.052a.78.78 0 000-.086v-.185c0-.312.019-.623.055-.933.04-.32.059-.641.059-.963v-.229a.258.258 0 000-.05v-.068l-.028-.082-.552-.638a.397.397 0 00-.134-.066l-.174-.06a.844.844 0 01-.157-.082.169.169 0 01-.06-.142.126.126 0 01.067-.126.343.343 0 01.158-.035h1.164a.49.49 0 01.284.095c.092.06.176.133.248.216.078.084.15.174.217.267.067.095.126.173.182.236l.067.087.114.134a1.5 1.5 0 01.114.13l.068.066c.02.023.039.048.055.075.034.043.066.087.094.134.035.043.066.087.095.134a.392.392 0 00.06.067l.027.027c.02.014.039.03.055.047.018.014.034.03.047.047l.032.028c.03.043.053.091.067.142.02.043.035.082.055.118a.487.487 0 00.067.09c.04.03.083.053.13.067.28.264.553.543.79.834.253.282.528.545.82.787a.364.364 0 00.122-.122.905.905 0 00.106-.323c0-.059.028-.114.04-.173.04-.169.071-.334.095-.492.033-.172.048-.347.047-.523v-.625c0-.122-.024-.244-.04-.358a.624.624 0 00-.082-.248.465.465 0 01-.052-.06l-.055-.05c0-.028-.035-.051-.051-.075a.107.107 0 00-.043-.04.51.51 0 00-.233-.106l-.37-.114a4.267 4.267 0 01-.348-.13c-.106-.047-.146-.098-.146-.16v-.079a.244.244 0 01.083-.134.304.304 0 01.173-.043h1.211c.07-.005.14-.005.21 0 .064.004.128.004.193 0 .132 0 .264-.01.394-.028.13-.02.263-.03.395-.032a.372.372 0 01.224.067.22.22 0 01.087.201.132.132 0 01-.055.11.438.438 0 01-.114.071.754.754 0 01-.142.047.396.396 0 01-.107 0l-.114.032-.174.035-.177.028h-.107a.445.445 0 00-.15.228c0 .079-.027.165-.047.271a.266.266 0 010 .047s0 .048-.02.071a.34.34 0 01-.023.067v.272c0 .094 0 .196.02.322.019.126 0 .252 0 .394v.971c0 .183-.017.364-.052.543-.037.18-.055.363-.055.547 0 .303.02.605.059.905.047.3.071.604.07.909v.067a.929.929 0 010 .094.596.596 0 010 .087v.063a.27.27 0 01-.117.055h-.257a.488.488 0 01-.276-.177 1.262 1.262 0 01-.114-.17 1.936 1.936 0 01-.091-.18 1.545 1.545 0 00-.422-.527 3.49 3.49 0 01-.395-.394.125.125 0 01-.02-.04.186.186 0 010-.047l-.078-.078-.114-.13-.115-.134a.412.412 0 01-.063-.079l-.02-.027a.352.352 0 00-.031-.067l-.028-.067a.31.31 0 010-.047 3.542 3.542 0 00-.229-.264 1.854 1.854 0 00-.248-.248h-.04l-.063-.043-.067-.047a.07.07 0 01-.024-.04.956.956 0 01-.209-.188l-.177-.22a4.303 4.303 0 00-.17-.229 1.418 1.418 0 00-.173-.224l-.103-.106-.146-.154-.161-.157-.103-.098s0-.02-.028-.02h-.02a.265.265 0 00-.106 0 .493.493 0 00-.067.094c0 .028 0 .052-.028.075-.027.024 0 .051-.02.095-.019.043 0 .098-.035.192-.01.078-.027.154-.051.228v.244a3.05 3.05 0 01-.02.394v.46c.014.026.02.054.02.083v.846c0 .082.02.165.028.255s0 .17.02.248c.003.054.003.108 0 .161a.706.706 0 00.22.19c.081.047.167.085.257.113h.209a.968.968 0 01.142.028.67.67 0 01.17.059.466.466 0 01.145.094.197.197 0 01.103.099zm5.451-1.82c.06 0 .114 0 .17.078.063.08.114.17.153.263.045.095.083.192.115.292.015.058.04.114.075.165a.604.604 0 00.04.063l.074.094a.98.98 0 01.087.095l.067.067s0 .023.036.05c.016.02.036.036.059.048a.971.971 0 00.047.122.516.516 0 00.217.236c.079.036.16.065.245.086.082.024.17.04.252.056h.264c.15-.04.291-.105.418-.193.127-.088.24-.195.332-.319.093-.118.166-.251.217-.393.047-.15.071-.307.07-.465v-.236a.366.366 0 00-.106-.236l-.083-.078a1.3 1.3 0 00-.102-.11l-.099-.099c-.028-.031-.047-.051-.063-.055a.996.996 0 00-.394-.18 1.226 1.226 0 00-.21-.04l-.209-.044a5.989 5.989 0 01-.485-.133 3.642 3.642 0 01-.524-.228 2.459 2.459 0 01-.466-.311.952.952 0 01-.292-.413.5.5 0 01-.04-.118 1.876 1.876 0 01-.058-.57.355.355 0 010-.127v-.11a.492.492 0 000-.07.117.117 0 010-.044v-.059c0-.032 0-.07.027-.106a.566.566 0 00.028-.102.467.467 0 000-.067l.02-.04c0-.023.035-.047.055-.067l.055-.063.032-.039a.196.196 0 00.047-.067l.067-.094.063-.095.047-.059a.794.794 0 01.067-.11.394.394 0 01.071-.067l.091-.055.119-.07a.252.252 0 01.047-.056c.028-.027.047-.039.055-.039a.185.185 0 01.047-.035.161.161 0 01.048-.028l.122-.031.154-.056c.051 0 .09-.03.13-.039l.06-.02.121-.027h.166c.163.002.325.016.485.043.178 0 .332.043.466.067a.1.1 0 01.043.02l.08.031.086.036h.055a.217.217 0 00.126-.032.684.684 0 00.103-.075l.102-.074a.261.261 0 01.127-.032.109.109 0 01.09.047.297.297 0 01.044.115c.016.04.024.082.023.126a.874.874 0 010 .094.616.616 0 01-.05.256 1.11 1.11 0 00-.064.243 1.738 1.738 0 000 .229c0 .092-.008.184-.028.275a.64.64 0 01-.086.228.219.219 0 01-.201.095.167.167 0 01-.15-.083 1.229 1.229 0 01-.083-.193c-.02-.078-.044-.153-.067-.228a.413.413 0 00-.087-.177 2.91 2.91 0 00-.19-.208 1.463 1.463 0 00-.22-.193 1.038 1.038 0 00-.265-.15.706.706 0 00-.284-.059h-.031a2.238 2.238 0 00-.395.134 1.096 1.096 0 00-.303.209.89.89 0 00-.186.306c-.05.142-.075.291-.07.441v.07a.25.25 0 00.023.095c0 .036.024.079.04.122a1.225 1.225 0 00.098.2.173.173 0 000 .044l.028.024c.054.05.112.096.173.137.067.03.137.053.21.067h.275a.193.193 0 01.075 0l.048.024.094.035.095.028h.055l.095.027.166.036.161.031h.103l.083.024c.04 0 .063 0 .07.023l.028.024.055.035.067.056.06.02.102.03a.64.64 0 01.095.036l.06.02h.027a.35.35 0 01.055.047c.018.014.034.03.047.047l.032.02.035.035.06.032.063.027h.039c.174.126.31.296.394.492a1.541 1.541 0 01.127.653v.035a.22.22 0 000 .052v.775c-.02.1-.055.197-.103.287a2.185 2.185 0 01-.19.31 3.169 3.169 0 01-.228.276 1.232 1.232 0 01-.217.2.639.639 0 01-.154.087l-.236.095-.249.082-.19.051h-1.509l-.087-.031a.535.535 0 00-.154-.047l-.157-.04-.154-.063a.629.629 0 01-.142-.117.701.701 0 01-.032-.071c0-.032-.027-.063-.043-.09a.361.361 0 00-.04-.095.237.237 0 010-.063l-.035-1.208c0-.02 0-.04.04-.063a.133.133 0 01.027-.067z" fill="#000"/><path d="M14.988 78.54C8.41 73.78 4.043 67.906 2.122 61.7c1.98 6.2 6.41 11.999 13.001 16.68 11.754 8.504 28.872 12.366 45.452 11.304 15.051-.963 29.747-5.991 39.631-15.392-4.12 4.166-9.173 7.42-14.523 9.872-21.87 9.86-50.969 8.376-70.696-5.625z" fill="#fff" stroke="#057C02"/></g><defs><clipPath id="clip0_601_5078"><path fill="#fff" transform="translate(.5)" d="M0 0h109v91H0z"/></clipPath></defs></svg>