<svg width="48" height="48" fill="none" xmlns="http://www.w3.org/2000/svg"><path d="M14.013 25.513c.601 1.912 3.057 5.775 8.065 5.938a1.5 1.5 0 00.792-.351c.198-.181.303-.408.294-.639v-5.793c-.03-1.096-.45-3.448-1.927-4.075-.949-.39-2.979-1.42-3.492-2.505-1.16.337-2.123.954-2.73 1.745-.777.933-2.064 3.374-1.002 5.68zm19.544-.033c-.601 1.913-3.057 5.78-8.065 5.943a1.512 1.512 0 01-.793-.352c-.199-.18-.304-.407-.298-.638v-5.796c.03-1.097.45-3.445 1.927-4.076.95-.387 2.979-1.42 3.492-2.501 1.16.337 2.123.953 2.73 1.745.782.933 2.069 3.363 1.007 5.676zm-2.49-19.176c0-.438-.179-.866-.514-1.23s-.812-.648-1.37-.815a4.137 4.137 0 00-1.763-.126c-.592.085-1.136.296-1.563.606-.427.31-.717.704-.835 1.133-.118.43-.057.874.174 1.279.23.404.622.75 1.124.993a3.92 3.92 0 001.695.373c.81 0 1.586-.233 2.159-.648.572-.415.893-.978.893-1.565zm-9.546 0c0-.438-.179-.866-.514-1.23-.336-.364-.812-.648-1.37-.815a4.137 4.137 0 00-1.763-.126c-.592.085-1.136.296-1.563.606-.427.31-.718.704-.835 1.133-.118.43-.058.874.173 1.279.231.404.623.75 1.124.993a3.92 3.92 0 001.696.373c.4 0 .798-.057 1.168-.168a3.29 3.29 0 00.99-.48c.284-.205.508-.45.662-.718a1.7 1.7 0 00.232-.847z" fill="#000"/><path d="M30.994 12.171c0 2.281-.166 7.538-7.268 8.092-7.43-.554-7.263-5.81-7.263-8.092 0-2.28 3.252-4.136 7.263-4.136 4.01 0 7.268 1.859 7.268 4.136z" fill="#000"/><path d="M31.185 13.65c8.975 7.138 14.673 16.478 16.487 26.052l.299 2.278c.22 2.178-.788 4.852-3.84 5.767-1.736.529-3.795.139-5.38-.354-3.291-1.026-5.835-2.788-8.04-4.74-2.46-2.082-4.49-4.412-6.026-6.917l-.46-.848-.367-.872-.279-.884v-.056l.025-.022h.034a.147.147 0 01.068 0c.02.01.035.023.044.04.944 2.28 2.75 4.32 4.71 6.21 3.483 3.13 7.469 6.74 13.23 7.45 2.627.266 4.212-1.674 4.403-3.345.22-1.007-.181-2.504-.284-3.547a38.07 38.07 0 00-1.908-6.996c-1.77-4.589-4.288-9.01-7.498-13.167a48.702 48.702 0 00-5.38-5.974v-.095a.143.143 0 01.03 0 .131.131 0 01.034 0 .17.17 0 01.039 0 .143.143 0 01.03 0l.029.02z" fill="#000"/><path d="M16.356 13.764a64.273 64.273 0 00-6.75 9.46c-3.15 5.368-5.605 11.047-6.549 16.811-.034.27-.293 1.927-.332 2.172-.172 1.206.322 2.883 1.648 3.42 1.956.638 5.38-.948 7.116-1.775a46.846 46.846 0 006.818-4.834c2.201-1.743 3.997-3.733 5.317-5.893.034-.074.215-.032.176.046a13.732 13.732 0 01-1.956 3.289c-1.66 2.065-3.628 3.99-5.87 5.743-2.2 1.774-4.705 3.423-7.825 4.338-3.884 1.292-6.681-.067-7.17-3.064-.23-1.043.16-2.547.264-3.597a38.102 38.102 0 011.956-7.02c1.809-4.601 4.364-9.03 7.61-13.193a48.682 48.682 0 015.434-5.974h.03a.164.164 0 01.034 0 .16.16 0 01.04 0h.028a.063.063 0 010 .05.055.055 0 010 .046l-.02-.025zm15.117-1.82c2.333-1.029 4.368-2.533 4.94-4.494.299-1.004-.068-2.1.69-3.033.333-.473.796-.89 1.36-1.228a6.238 6.238 0 011.922-.734c-1.195.486-2.136 1.242-2.68 2.153a3.759 3.759 0 00-.323 2.157c-.133 2.426-2.813 4.494-5.909 5.172v.007zm15.97 3.476c-2.807.774-6.314.373-7.997-1.578-.66-.922-1.956-1.153-3.301-1.117-1.41.089-2.807.255-4.182.496 1.956-.638 4.206-1.34 6.412-.837.754.207 1.382.6 1.776 1.11 1.506 1.802 4.592 2.157 7.292 1.927zm-13.965-.847a39.932 39.932 0 014.06 1.639c1.663.844 3.311 1.798 4.226 3.153.773 1.182 1.022 2.412 2.06 3.477a22.948 22.948 0 003.423 2.838c-1.512-.693-2.857-1.56-3.981-2.569-1.15-.993-1.541-2.362-2.28-3.48-.807-1.227-2.342-2.181-3.825-3.068-1.183-.67-2.494-1.345-3.697-1.997l.014.007zM15.96 11.944c-3.097-.677-5.777-2.745-5.909-5.172a3.743 3.743 0 00-.323-2.164c-.54-.914-1.483-1.674-2.68-2.16a6.237 6.237 0 011.921.734 4.425 4.425 0 011.36 1.228c.759.933.392 2.029.69 3.033.573 1.961 2.607 3.465 4.94 4.494v.007zM0 15.42c2.69.231 5.776-.124 7.293-1.926.393-.51 1.021-.903 1.775-1.11 2.206-.504 4.46.199 6.412.837a38.023 38.023 0 00-4.182-.496c-1.355-.036-2.64.195-3.301 1.117-1.683 1.951-5.19 2.352-7.997 1.579zm13.955-.847c-1.203.652-2.514 1.326-3.698 1.997-1.467.887-3.018 1.84-3.825 3.068-.655.969-1.007 2.154-1.873 3.08-1.192 1.184-2.686 2.192-4.402 2.968a23.162 23.162 0 003.424-2.837c1.037-1.064 1.286-2.296 2.06-3.477.914-1.355 2.562-2.309 4.225-3.153a39.936 39.936 0 014.06-1.64l.029-.006zm.959-8.433h.068c.003-.573.284-1.127.793-1.566.51-.438 1.214-.734 1.993-.834.778-.1 1.58.002 2.266.287.686.285 1.213.735 1.487 1.273.113.238.323.446.602.596.285.15.627.232.978.234h.19c.35-.004.688-.086.97-.234.281-.149.493-.357.606-.596.266-.544.79-1.001 1.478-1.292a4.475 4.475 0 012.278-.294c.783.1 1.492.397 2.002.839.51.442.789 1 .786 1.577a4.554 4.554 0 00-.57-2.334c-.402-.743-1.005-1.42-1.774-1.991C28.3 1.233 27.38.779 26.367.47A11.01 11.01 0 0023.161 0c-1.1 0-2.19.16-3.204.47-1.014.31-1.932.763-2.7 1.335-.77.57-1.373 1.248-1.775 1.99a4.554 4.554 0 00-.57 2.335v.01z" fill="#000"/></svg>