<svg width="231" height="193" fill="none" xmlns="http://www.w3.org/2000/svg"><g clip-path="url(#clip0_188_11531)"><path d="M154.964 23.905c-4.506 1.026-13.609 5.215-13.993 13.759a2.316 2.316 0 002.332 1.852h13.651c2.583-.05 8.125-.767 9.604-3.287.92-1.62 3.344-5.082 5.902-5.958a9.285 9.285 0 00-4.113-4.656c-2.198-1.326-7.949-3.52-13.383-1.71zm.075 33.342c-4.506-1.026-13.617-5.215-14.002-13.76a2.334 2.334 0 012.332-1.86h13.659c2.583.05 8.117.768 9.605 3.288.911 1.618 3.344 5.081 5.893 5.957a9.282 9.282 0 01-4.112 4.656c-2.199 1.335-7.925 3.53-13.375 1.719zM200.229 53a5.223 5.223 0 004.819-3.214 5.198 5.198 0 00-1.131-5.674 5.219 5.219 0 00-5.684-1.129 5.2 5.2 0 00-1.693 8.492A5.223 5.223 0 00200.229 53zm0-16.287a5.223 5.223 0 004.819-3.215 5.198 5.198 0 00-1.131-5.673 5.219 5.219 0 00-5.684-1.13 5.2 5.2 0 000 9.62 5.225 5.225 0 001.996.398z" fill="#000"/><path d="M186.403 52.875c-5.375 0-17.763-.284-19.067-12.4 1.304-12.674 13.692-12.39 19.067-12.39s9.747 5.549 9.747 12.39c0 6.843-4.38 12.4-9.747 12.4z" fill="#000"/><path d="M182.917 53.2c-16.819 15.31-38.829 25.031-61.39 28.127l-5.367.509c-5.133.375-11.435-1.344-13.592-6.55-1.246-2.962-.326-6.475.836-9.178 2.416-5.616 6.57-9.954 11.168-13.717a66.742 66.742 0 0116.3-10.28l1.998-.784 2.057-.626 2.081-.476h.134l.05.042v.058a.18.18 0 010 .117.197.197 0 01-.092.075c-5.375 1.61-10.182 4.69-14.637 8.035-7.373 5.941-15.883 12.741-17.555 22.57-.627 4.481 3.946 7.184 7.883 7.51 2.374.375 5.902-.309 8.359-.484a117.742 117.742 0 0016.485-3.254 141.858 141.858 0 0031.03-12.791 110.733 110.733 0 0014.077-9.178h.225a.14.14 0 010 .05.142.142 0 010 .058.187.187 0 010 .067.14.14 0 010 .05l-.05.05z" fill="#057C02"/><path d="M182.649 27.902a160.818 160.818 0 00-22.294-11.515c-12.647-5.373-26.03-9.562-39.614-11.172a571.8 571.8 0 01-5.116-.567c-2.842-.292-6.796.55-8.058 2.811-1.505 3.338 2.231 9.179 4.179 12.14a86.21 86.21 0 0011.394 11.632 51.35 51.35 0 0013.885 9.07c.175.058.075.367-.109.3a36.554 36.554 0 01-7.749-3.338 76.673 76.673 0 01-13.534-10.012c-4.179-3.755-8.066-8.027-10.223-13.35-3.043-6.625.159-11.398 7.222-12.232 2.458-.392 6.002.275 8.477.45 5.587.715 11.116 1.83 16.543 3.338A142.742 142.742 0 01168.74 18.44a110.096 110.096 0 0114.077 9.27v.05a.285.285 0 010 .058.248.248 0 010 .067v.05a.201.201 0 01-.117 0 .178.178 0 01-.109 0l.058-.033z" fill="#057C02"/><path d="M199.126 63.27c-3.465-.148-6.628-1.974-8.868-4.597 1.997 1.898 4.387 3.348 7.166 3.935.926.2 1.9.234 2.819.267.305.01.604.021.894.038 1.196.067 2.292.23 3.285.814l.013.007.014.007c.426.218.833.47 1.216.753a11.256 11.256 0 00-1.242-.63l-.019-.01-.02-.006a12.427 12.427 0 00-5.258-.578zm-13.528-1.628v-.012l-.001-.013a48.497 48.497 0 00-.189-1.785c.462 1.815.589 3.656.021 5.47a5.349 5.349 0 01-2.388 2.755l-.007.005-.008.004c-2.648 1.603-4.023 4.175-4.595 6.969.287-2.932 1.666-5.666 4.283-7.308 2.418-1.264 2.97-3.728 2.884-6.085zm-9.15 2.062c.105-.133.209-.268.314-.403-.097.153-.196.306-.294.458-1.984 2.828-4.169 5.54-7.234 7.038-1.049.496-2.107.86-3.184 1.23-.32.111-.642.222-.966.337-1.397.496-2.802 1.063-4.113 1.988l-.003.001c-.502.36-.997.728-1.484 1.106a27.35 27.35 0 011.454-1.261h0l.006-.006c1.108-.928 2.44-1.561 3.855-2.125.453-.181.921-.356 1.391-.533.969-.364 1.951-.732 2.849-1.162 3.007-1.431 5.321-4.141 7.401-6.657h0l.008-.01zm27.973-46.649c.446-.19.877-.41 1.291-.654a8.654 8.654 0 01-1.247.776l-.013.006-.013.008c-.993.585-2.09.747-3.286.814-.289.017-.588.027-.893.038-.92.033-1.893.067-2.819.267-2.862.604-5.31 2.123-7.342 4.105 2.248-2.714 5.47-4.616 9.009-4.767 1.78.19 3.58-.006 5.276-.578l.019-.007.018-.008zm-21.707-3.847c-2.624-1.646-4.003-4.39-4.286-7.331.571 2.796 1.946 5.376 4.597 6.99l.008.006.008.004a5.348 5.348 0 012.388 2.756c.568 1.815.441 3.659-.022 5.477a49.01 49.01 0 00.19-1.792l.001-.013v-.013c.086-2.373-.466-4.82-2.884-6.084zm-6.264 3.902c.129.198.257.397.383.598a75.593 75.593 0 00-.402-.52l-.005-.005-.005-.006c-2.076-2.487-4.391-5.223-7.397-6.655-.916-.449-1.916-.818-2.899-1.18l-.808-.3c-1.247-.472-2.441-.974-3.479-1.675a26.52 26.52 0 01-2.447-2.018c.511.399 1.031.788 1.559 1.165h0l.003.002c1.311.925 2.716 1.492 4.113 1.988.324.115.646.226.967.336 1.076.37 2.135.735 3.183 1.231 3.065 1.499 5.25 4.21 7.234 7.038z" fill="#057C02" stroke="#057C02"/><path d="M200.613 25.44v.117a5.777 5.777 0 013.692 1.353 5.751 5.751 0 011.29 7.266 5.767 5.767 0 01-3.001 2.537 2.927 2.927 0 00-1.404 1.026 2.887 2.887 0 00-.552 1.669v.325a2.891 2.891 0 001.956 2.687 5.747 5.747 0 013.044 2.52 5.752 5.752 0 01-5 8.643 14.108 14.108 0 0013.339-8.606 14.042 14.042 0 000-10.93 14.106 14.106 0 00-13.339-8.606h-.025zM21.24 112.641a.631.631 0 01.318-.601c.233-.13.484-.226.744-.283l.836-.242c.25-.08.46-.253.585-.484.07-.131.118-.272.143-.417.035-.174.058-.349.066-.526a3.748 3.748 0 000-.517v-.443c0-.834 0-1.668-.066-2.503-.067-.834-.059-1.668-.059-2.595v-1.827a1.594 1.594 0 010-.225.367.367 0 01.05-.142c.042-.776.067-1.535.075-2.303.009-.768 0-1.519 0-2.294v-2.262a3.107 3.107 0 01-.1-.375 2.891 2.891 0 010-.384v-.2a.838.838 0 010-.2.66.66 0 00-.368-.26 2.102 2.102 0 00-.543-.1h-.602a3.708 3.708 0 01-.552 0 .946.946 0 01-.418-.174.477.477 0 01-.159-.384.658.658 0 01.544-.701H24.5l.175.058h.594c.637 0 1.274-.042 1.906-.125.637-.086 1.28-.13 1.922-.133h.36c.141-.002.282.018.418.058a.955.955 0 01.342.175.391.391 0 01.16.326.768.768 0 01-.26.567c-.14.148-.32.252-.518.3-.215.05-.433.084-.652.1l-.635.059c-.201 0-.402.05-.61.083a4.397 4.397 0 00-.628.176v.467c0 .217-.05.45-.075.7-.025.251 0 .468-.067.685-.067.217-.05.359-.058.442v4.222a.709.709 0 01.108.392v.417c.005.127.034.251.084.368a.587.587 0 00.343.25h4.848l.318-.042h.284a.213.213 0 01.1 0l.1.059h4.13a.177.177 0 00.109-.059.522.522 0 00.1-.133.518.518 0 00.092-.142l.067-.109a1.92 1.92 0 01.042-.292c.029-.081.048-.165.058-.25v-4.155a2.272 2.272 0 000-.309 9.776 9.776 0 00-.083-1.31c-.059-.442-.1-.884-.142-1.327a.912.912 0 00-.368-.275 1.855 1.855 0 00-.401-.125h-2.415s-.084-.042-.167-.134a1.106 1.106 0 01-.16-.183v-.2a.591.591 0 01.226-.551c.177-.105.38-.157.586-.15a20.9 20.9 0 012.307.133 21.43 21.43 0 002.34.125h1.33c.277-.132.578-.208.886-.225h1.479c.143.067.275.154.393.259a.617.617 0 01.084.375v.267a.199.199 0 00-.084.059l-.159.1a.95.95 0 00-.175.1l-.126.058h-1.07l-.376.067-.351.1a1.6 1.6 0 00-.276.117c-.058 0-.1.1-.125.217a2.238 2.238 0 00-.076.384c0 .142 0 .292-.058.442a1.34 1.34 0 01-.084.359v4.839c0 .276 0 .668.059 1.177v3.17a.874.874 0 000 .15v2.687c.006.109.006.217 0 .326.002.234-.018.469-.059.7-.012.22-.012.44 0 .66v2.161c.073.141.16.275.26.4a.63.63 0 00.384.242h.543c.107.03.216.049.326.059.15.016.297.041.443.075l.418.05.243.05a.513.513 0 01.209.1c.117.05.184.1.2.142a.313.313 0 01.142.1c.06.042.093.075.093.1a.06.06 0 000 .042l-.117.116-.118.101-.242.041h-.568l-.184.117-.385.042h-.669l-.359-.042h-.46a.242.242 0 01-.1 0l-.067-.042a1.748 1.748 0 00-.26-.05h-1.026l-.243.042a.335.335 0 00-.134 0h-1.73l-.443.075-.343.042h-1.137a.841.841 0 01-.201 0h-.126l-.175-.125a.503.503 0 01-.15-.167v-.217a.574.574 0 01.066-.317.567.567 0 01.218-.184.796.796 0 01.284-.1l.326-.067a.737.737 0 01.175 0h.528a.432.432 0 00.183-.041h.719a.134.134 0 00.1 0 .183.183 0 00.109 0c.051-.038.099-.079.142-.125l.134-.134.083-.108a1.426 1.426 0 000-.134 1.76 1.76 0 00.076-.25c0-.1.05-.192.066-.276a.831.831 0 000-.225v-.3a.53.53 0 000-.159c0-.075 0-.158-.041-.242a1.47 1.47 0 00-.059-.225 1.201 1.201 0 010-.142.618.618 0 010-.117.661.661 0 00.042-.175c0-.05 0-.108.058-.15a.259.259 0 000-.1v-4.064a2.932 2.932 0 00-.041-.3v-.242a4.536 4.536 0 00-.092-.334.749.749 0 00-.084-.225.23.23 0 00-.083-.108h-.21l-.275-.059a1.402 1.402 0 00-.243 0 .529.529 0 00-.159 0h-.911a5.247 5.247 0 01-.56.042h-1.739a4.77 4.77 0 01-.56-.042l-.217.1h-4.949l-.276-.058h-.125a.203.203 0 00-.131.03.207.207 0 00-.086.103.941.941 0 00-.075.284c-.076.451-.15.943-.226 1.469-.066.5-.1 1.005-.1 1.51v.784a.503.503 0 000 .125.52.52 0 010 .142 1.943 1.943 0 000 .234.77.77 0 000 .283c.037.09.056.187.058.284v-.117c.003.053.003.106 0 .159a.633.633 0 000 .158v1.878c.022.08.062.154.117.217l.2.225a.476.476 0 00.302.175h.326c.092.014.181.039.267.075.079.026.16.04.243.042h.259c.094.009.186.029.276.058l.25.05a.976.976 0 01.16.05.162.162 0 01.1.042.218.218 0 01.117.059h.526a.715.715 0 01.385.125.366.366 0 01.2.317.451.451 0 01-.108.309l-.234.225-.41.075-.376.042h-1.246a2.759 2.759 0 01-.727-.117 2.883 2.883 0 00-.836-.117h-1.588c-.075.008-.15.008-.226 0h-.134a16.06 16.06 0 01-1.37.159c-.464.048-.93.073-1.396.075h-.419c-.091-.05-.15-.101-.167-.159l.009.05zm24.669.042a.27.27 0 00-.084-.159.657.657 0 01-.083-.183v-.075a.87.87 0 01.125-.167l.217-.225.226-.234c.056-.044.11-.091.159-.142a.629.629 0 01.184-.058h1.262a.284.284 0 00.109 0l.159-.042a.456.456 0 00.142-.058h.075a.383.383 0 00.226-.318 1.923 1.923 0 000-.425v-2.62c0-.1.041-.184.058-.259.017-.075 0-.125.042-.158v-6.216a.906.906 0 00-.1-.459.655.655 0 00-.251-.251 1.072 1.072 0 00-.376-.133 3.369 3.369 0 00-.427 0h-.585a1.995 1.995 0 01-.677-.1.462.462 0 01-.267-.484v-.234a1.35 1.35 0 01.075-.267c.445.03.892.03 1.337 0 .442-.05.885-.075 1.33-.075h.376c.075.007.15.007.225 0h7.674a.736.736 0 01.61.225c.133.158.227.343.276.543v1.986c0 .15-.05.3-.075.467-.025.167-.042.325-.075.492-.034.167 0 .259 0 .326l-.1.125c-.04.05-.073.075-.1.075h-.06a1.334 1.334 0 01-.367-.384 2.664 2.664 0 01-.217-.476 8.09 8.09 0 01-.16-.484 2.03 2.03 0 00-.208-.458 1.016 1.016 0 00-.193-.184l-.15-.159a.922.922 0 01-.134-.15c-.058-.092-.125-.175-.2-.275-.076-.1-.134-.2-.201-.284l-.109-.158c0-.084-.083-.125-.133-.125h-.268a.645.645 0 00-.175 0h-.227l-.258-.059-.243-.058-.142-.059h-.075a.542.542 0 00-.15 0 .424.424 0 01-.143 0h-.05a1.228 1.228 0 00-.242 0h-.41a3.79 3.79 0 00-.426 0h-.234a.844.844 0 00-.427.1.837.837 0 00-.284.259 2.39 2.39 0 00-.192.359c0 .117-.092.242-.142.367-.05.125 0 .275-.059.517-.058.242-.041.484-.067.751-.025.267 0 .518-.058.76-.059.242 0 .4 0 .5v1.394c.07.092.15.178.234.258a.675.675 0 00.3.167h1.598c.25 0 .543 0 .886-.092a.52.52 0 00.05-.1l.067-.375s.05-.092.075-.125a.482.482 0 010-.076l.142-.283c.059-.134.109-.259.167-.384a4.32 4.32 0 00.142-.342l.092-.159c.027-.078.046-.159.059-.242a.608.608 0 01.05-.225.596.596 0 01.3-.175 1.97 1.97 0 01.377 0 .219.219 0 01.242.158.988.988 0 01.059.326v.534c.008.083.008.167 0 .25a.71.71 0 01-.1.234v3.304a.616.616 0 000 .133v.226c.004.075.004.15 0 .225a.828.828 0 010 .159 1.98 1.98 0 01-.285.175.708.708 0 01-.284.05.324.324 0 01-.217-.084 1.379 1.379 0 01-.184-.242 1.493 1.493 0 01-.217-.567v-1.085a.33.33 0 00-.418-.117l-.201-.116-.267-.067a2.734 2.734 0 00-.402-.075 3.566 3.566 0 00-.384-.059h-1.689l-.2.226v.484c0 .567 0 1.101-.05 1.627a16.87 16.87 0 00-.06 1.61c-.006.211.016.421.068.626a.518.518 0 00.234.292c.124.061.256.104.393.125.203.035.404.082.602.142l.1.042a.348.348 0 01.1.083h2.299a.896.896 0 01.217-.042l.201-.05h1.187l.142-.117c.059 0 .1-.091.142-.125.042-.033.059-.058.067-.058a.528.528 0 01.159 0h.117l.084-.042a.3.3 0 00.083-.125 1.67 1.67 0 00.234-.476 3.15 3.15 0 01.184-.484.613.613 0 00.142-.166 1.09 1.09 0 00.1-.192.177.177 0 00.084-.042l.142-.109.134-.133a.419.419 0 00.067-.1.762.762 0 01.058-.109l.117-.175a.967.967 0 01.1-.167l.068-.117.041-.058c.02.004.04.004.059 0 .142 0 .234.05.259.167.016.108.016.217 0 .325v2.17a1.428 1.428 0 01-.075.425 1.51 1.51 0 01-.2.442 1.08 1.08 0 01-.31.359.627.627 0 01-.376.159H56.6a2.48 2.48 0 01-.384-.042h-.518a1.89 1.89 0 01-.326.05h-6.847a.749.749 0 01-.2 0h-.744a.57.57 0 01-.226.1.844.844 0 01-.242.059h-.243l-.342-.075-.36-.067-.26-.242zm20.02-9.429v1.26c0 .134 0 .192.05.209v.1c.005.072.005.145 0 .217v.425c0 .042 0 .267.059.418a.47.47 0 00.284.342h.619a2.73 2.73 0 001.412-.401 5.665 5.665 0 001.23-.951c.213-.312.34-.675.367-1.051.049-.379.074-.761.075-1.143v-.835a3.242 3.242 0 00-.376-.834 2.042 2.042 0 00-.61-.684h-.159l-.142-.075-.2-.126-.218-.1h-.401a2.821 2.821 0 00-.368 0h-.769a.654.654 0 00-.217.084 1.13 1.13 0 00-.184.175.678.678 0 00-.142.2.475.475 0 00-.076.184c-.013.096-.032.19-.058.284 0 .125 0 .25-.067.383-.067.134 0 .242-.058.342-.059.101 0 .159 0 .176 0 .016 0 .066-.05.167-.05.1 0 .233 0 .375v.859zm-4.748 9.179c0-.151.109-.251.318-.309.238-.07.481-.123.727-.159l.76-.158c.243-.059.394-.15.444-.284.05-.133 0-.234 0-.442 0-.209 0-.426.067-.651.067-.225.058-.459.075-.659.017-.2.05-.342.067-.417v-.15c0-.334 0-.676-.05-1.018-.05-.343-.05-.685-.05-1.027v-.809c0-.134 0-.275.041-.384.042-.108 0-.192 0-.217v-3.955a1.177 1.177 0 00-.142-.609c-.092-.183-.2-.375-.309-.576a.628.628 0 00-.418-.242 3.823 3.823 0 00-.627-.125c-.209 0-.401-.083-.568-.133-.168-.05-.26-.15-.26-.284a.501.501 0 01.067-.2.719.719 0 01.176-.2h1.555c.159 0 .309 0 .443-.042h1.68a.359.359 0 01.117 0h4.69c.125.033.243.087.35.158l.377.2h.351l.217.06h.126c.358.257.646.602.836 1 .192.386.34.792.443 1.21v.175c.002.237-.012.474-.042.71-.019.25-.058.498-.117.742a2.904 2.904 0 01-.243.684c-.091.213-.215.41-.367.584a5.644 5.644 0 01-.544.585 1.615 1.615 0 01-.668.4.829.829 0 01-.218.067 2.593 2.593 0 00-.284.092.848.848 0 00-.26.15.296.296 0 00-.1.233c.026.189.094.369.201.526a13.97 13.97 0 00.97 1.427c.167.217.3.375.384.467.043.075.09.148.142.217l.301.384.343.4.276.301c.04.036.073.078.1.125l.36.284.41.342.375.3a.682.682 0 00.193.134l.058.058.159.1.176.109a.449.449 0 00.15.058l.217.117c.108.042.209.098.301.167.09.055.172.122.243.2.03.023.052.054.065.09a.206.206 0 01.01.11.15.15 0 01-.092.125.466.466 0 01-.184.1l-.217.059h-4.656a1.356 1.356 0 01-.31-.059.614.614 0 01-.259-.141.41.41 0 01-.1-.301.261.261 0 01.117-.2c.078-.076.162-.146.25-.209l.302-.2a.85.85 0 00.234-.2v-.117a.825.825 0 01-.1-.159c0-.066-.084-.133-.118-.2l-.083-.183a.285.285 0 010-.1 1.9 1.9 0 01-.192-.226c-.092-.133-.201-.275-.31-.417-.108-.142-.225-.275-.317-.4-.092-.126-.16-.201-.184-.242a17.477 17.477 0 00-.502-.643 7.64 7.64 0 00-.501-.542 6.224 6.224 0 00-.552-.484l-.644-.526a2.636 2.636 0 01-.217-.208.276.276 0 00-.114-.093.28.28 0 00-.145-.024h-.067a.097.097 0 00-.042.058.149.149 0 000 .067c0 .108 0 .292-.059.559-.058.267 0 .551-.066.834-.067.284 0 .584-.059.835-.058.25 0 .45 0 .542 0 .092-.05 0-.058.1v.267c0 .05 0 .075.058.075a1.916 1.916 0 000 .242c0 .117 0 .234.059.367.058.134.05.242.066.359.017.117.05.175.06.217a.337.337 0 000 .125c.023.06.051.119.083.175l.1.151c0 .05.067.075.084.075h1.011a.157.157 0 000 .058l.058.084a.656.656 0 01.118.175.777.777 0 010 .167.22.22 0 01-.15.217 2.084 2.084 0 01-.302.083h-.618c-.619 0-1.23 0-1.831.042a26.55 26.55 0 01-1.856.058h-1.254a.84.84 0 01-.36-.075.29.29 0 01-.175-.25v.067zm15.147.175l-.2-.1a.696.696 0 01-.1-.167.574.574 0 010-.2.493.493 0 01.141-.318h.118a.283.283 0 01.108 0h.117c.113-.026.228-.042.343-.05l.36-.058.35-.083c.109-.036.21-.09.301-.159.189-.113.347-.271.46-.459a1.82 1.82 0 00.226-.567c.047-.203.078-.41.092-.618v-.993c0-.175 0-.392.05-.6.05-.209 0-.409 0-.584v-.401c.143-.232.24-.49.284-.759.05-.251.1-.518.159-.793a.182.182 0 01.042-.092.234.234 0 000-.1c.003-.05.003-.1 0-.15a.58.58 0 01-.042-.175v-.1a.59.59 0 01.042-.159.99.99 0 000-.208v-1.828a.745.745 0 010-.125c0-.083.058-.158.083-.25a1.86 1.86 0 00.076-.225.842.842 0 000-.142 1.172 1.172 0 00-.1-.609 1.438 1.438 0 00-.36-.476 2.837 2.837 0 00-.485-.384l-.485-.317a2.554 2.554 0 01-.384-.309.54.54 0 01-.16-.375v-.167l.369-.217c.058 0 .092-.05.1 0h2.993a.99.99 0 01.627.409c.201.256.37.536.501.834.144.29.264.592.36.901.091.301.167.543.217.726 0 0 0 .059.042.117a.992.992 0 010 .184 1.55 1.55 0 010 .167v.075c.042.047.09.089.142.125l.159.1c.167.384.317.759.443 1.143.125.384.276.768.426 1.152a.83.83 0 00.159.258c.078.077.13.176.15.284.047.034.08.085.092.142.019.059.041.118.067.175.035.102.055.209.059.317 0 .075.05.142.158.209.11.066 0 0 .084.075l.142.066a1.397 1.397 0 000 .176.624.624 0 01.059.142c0 .066.083.183.158.358.076.175.16.334.243.526.083.192.184.35.259.509.075.158.142.275.167.342a.163.163 0 00.117.1h.117a.65.65 0 00.268-.058.333.333 0 00.2-.184c.1-.208.226-.434.36-.667a8.91 8.91 0 00.36-.718.417.417 0 00.05-.083.835.835 0 00.075-.176c0-.066.05-.116.066-.166a.296.296 0 00.05-.117c0-.1.067-.184.093-.242l.117-.159c.037-.047.07-.097.1-.15a1.19 1.19 0 00.117-.234.139.139 0 010-.066v-.384c.038-.062.071-.126.1-.192.059-.1.117-.217.176-.342l.184-.342c.034-.064.073-.126.117-.184a3.18 3.18 0 00.125-.425 1.92 1.92 0 01.176-.418l.468-.951c.159-.325.326-.625.485-.918.05-.08.095-.163.133-.25.067-.125.126-.258.193-.4a3.05 3.05 0 00.2-.401l.15-.284c.04-.077.07-.158.093-.241l.117-.276c.036-.083.078-.164.125-.242a.527.527 0 01.234-.167.988.988 0 01.326-.158c.125-.04.254-.069.385-.084l.418-.058.384-.058h.159c.086-.01.173-.01.26 0h.442a.11.11 0 01.084 0h.56a.666.666 0 01.192 0h.142v.183c-.033.05-.069.097-.108.142-.059.058-.084.092-.084.117-.075.03-.148.067-.217.108l-.301.159-.301.158a.82.82 0 01-.2.084l-.068.233v1.177a.98.98 0 01-.058.175c0 .083-.067.142-.084.167l.042 3.337v.368c.075.6.134 1.218.167 1.852.034.634.059 1.268.059 1.902v1.035c0 .342 0 .659-.042.984l.159.117.175.084.192.058.352.067.334.058h.2c.061.012.12.031.176.059l.284.133c.104.041.204.088.301.142l.226.108c.084 0 .125.051.134.092a.21.21 0 010 .109c0 .092 0 .142-.067.158a.922.922 0 01-.192.059.37.37 0 01-.142.041h-6.253a.243.243 0 01-.2-.275.54.54 0 010-.225.25.25 0 01.062-.09.248.248 0 01.096-.052l.343-.125.267-.1.243-.092.342-.109c.114-.034.224-.081.326-.141a.844.844 0 00.234-.242.662.662 0 00.1-.376v-4.689a1.374 1.374 0 01-.075-.175.842.842 0 010-.142v-.885a1.132 1.132 0 010-.2.646.646 0 00-.058-.183 1.41 1.41 0 010-.167s0-.084-.042-.159 0-.175 0-.258v-.468a.133.133 0 00-.035-.054.134.134 0 00-.057-.029.295.295 0 00-.125 0 .255.255 0 00-.226.108.92.92 0 00-.117.276 2.6 2.6 0 00-.075.3.57.57 0 010 .209v.05l-.226.308a1.566 1.566 0 01-.234.259.348.348 0 010 .075l-.075.1-.067.109a2.14 2.14 0 00-.192.292l-.1.225c0 .075-.06.159-.1.259-.043.1-.06.183-.11.308-.192.384-.376.785-.56 1.202-.184.417-.367.834-.551 1.168l-.134.217-.159.242-.159.242c-.035.058-.066.12-.092.184a4.409 4.409 0 00-.159.559c-.04.182-.101.358-.183.525l-.059.084a1.16 1.16 0 00-.1.141l-.1.142v.142a1.272 1.272 0 01-.042.142c.002.053.002.106 0 .159a.19.19 0 010 .083 1.495 1.495 0 01-.335.559 2.65 2.65 0 01-.543.401h-.084a.294.294 0 00-.125 0c-.05 0-.075-.042-.075-.059a.696.696 0 00-.1-.167l-.084-.15a1.035 1.035 0 01-.075-.125c-.24-.556-.49-1.099-.753-1.627a51.712 51.712 0 01-.769-1.669c-.25-.576-.401-.901-.593-1.352-.193-.45-.377-.909-.594-1.36 0 0-.067-.058-.092-.058a3.558 3.558 0 01-.267-.609 6.955 6.955 0 00-.301-.743 3.551 3.551 0 00-.385-.701 1.193 1.193 0 00-.518-.442l-.059.117c0 .058 0 .117-.066.184l-.059.2v.142c-.084.484-.15.942-.2 1.368-.052.44-.077.883-.076 1.327v1.343a.843.843 0 01-.092.209.124.124 0 010 .058.132.132 0 010 .058v1.027c.004.058.004.117 0 .175 0 .042 0 .075-.041.083v.468c0 .108 0 .242.041.375.042.134 0 .242 0 .351a2.156 2.156 0 000 .233.678.678 0 00.427.467c.214.074.435.127.66.159l.167.042h.318c.107.004.213.018.317.041h.184s.076.059.184.176c.093.077.179.161.26.25a.333.333 0 01-.176.259.483.483 0 01-.268.116h-4.413l-1.43.034zm20.957.1a.268.268 0 00-.084-.159.73.73 0 01-.092-.183v-.075s.067-.092.134-.167c.068-.079.14-.155.218-.225l.225-.234.159-.142c.057-.03.12-.05.184-.058.08-.007.162-.007.242 0h1.012a.329.329 0 00.117 0l.159-.042.142-.058h.067a.406.406 0 00.234-.318 2.74 2.74 0 000-.425v-2.219a1.205 1.205 0 010-.159 2.442 2.442 0 000-.242c.012-.088.032-.174.058-.259v-6.374a.901.901 0 00-.1-.459.622.622 0 00-.26-.251 1.009 1.009 0 00-.367-.133 3.503 3.503 0 00-.435 0h-.585a1.947 1.947 0 01-.669-.1c-.184-.067-.267-.234-.267-.484v-.234c.016-.09.038-.18.067-.267.448.03.897.03 1.346 0 .44-.05.885-.075 1.329-.075h8.267a.752.752 0 01.619.225c.132.158.227.343.275.543v1.986c0 .15-.041.3-.075.467-.033.167-.042.325-.067.492-.025.167 0 .259 0 .326l-.1.125c-.05.05-.084.075-.1.075h-.109a1.347 1.347 0 01-.368-.384 3.46 3.46 0 01-.217-.476c-.05-.158-.109-.317-.151-.484a2.044 2.044 0 00-.217-.458.891.891 0 00-.184-.184 1.194 1.194 0 01-.159-.159l-.125-.15c-.059-.091-.125-.175-.201-.275-.075-.1-.133-.2-.2-.284l-.117-.158c0-.084-.084-.125-.126-.125h-.276a.584.584 0 00-.167 0h-.234l-.251-.059-.242-.058-.142-.059h-.075a.53.53 0 00-.159 0 .423.423 0 01-.142 0 1.233 1.233 0 00-.243 0h-.418a3.784 3.784 0 00-.426 0h-.226a.841.841 0 00-.434.1.941.941 0 00-.285.259 2.377 2.377 0 00-.183.359l-.143.367c0 .109 0 .275-.058.517-.059.242 0 .484-.075.751-.076.267 0 .518-.05.76a4.633 4.633 0 000 .5v1.168c0 .125 0 .192.041.226.071.09.146.176.226.258a.764.764 0 00.301.167h1.672c.251 0 .543 0 .886-.092a.81.81 0 00.042-.1.805.805 0 01.075-.142l.067-.125a.47.47 0 010-.075c.052-.092.1-.186.142-.284l.167-.609c.059-.133.1-.25.142-.342l.084-.158a.882.882 0 00.058-.242.538.538 0 01.059-.226.61.61 0 01.301-.175c.122-.012.245-.012.368 0 .133 0 .217.05.242.159a.84.84 0 01.059.325v.534c.008.083.008.167 0 .251-.027.08-.06.158-.101.233v3.304a.501.501 0 000 .134v.225c.004.075.004.15 0 .225.004.053.004.106 0 .159-.09.065-.185.123-.284.175a.75.75 0 01-.293.05.308.308 0 01-.209-.083 1.078 1.078 0 01-.183-.242 2.338 2.338 0 01-.151-.284 1.524 1.524 0 01-.067-.284v-1.084a.255.255 0 00-.159-.1l-.192-.117-.276-.067a2.749 2.749 0 00-.401-.075 3.54 3.54 0 00-.385-.059h-1.655l-.2.226v.484c0 .567 0 1.101-.059 1.627-.058.525-.058 1.051-.058 1.61-.01.211.015.423.075.626a.507.507 0 00.226.292c.127.06.262.102.401.125.203.037.404.084.602.142l.1.042.1.083h2.299a.834.834 0 01.209-.042l.201-.05h1.187l.142-.117a1.05 1.05 0 00.142-.125c0-.041.067-.058.075-.058a.472.472 0 01.159 0h.109l.092-.042a.39.39 0 00.083-.125c.1-.146.176-.306.226-.476.051-.166.115-.328.192-.483a.636.636 0 00.134-.167c.04-.061.073-.125.1-.192a.185.185 0 00.092-.042l.142-.108.126-.134a.306.306 0 00.075-.1.381.381 0 01.058-.109l.109-.175.1-.167.076-.116.042-.059h.058c.142 0 .226.05.259.167.012.108.012.217 0 .325v2.17c0 .144-.023.288-.067.425a2.126 2.126 0 01-.2.443 1.114 1.114 0 01-.318.358.582.582 0 01-.368.159h-1.504a2.478 2.478 0 01-.385-.042h-.51c-.11.027-.222.043-.334.05h-6.98a.75.75 0 01-.2 0h-.745a.72.72 0 01-.226.1.833.833 0 01-.25.059h-.234l-.352-.075-.35-.067a1.785 1.785 0 01-.477-.334v.067zm19.001-.1a.408.408 0 01.083-.284.65.65 0 01.217-.183c.129-.062.268-.102.41-.117l.543-.117c.173-.037.342-.093.502-.167a.486.486 0 00.259-.317v-10.004a.83.83 0 00-.343-.442.832.832 0 00-.543-.201h-1.831a.893.893 0 00-.284.084l-.251.117c-.331.187-.628.43-.877.717a7.946 7.946 0 00-.652.834.55.55 0 00-.092.101c0 .05-.059.1-.101.166a.928.928 0 01-.1.176l-.05.1-.1.183-.159.226a.834.834 0 01-.184.2.246.246 0 01-.159.092.389.389 0 01-.242-.075.51.51 0 01-.142-.184 1.214 1.214 0 01-.076-.242v-.275c.002-.199.022-.397.059-.593.042-.192.075-.392.117-.6.037-.191.065-.383.083-.576 0-.259.084-.526.143-.784.052-.24.134-.473.242-.693a.482.482 0 01.435-.3.084.084 0 01.05 0h.159a.89.89 0 00.175.1l.268.133.284.125.159.059h.802a.638.638 0 01.167.058h.101a8.11 8.11 0 001.421-.125c.468-.093.944-.14 1.421-.142.838 0 1.675.048 2.508.142.833.084 1.67.126 2.507.125h.87l.242-.066.259-.092.184-.067a1.4 1.4 0 00.218-.1l.158-.142a.839.839 0 01.184-.117c.081-.04.17-.06.259-.058a.495.495 0 01.427.258c.123.177.211.375.259.584.069.229.116.464.142.701.03.178.072.354.125.526.044.21.103.416.176.617.083.207.126.428.125.651.007.078.007.156 0 .234a.663.663 0 01-.075.242.57.57 0 01-.15.167.419.419 0 01-.251.075.561.561 0 01-.343-.217l-.426-.501c-.14-.189-.282-.372-.427-.55a1.123 1.123 0 00-.376-.359l-.125-.075-.201-.109a1.132 1.132 0 00-.2-.1l-.109-.075a5.159 5.159 0 01-.535-.342 1.99 1.99 0 00-.543-.3h-.987c-.204 0-.408.017-.61.05a.63.63 0 00-.468.267v1.752a.335.335 0 010 .1c-.011.045-.025.09-.042.133 0 .042 0 .092-.058.142a.189.189 0 010 .067v4.414a1.688 1.688 0 00-.159.392 2.332 2.332 0 000 .392v.209a.984.984 0 000 .133.629.629 0 01.042.192c.02.066.037.133.05.2.002.039.002.078 0 .117v1.611c.025.18.073.357.142.525a.448.448 0 00.435.259h1.278c.071.051.126.12.159.2a.438.438 0 01.076.242.249.249 0 01-.012.094.227.227 0 01-.047.081.907.907 0 01-.176.151h-6.052a.984.984 0 01-.217 0c-.125.208-.15.208-.15.108v.067zm12.112-.267a.422.422 0 01.201-.376.778.778 0 01.443-.142h.702a.682.682 0 00.184-.041s.058 0 .117-.05h.226l.367.041a.402.402 0 00.201 0l.134-.141a.923.923 0 00.083-.142.45.45 0 01.117-.159v-.659c0-.262-.014-.524-.041-.784a6.303 6.303 0 01-.051-.835 3.258 3.258 0 010-.484 2.74 2.74 0 000-.425v-.643c0-.15 0-.367-.05-.609s0-.55-.067-.918c0-.133.051-.242.059-.342.008-.1 0-.217 0-.35v-.376a.575.575 0 000-.083v-.159a.665.665 0 000-.141.237.237 0 010-.084v-1.402c0-.216 0-.467-.042-.725-.042-.259 0-.493 0-.718v-.467a.642.642 0 00-.175-.317 2.45 2.45 0 00-.268-.251.442.442 0 00-.217-.1h-.084a.232.232 0 01-.117 0h-.125a.518.518 0 00-.159-.067.475.475 0 00-.159-.058h-.226a2.297 2.297 0 00-.367-.075l-.393-.058h-.209a.524.524 0 01-.234-.117.394.394 0 01-.084-.25c.004-.096.018-.191.042-.284a.23.23 0 01.159-.217.831.831 0 01.342-.1c.175-.029.351-.048.527-.059h3.536a3.78 3.78 0 01.401-.05h2.784l.309.1c.128.024.254.057.376.1a.728.728 0 01.301.159.28.28 0 01.126.25.454.454 0 01-.201.359 1.873 1.873 0 01-.468.242 4.87 4.87 0 01-.543.142 3.33 3.33 0 01-.418.075h-.987a.627.627 0 00-.159.1.583.583 0 01-.183.1l-.326.167a.227.227 0 00-.084.076.229.229 0 00-.034.108v.592a.42.42 0 00.126.267v.643a13.099 13.099 0 01-.109 1.668 12.766 12.766 0 00-.117 1.669 2.787 2.787 0 000 .342v4.639a.568.568 0 00.1.451c.111.109.242.197.385.259.171.066.347.119.527.158l.543.125c.152.033.298.086.435.159a.329.329 0 01.167.283.36.36 0 01-.217.318 2.51 2.51 0 01-.327.166h-2.106a.988.988 0 00-.435.117.846.846 0 01-.393.109h-.175l-.36-.05-.326-.05c-.108 0-.167 0-.184-.051h-.376a2.058 2.058 0 00-.568.076 1.799 1.799 0 01-.569.083h-.342a2.18 2.18 0 01-.418-.075 1.297 1.297 0 01-.36-.167.463.463 0 01-.167-.559v.067zm13.459-5.282a.287.287 0 00.183.284.843.843 0 00.343.092h1.388c.22.003.439-.036.643-.117.184-.084.268-.267.268-.551v-.242a6.615 6.615 0 00-.385-1.301c-.167-.434-.334-.835-.484-1.269a2.114 2.114 0 00-.084-.217.963.963 0 00-.117-.225.7.7 0 00-.159-.184.266.266 0 00-.184-.075.376.376 0 00-.301.159c-.07.118-.126.244-.167.375a3.34 3.34 0 00-.1.443c-.027.116-.06.23-.1.342 0 .083-.084.233-.159.45l-.218.701c-.075.234-.15.467-.225.684a6.248 6.248 0 00-.142.459v.192zm-3.344 5.574h-.217l-.26.042h-.493a.197.197 0 01-.079-.017.191.191 0 01-.063-.05.589.589 0 01-.092-.159.8.8 0 010-.183v-.176a.355.355 0 01.176-.342l.351-.158.142-.042.251-.117.25-.1c.052-.02.1-.049.143-.083l.091-.067.151-.159c.057-.054.111-.112.159-.175l.142-.142v-.066a.25.25 0 00.058-.134.931.931 0 010-.167.582.582 0 01.067-.175 64.056 64.056 0 001.505-3.146.825.825 0 00.109-.242c.058-.15.1-.242.117-.3.016-.058 0-.075.066-.175.067-.1.084-.209.118-.309.033-.1.075-.225.1-.317a.547.547 0 00.058-.175l.084-.192.175-.342a3.35 3.35 0 00.168-.359c.058-.117.1-.183.117-.217l.217-.459c.081-.159.151-.323.209-.492l.142-.259c.071-.095.135-.196.192-.3l.143-.325a.843.843 0 00.066-.301v-.2a.508.508 0 00-.041-.184v-.158a.494.494 0 01.108-.259c.051-.073.11-.14.176-.2l.125-.059.234-.1.193-.1.117-.05c.036-.041.075-.08.117-.117l.183-.183.201-.217.142-.159.059-.083a.627.627 0 01.1-.159.524.524 0 01.125-.142.177.177 0 01.159-.058.468.468 0 01.243.259c.08.148.141.304.184.467.058.161.106.325.142.492.027.105.06.208.1.309.013.068.029.135.05.2 0 .084.05.175.067.259.017.083.05.158.075.225a.762.762 0 010 .117c.019.066.033.133.042.2 0 .1 0 .217.059.342.058.126.05.234.075.342a1.55 1.55 0 010 .167s0 .125.067.276c.067.15.1.325.159.525l.175.601c.059.192.1.342.142.451.076.265.171.524.284.776.114.24.201.492.26.751.041.175.069.354.083.534.029.155.077.306.142.45 0 0 0 .067.059.134.046.062.085.129.117.2l.1.192c.019.049.036.099.05.15v.267c.018.057.032.116.042.175a.834.834 0 000 .1.284.284 0 000 .092l.067.175.075.176c0 .041 0 .066.05.066.05.251.109.518.193.835.068.27.187.525.351.751a.877.877 0 00.418.292l.627.225c.198.064.389.151.568.259a.413.413 0 01.251.367.562.562 0 01-.134.384.84.84 0 01-.301.2 1.223 1.223 0 01-.41.083 3.784 3.784 0 01-.426 0h-2.616l-1.229-.042h-.836a.201.201 0 01-.184-.125.616.616 0 010-.242v-.1a.142.142 0 010-.058.685.685 0 01.359-.359 2.35 2.35 0 01.469-.15l.501-.134a.782.782 0 00.401-.342v-.2a2.077 2.077 0 00-.075-.35 3.993 3.993 0 00-.1-.459 3.91 3.91 0 00-.084-.401 1.477 1.477 0 00-.058-.217.964.964 0 01-.084-.142 29.08 29.08 0 01-.125-.25 2.117 2.117 0 00-.134-.275 1.068 1.068 0 00-.1-.217.622.622 0 00-.443-.284 2.92 2.92 0 00-.544-.058h-.284a5.946 5.946 0 00-.97.075 5.741 5.741 0 01-.944.075h-.401c-.067.067-.101.117-.101.158a.27.27 0 00-.067.117l-.075.2c0 .059 0 .126-.067.192a.427.427 0 000 .101.501.501 0 01-.1.175.783.783 0 01-.125.167 1.98 1.98 0 00-.201.742v.776a.403.403 0 00.142.342.93.93 0 00.36.15c.148.044.298.077.451.101.155.022.309.056.46.1a.87.87 0 01.359.192.465.465 0 01.142.367.54.54 0 01-.443.584h-3.076l-.41-.042h-.234l.059-.225zM30.469 144.815a.416.416 0 01.2-.376.78.78 0 01.444-.142h.702a.682.682 0 00.184-.041s.059 0 .117-.05h.226l.368.041a.4.4 0 00.2 0l.134-.141a.943.943 0 00.084-.142.434.434 0 01.117-.159v-.659c0-.262-.016-.524-.05-.784v-.835a2.358 2.358 0 010-.484c.01-.141.01-.284 0-.425v-.284a3.116 3.116 0 000-.359v-.609c0-.242-.042-.55-.067-.918 0-.133 0-.242.058-.342.059-.1 0-.217 0-.35v-.376a.48.48 0 000-.083.88.88 0 010-.159.364.364 0 000-.141.49.49 0 010-.084v-3.246a.645.645 0 00-.175-.317 2.444 2.444 0 00-.268-.25.463.463 0 00-.217-.1h-.084a.232.232 0 01-.117 0H32.2a.509.509 0 00-.16-.067.451.451 0 00-.158-.058l-.226-.042a2.56 2.56 0 00-.367-.075l-.393-.058-.21-.042a.519.519 0 01-.233-.117.392.392 0 01-.084-.25c-.01-.095-.01-.19 0-.284a.23.23 0 01.159-.217.826.826 0 01.343-.1c.174-.029.35-.049.526-.058h3.578a3.46 3.46 0 01.393-.05h2.792l.31.1c.127.023.253.057.375.1.11.031.213.085.301.158a.278.278 0 01.126.251.448.448 0 01-.201.358c-.2.074-.413.114-.627.117a4.63 4.63 0 01-.543.142 3.289 3.289 0 01-.418.075h-.987a.62.62 0 00-.159.1.588.588 0 01-.183.1l-.326.167a.221.221 0 00-.084.076.221.221 0 00-.033.108v.592a.415.415 0 00.125.267v.643c.001.572-.035 1.143-.109 1.71a12.714 12.714 0 00-.117 1.669 2.787 2.787 0 000 .342v4.639a.557.557 0 00.1.451c.11.111.24.199.385.258.17.068.347.121.527.159l.543.125c.152.033.298.086.435.159a.322.322 0 01.167.283.376.376 0 01-.217.317 3.06 3.06 0 01-.326.167.254.254 0 01-.16 0h-1.947a.958.958 0 00-.435.117.843.843 0 01-.4.109h-.21l-.36-.051-.325-.05c-.109 0-.168 0-.184-.05h-.376a2.099 2.099 0 00-.569.075c-.186.06-.381.088-.577.084h-.342a2.191 2.191 0 01-.41-.075 1.29 1.29 0 01-.36-.167.459.459 0 01-.1-.392zm11.218.367h-.175a.585.585 0 01-.142.042h-.418a1.02 1.02 0 01-.318-.075.538.538 0 01-.217-.167.578.578 0 01-.084-.317v-.209c0-.1.126-.167.343-.2.25-.054.505-.085.76-.092l.786-.042a.837.837 0 00.444-.108v-.234a.21.21 0 000-.067v-.175a2.413 2.413 0 000-.258c0-.092 0-.176.041-.251.042-.075 0-.133 0-.158v-4.105l.075-.184v-4.372a.826.826 0 000-.175v-.226a1.124 1.124 0 00-.041-.217.484.484 0 010-.125.482.482 0 00-.285-.3 1.58 1.58 0 00-.484-.142 3.268 3.268 0 00-.594 0l-.552-.058a1.286 1.286 0 01-.426-.142.391.391 0 01-.159-.342.333.333 0 01.084-.234c.058-.075.125-.142.2-.2a.96.96 0 01.243-.125.584.584 0 01.242-.059c.164.002.326.022.485.059.146.031.297.031.443 0h5.375c.106.008.21.031.31.066a.47.47 0 01.334.476.705.705 0 010 .125.408.408 0 000 .1l-.36.217c-.126.07-.26.123-.4.159h-.653l-.401.041h-.234a.329.329 0 00-.2.101.546.546 0 00-.101.183c-.084.419-.14.842-.167 1.268v3.613c0 .125 0 .217-.042.326-.042.108 0 .167 0 .2v2.995a1.01 1.01 0 010 .184v.943a1.487 1.487 0 000 .158.689.689 0 01.042.142.357.357 0 01-.042.1.174.174 0 000 .1.252.252 0 000 .084.158.158 0 000 .067v.058c0 .183.053.362.15.517a.532.532 0 00.418.201h.084c.273-.051.552-.092.836-.126.276-.046.556-.071.836-.075h2.424a.883.883 0 00.192 0h.611l.116-.092.184-.183.201-.217.142-.15a.242.242 0 010-.075l.059-.125.058-.134.042-.067v-.041l.117-.092.1-.067h.076l.066-.067a.708.708 0 00.117-.158.648.648 0 00.084-.184 2.17 2.17 0 00.142-.175l.2-.25.201-.259.126-.175.075-.084a.424.424 0 01.142 0 .428.428 0 01.36.192c.087.123.15.262.184.409.036.165.055.332.058.501v.767c.005.059.005.117 0 .176v-.084a.88.88 0 010 .159.418.418 0 000 .142 5.014 5.014 0 000 .575c.002.134-.02.267-.067.392a.6.6 0 01-.234.292c-.16.1-.34.165-.527.192a3.05 3.05 0 01-.468 0h-4.071a.895.895 0 01-.3 0h-.745a4.358 4.358 0 01-.484 0h-2.291l-.318-.083h-1.128l-.167.042a.456.456 0 01-.243.058h-.376l-.284-.05-.267-.05h-.143zm14.997 0h-.167l-.15.042h-.427a.916.916 0 01-.31-.075.487.487 0 01-.217-.167.508.508 0 01-.083-.317v-.209c0-.1.117-.167.343-.2.247-.054.499-.085.752-.092l.786-.042a.782.782 0 00.443-.108v-.234a.268.268 0 000-.067 1.46 1.46 0 010-.175 2.35 2.35 0 00.05-.258v-.251a1.487 1.487 0 000-.158v-4.105l.067-.184v-.951c0-.251 0-.518.05-.785s0-.483 0-.659v-1.977a.826.826 0 000-.175v-.226a1.108 1.108 0 000-.217v-.125a.455.455 0 00-.284-.3 1.52 1.52 0 00-.485-.142 3.364 3.364 0 00-.585 0l-.56-.058a1.456 1.456 0 01-.427-.142.391.391 0 01-.159-.342.377.377 0 01.084-.234c.058-.075.126-.142.2-.2a.96.96 0 01.243-.125.657.657 0 01.242-.059c.166.002.332.022.494.059.146.031.297.031.443 0h5.55c.109.008.215.031.318.066a.472.472 0 01.326.476.533.533 0 010 .125.259.259 0 000 .1l-.36.217a1.853 1.853 0 01-.392.159h-.66l-.402.041h-.226a.33.33 0 00-.2.101.353.353 0 00-.1.183c-.083.419-.142.843-.176 1.268v3.279c0 .101 0 .209-.05.334a2.17 2.17 0 01-.042.326v4.322a1.542 1.542 0 000 .158.47.47 0 01.05.142.253.253 0 01-.05.1.175.175 0 000 .1.263.263 0 000 .084.16.16 0 000 .067v.058c0 .184.055.365.159.517a.504.504 0 00.426.226h-.184c.276-.051.56-.092.836-.126.276-.047.556-.072.836-.075h2.508a.808.808 0 00.184 0h.618l.109-.092.184-.183c.073-.066.14-.138.2-.217l.142-.15v-.075a.423.423 0 01.059-.125.635.635 0 01.059-.134v-.108l.108-.092.1-.067h.076l.075-.067a.807.807 0 00.109-.158.645.645 0 00.083-.184l.15-.175.193-.25c.071-.083.138-.169.2-.259.04-.062.085-.12.134-.175l.067-.084a.483.483 0 01.142 0 .409.409 0 01.36.192c.09.121.153.261.184.409.04.164.06.332.058.501v.767c.005.059.005.117 0 .176v-.109a.476.476 0 01-.042.159.842.842 0 000 .142v.575a.937.937 0 01-.075.392.628.628 0 01-.226.292 1.483 1.483 0 01-.534.192 3.048 3.048 0 01-.469 0h-4.028a.894.894 0 01-.302 0h-.744a4.358 4.358 0 01-.485 0h-2.282l-.259-.083h-1.17l-.176.042a.437.437 0 01-.242.058h-.368l-.284-.05-.268-.05h-.15zm15.114-11.298a1.54 1.54 0 00-.118-.425.627.627 0 00-.183-.267 1.047 1.047 0 00-.285-.2l-.426-.217a1.153 1.153 0 00-.334-.1.77.77 0 01-.193-.067.708.708 0 01-.133-.276 1.649 1.649 0 01-.042-.267v-.116a.186.186 0 01.075-.142l.15-.042a.986.986 0 00.201-.058h.318a2.45 2.45 0 01.343 0 3.49 3.49 0 01.501 0c.167 0 .393.05.669.1h1.99c.15 0 .317 0 .493-.059h.175a.462.462 0 01.159-.041h.067c.203-.005.405.032.593.108a.458.458 0 01.293.476.427.427 0 01-.176.367 2.089 2.089 0 01-.41.233c-.158.067-.309.134-.476.192a.836.836 0 00-.36.251 1.143 1.143 0 00-.225.384 3.417 3.417 0 00-.142.467c-.028.16-.047.322-.059.484v.425c-.003.127.014.254.05.376a.715.715 0 01.076.342v.125a.115.115 0 01-.042.1v.718a1.604 1.604 0 000 .167v1.259a1.29 1.29 0 01-.058.242c-.024.074-.043.15-.059.226v.3a.636.636 0 000 .142c.005.081.005.161 0 .242v.384c.006.086.006.172 0 .258v.968c.012.102.032.202.059.301 0 .116.058.233.083.358.025.126.075.242.117.351.028.095.064.187.109.275.058.124.125.244.2.359l.343.425c.12.127.245.246.376.359.11.087.235.155.368.201a.38.38 0 01.134.05.392.392 0 00.167.05h.1a.741.741 0 01.285.075c.084.023.166.057.242.1l.242.083c.096.028.194.042.293.042h.2l.093-.058.175-.084.176-.067h.326l.3-.083h.243l.2-.042a1.62 1.62 0 00.686-.475 5.55 5.55 0 00.502-.643v-.125c.026-.065.048-.132.067-.2 0-.075.05-.15.075-.217a.767.767 0 000-.125c.117-.299.204-.61.259-.926.056-.326.095-.655.117-.985v-1.01c0-.325 0-.659.059-.976a.48.48 0 010-.083 1.225 1.225 0 000-.167v-.175a.376.376 0 000-.117v-1.827c0-.201-.042-.409-.076-.643-.033-.234 0-.442-.05-.642-.05-.201 0-.351 0-.443l-.117-.267a.996.996 0 00-.142-.275 1.294 1.294 0 000-.142c0-.05 0-.083-.059-.083a.277.277 0 00-.183-.1h-.226a.376.376 0 01-.134 0 6.35 6.35 0 01-.652-.167 1.227 1.227 0 01-.535-.417.74.74 0 000-.101v-.125a.116.116 0 010-.058v-.075a.977.977 0 01.56-.342c.226-.044.456-.066.686-.067h1.011c.111.009.223.009.334 0 .127-.028.256-.042.385-.042h1.789c.186-.013.373-.013.56 0 .161.026.315.086.451.175a.251.251 0 010 .159v.142a.65.65 0 01-.142.442.984.984 0 01-.35.225 2.75 2.75 0 01-.436.117c-.15.023-.295.065-.434.125a.84.84 0 00-.368.317.834.834 0 00-.142.468 1.472 1.472 0 000 .4c.038.13.058.265.058.401v.242a.968.968 0 01-.058.183.845.845 0 000 .159v3.938c-.04.092-.073.187-.1.284a2.733 2.733 0 00-.042.275v.259c-.002.09-.017.18-.042.267v.158l-.075.225c0 .084 0 .167-.059.242a.667.667 0 000 .134v.142a1.536 1.536 0 000 .208.845.845 0 010 .201v.091a.667.667 0 01-.1.201 1.43 1.43 0 00-.109.166.535.535 0 00-.1.184c-.05.109-.109.217-.176.342-.067.125-.108.242-.167.342l-.117.2a3.05 3.05 0 01-.668.835c-.268.259-.552.526-.837.784l-.167.134-.242.158-.217.15-.117.076h-.41l-.485.058-.401.067a3.292 3.292 0 01-.418.075 4.356 4.356 0 01-.485 0h-.836a2.166 2.166 0 00-.334-.1l-.343-.059a1.908 1.908 0 01-.31-.05.935.935 0 01-.3-.117.812.812 0 01-.184-.1l-.335-.225a3.178 3.178 0 00-.342-.242 2.769 2.769 0 01-.251-.217l-.1-.075a2.555 2.555 0 00-.243-.309l-.259-.275-.259-.267a2.111 2.111 0 01-.2-.359 5.977 5.977 0 01-.427-1.468 11.184 11.184 0 01-.117-1.569v-5.59c-.262-.178-.39-.326-.385-.443zm14.662 3.672v-.584a.485.485 0 010-.134 2.51 2.51 0 01.184-.501c.086-.155.161-.317.225-.483 0 0 .059-.067.092-.142.017-.057.036-.113.059-.167.077-.29.186-.569.326-.835.152-.267.322-.523.51-.767a8.17 8.17 0 01.602-.701c.193-.203.4-.392.618-.567l.067-.051.142-.05.142-.058.084-.042.217-.142.301-.2.301-.175a.543.543 0 01.26-.083h1.671c.026.059.07.108.125.141h.168c.134.001.268-.024.392-.075a.895.895 0 01.402-.083c.111.005.221.028.326.067l.41.175.434.158c.124.041.254.063.385.067.139-.006.275-.04.4-.1.154-.074.323-.111.494-.108h.117s.058 0 .084.1a.174.174 0 010 .083v4.047a.877.877 0 01-.067.384.317.317 0 01-.326.158c-.059 0-.126-.067-.184-.2a2.806 2.806 0 01-.2-.451l-.193-.5a3.549 3.549 0 00-.1-.376l-.059-.142c0-.075-.042-.158-.067-.242l-.075-.242a.772.772 0 000-.141.938.938 0 01-.125-.142l-.268-.326a7.39 7.39 0 00-.318-.392c-.108-.125-.192-.242-.275-.325a.344.344 0 00-.11-.125c-.05-.059-.091-.084-.116-.084l-.217-.1-.31-.175-.326-.159-.2-.108h-.919l-.377.042h-.209a1.413 1.413 0 00-.276 0c-.1 0-.159.041-.159.058s-.05.058-.092.175a2.528 2.528 0 01-.117.251l-.075.1-.067.175c0 .058 0 .117-.058.167a.993.993 0 000 .117 1.103 1.103 0 01-.243.317.762.762 0 00-.2.308 1.361 1.361 0 000 .134.606.606 0 010 .158.812.812 0 01-.059.167.162.162 0 01-.084.1 5.934 5.934 0 00-.234 1.185c0 .367-.041.759-.041 1.168v1.594c-.01.1-.01.2 0 .3.067.09.115.192.142.301.013.105.013.212 0 .317v.325a1.207 1.207 0 00.062.378c.008.01.018.018.03.023v.041a.741.741 0 000 .159l.117.242c.041.078.078.159.108.242l.076.125a.138.138 0 000 .058.08.08 0 01.006.03c0 .01-.002.02-.006.029.1.108.175.192.234.267l.159.233.125.209.159.259c.112.161.258.298.426.4.215.135.438.255.669.359.25.092.493.175.727.242.194.051.393.079.594.083h.267l.176-.075s0-.083.125-.167l.167-.158a.518.518 0 01.234-.117l.268-.083.259-.084a.698.698 0 00.217-.158.628.628 0 00.05-.117 1.63 1.63 0 00.117-.209c.038-.07.071-.143.1-.217.025-.043.053-.085.084-.125l.142-.15.26-.25.259-.276.184-.183h.1c.117 0 .184 0 .2.117.01.083.01.167 0 .25 0 .254-.016.507-.05.759-.04.246-.099.489-.175.726a8.8 8.8 0 01-.836.835 4.603 4.603 0 01-.836.65 4.218 4.218 0 01-.936.418 4.524 4.524 0 01-1.187.141 9.443 9.443 0 01-1.313-.083 6.184 6.184 0 01-1.203-.317 4.65 4.65 0 01-1.062-.601 5.291 5.291 0 01-.928-.951 10.69 10.69 0 01-.685-1.068 9.297 9.297 0 01-.51-1.202c0-.075-.042-.15-.075-.225-.034-.075 0-.183-.059-.284-.058-.1 0-.25-.05-.4-.05-.15 0-.342 0-.576v-1.669a.37.37 0 00.058-.108.32.32 0 01.218.017zm12.096 7.626a.268.268 0 00-.084-.159.48.48 0 01-.084-.183v-.075a.902.902 0 01.126-.167l.217-.225.226-.234.159-.142c.057-.03.12-.05.183-.058.081-.007.162-.007.243 0h1.011a.329.329 0 00.117 0l.159-.042.142-.058h.067a.386.386 0 00.234-.318 2.513 2.513 0 000-.425v-2.22a.696.696 0 010-.158v-.242c.013-.088.033-.174.059-.259v-6.374a.912.912 0 00-.1-.459.623.623 0 00-.26-.251.966.966 0 00-.367-.133 3.508 3.508 0 00-.435 0h-.585a1.997 1.997 0 01-.669-.1c-.184-.067-.268-.234-.268-.484v-.234c.017-.09.04-.179.067-.267.45.016.899.002 1.346-.041.441-.051.885-.076 1.329-.076h8.268a.747.747 0 01.61.226c.132.157.227.343.276.542v1.986c0 .15 0 .3-.067.467l-.075.492c0 .151 0 .259-.042.326l-.1.125c-.051.05-.084.075-.101.075h-.058a1.348 1.348 0 01-.376-.384 2.6 2.6 0 01-.226-.484 4.563 4.563 0 01-.159-.484 1.787 1.787 0 00-.217-.459.912.912 0 00-.184-.183l-.159-.159-.125-.15c-.059-.092-.126-.175-.201-.275-.075-.1-.134-.2-.201-.284l-.117-.158c-.033-.084-.075-.126-.125-.126h-.276a.568.568 0 00-.167-.041h-.226l-.259-.059-.242-.058-.143-.058h-.075a.591.591 0 00-.159.041.377.377 0 01-.142 0 1.223 1.223 0 00-.242 0h-.418a3.784 3.784 0 00-.426 0h-.268a.847.847 0 00-.435.1.95.95 0 00-.284.259 2.382 2.382 0 00-.184.359l-.142.367c0 .108 0 .275-.058.517-.059.242 0 .484-.067.751s0 .518-.059.759a5.232 5.232 0 000 .501v1.394c.071.09.146.176.226.258a.764.764 0 00.301.167h1.672c.251 0 .543 0 .886-.092a.834.834 0 000-.1.832.832 0 01.167-.284l.067-.125.042-.075c.056-.09.103-.185.142-.283l.175-.384c.059-.134.109-.251.142-.342l.084-.159a.652.652 0 00.059-.242.536.536 0 01.058-.225.599.599 0 01.301-.175c.121-.027.244-.041.368-.042.134 0 .217.05.242.158a.848.848 0 01.059.326v.534c.008.083.008.167 0 .25a.952.952 0 01-.101.234v3.304a.494.494 0 000 .133v.226c.005.075.005.15 0 .225.004.053.004.106 0 .159-.09.064-.185.123-.284.175a.743.743 0 01-.284.05.31.31 0 01-.217-.084 1.033 1.033 0 01-.184-.242 1.499 1.499 0 01-.218-.567s0-.092-.041-.192c-.042-.1 0-.208 0-.325v-.568a.274.274 0 00-.151-.1l-.2-.117-.276-.066a2.737 2.737 0 00-.402-.075 3.295 3.295 0 00-.384-.059h-1.939l-.201.225v.484c0 .568 0 1.102-.059 1.627-.058.526-.058 1.052-.058 1.611-.01.211.016.423.075.626.039.12.119.224.226.292.127.06.262.102.401.125.203.036.404.084.602.142l.1.041.101.084h2.298a.817.817 0 01.218-.042l.192-.05h1.087a.24.24 0 00.1 0l.142-.117.151-.125c0-.042.058-.058.066-.058a.472.472 0 01.159 0h.109l.092-.042a.423.423 0 00.084-.125c.099-.146.176-.306.225-.476a3.25 3.25 0 01.192-.484.815.815 0 00.143-.167c.05-.1.092-.158.1-.192a.215.215 0 00.083-.041l.143-.109.125-.133a.306.306 0 00.075-.1.35.35 0 01.059-.109l.108-.175.101-.167.075-.117.042-.058h.058c.142 0 .226.05.259.167.027.106.041.215.042.325v.3a3.27 3.27 0 000 .343v1.526a1.4 1.4 0 01-.067.426 2.095 2.095 0 01-.2.442 1.107 1.107 0 01-.318.359.587.587 0 01-.368.159h-1.496a2.594 2.594 0 01-.393-.042h-.51a1.889 1.889 0 01-.326.05h-6.988a.752.752 0 01-.201 0h-.744a.719.719 0 01-.225.1.844.844 0 01-.243.058h-.242l-.343-.075-.36-.066a1.837 1.837 0 01-.184-.259zm21.475-.401v.059c-.107.144-.24.266-.393.359a.972.972 0 01-.51.108h-.059a.083.083 0 00-.058 0h-.209a.739.739 0 01-.218-.042l-1.596.042h-2.09a1.93 1.93 0 01-.56-.075 1.747 1.747 0 01-.351-.125.327.327 0 01-.176-.301 1.964 1.964 0 010-.217.364.364 0 01.159-.191c.125-.053.254-.098.385-.134l.384-.117h.142l.201-.05.2-.058.126-.042c.085-.058.166-.122.242-.192a.723.723 0 00.201-.284c.08-.136.134-.286.159-.442a2.4 2.4 0 00.041-.5v-.893a2.797 2.797 0 010-.259 1.397 1.397 0 010-.183c0-.101.059-.201.092-.301.034-.1.067-.217.101-.317a1.45 1.45 0 01.05-.167v-.283a.204.204 0 000-.092v-.342l.042-.109a1.862 1.862 0 000-.183v-.392c.002-.661.041-1.321.117-1.978.083-.678.125-1.361.125-2.044v-.484a.497.497 0 000-.109v-.141l-.058-.176-1.171-1.351a.833.833 0 00-.284-.142l-.368-.125a1.836 1.836 0 01-.334-.176.359.359 0 01-.125-.3.266.266 0 01.142-.267.729.729 0 01.334-.075h2.466c.217.002.427.072.602.2.196.128.373.282.526.459.165.18.319.369.46.568.142.2.268.367.385.5l.142.184.242.283c.086.087.167.179.243.276l.142.142a.91.91 0 01.117.158c.073.09.14.185.2.284.073.09.14.185.201.284a.8.8 0 00.126.141l.058.059a.62.62 0 01.117.1.557.557 0 01.1.1l.067.058a.99.99 0 01.142.301c.042.092.076.175.117.25.04.069.088.134.142.192a.852.852 0 00.276.142 18.287 18.287 0 011.672 1.769c.539.597 1.12 1.155 1.739 1.668a.761.761 0 00.259-.258c.057-.104.105-.213.142-.326.041-.116.069-.236.084-.358 0-.126.058-.242.083-.367.084-.359.151-.71.201-1.043a5.59 5.59 0 00.1-1.11v-1.327c0-.258-.05-.517-.083-.759a1.328 1.328 0 00-.176-.526.93.93 0 01-.109-.125l-.117-.108c0-.059-.075-.109-.108-.159-.034-.05-.067-.075-.092-.083a1.08 1.08 0 00-.493-.226l-.786-.242a8.89 8.89 0 01-.736-.275c-.225-.1-.309-.209-.309-.342v-.167a.518.518 0 01.175-.284.651.651 0 01.368-.091h2.567c.147-.01.295-.01.443 0 .136.008.273.008.409 0 .28 0 .559-.019.836-.059.277-.042.556-.064.836-.067a.797.797 0 01.477.142.465.465 0 01.183.426.274.274 0 01-.03.131.269.269 0 01-.087.102.92.92 0 01-.242.151 1.687 1.687 0 01-.301.1.855.855 0 01-.226 0l-.242.066-.368.076-.376.058h-.226a.937.937 0 00-.317.484c0 .167-.059.35-.101.576a.557.557 0 010 .1s0 .1-.041.15a.73.73 0 01-.051.142v.576c0 .2 0 .417.042.684.042.267 0 .534 0 .834v2.061a5.77 5.77 0 01-.108 1.151 5.876 5.876 0 00-.118 1.16c0 .642.042 1.283.126 1.919.101.638.151 1.282.15 1.928v.142c.004.066.004.133 0 .2.005.061.005.122 0 .183v.134a.565.565 0 01-.25.117h-.544a.834.834 0 01-.292-.117 1.038 1.038 0 01-.293-.259 2.718 2.718 0 01-.242-.359 4.157 4.157 0 01-.193-.383 2.017 2.017 0 00-.158-.284 3.276 3.276 0 00-.736-.834 7.407 7.407 0 01-.836-.835.26.26 0 01-.042-.083.418.418 0 010-.1l-.167-.167-.242-.276-.243-.283a.9.9 0 01-.134-.167l-.041-.059a.793.793 0 00-.067-.141l-.059-.142a.834.834 0 010-.1 7.153 7.153 0 00-.485-.559 3.845 3.845 0 00-.526-.526H121l-.134-.092-.142-.1a.152.152 0 01-.05-.083 2.035 2.035 0 01-.443-.401l-.376-.467a9.003 9.003 0 00-.359-.484 3.038 3.038 0 00-.368-.476l-.218-.225-.309-.325-.343-.334-.217-.209s0-.041-.059-.041h-.041a.538.538 0 00-.226 0 1.037 1.037 0 00-.142.2c0 .058 0 .108-.059.158-.058.05 0 .109-.041.201-.042.091 0 .208-.076.408a2.825 2.825 0 01-.108.484v.518c.003.278-.011.557-.042.834v.976a.356.356 0 01.042.175v1.794c0 .176.041.351.058.543.017.192 0 .359.042.525a2.44 2.44 0 010 .342c.126.165.286.301.468.401.172.101.354.182.543.242h.443c.102.012.203.031.301.058.125.026.246.068.36.126.115.046.22.114.309.2.096.04.174.114.218.208zm11.552-3.863c.125 0 .242 0 .359.167.134.171.244.359.326.559.094.201.175.407.243.618.033.124.087.243.159.35.025.046.053.091.083.134l.159.2c.066.062.127.129.184.2l.142.142s0 .05.075.108a.435.435 0 00.126.1c.027.089.061.175.1.259.032.071.071.138.117.2.088.127.206.23.343.301.167.076.34.137.518.183.176.05.36.084.535.117h.56c.317-.083.618-.221.886-.409.27-.185.507-.414.702-.676.199-.25.354-.532.46-.834.101-.318.152-.651.151-.985v-.5a.778.778 0 00-.226-.501l-.176-.167a2.515 2.515 0 00-.217-.233l-.209-.209c-.058-.067-.1-.108-.134-.117a2.106 2.106 0 00-.836-.384 2.66 2.66 0 00-.443-.083l-.443-.092a12.526 12.526 0 01-1.028-.283 7.774 7.774 0 01-1.112-.484 5.223 5.223 0 01-.986-.66 2.017 2.017 0 01-.619-.876 1.034 1.034 0 01-.083-.25 3.744 3.744 0 01-.126-.826 3.513 3.513 0 010-.384.749.749 0 010-.267v-.233a.952.952 0 000-.151.278.278 0 010-.091v-.126c0-.066 0-.15.059-.225.026-.07.046-.143.058-.217a.842.842 0 000-.142l.042-.083c0-.05.075-.1.117-.142l.117-.133.067-.084a.416.416 0 00.1-.142l.143-.2.133-.2.101-.125c.041-.082.088-.16.142-.234a.841.841 0 01.15-.142l.192-.117.251-.15a.563.563 0 01.101-.117c.058-.058.1-.083.117-.083a.386.386 0 01.1-.075.361.361 0 01.1-.059l.259-.066.326-.117c.109 0 .193-.067.276-.084l.126-.041.259-.059h.351c.344.004.688.035 1.028.092.376 0 .702.092.986.142a.22.22 0 01.092.042l.168.066.183.076h.118a.465.465 0 00.267-.067c.077-.046.15-.099.217-.159l.218-.158a.543.543 0 01.267-.067c.038 0 .075.009.109.026a.236.236 0 01.083.074.627.627 0 01.092.242.72.72 0 01.051.267c.003.067.003.134 0 .2.002.187-.035.372-.109.543-.064.166-.109.34-.134.517a3.553 3.553 0 000 .484 2.73 2.73 0 01-.058.584c-.03.172-.093.336-.184.484a.464.464 0 01-.427.2.344.344 0 01-.317-.175 2.64 2.64 0 01-.176-.409c-.042-.167-.092-.325-.142-.484a.868.868 0 00-.184-.375 6.454 6.454 0 00-.401-.443 3.133 3.133 0 00-.468-.408 2.169 2.169 0 00-.56-.317 1.504 1.504 0 00-.602-.126h-.067a4.815 4.815 0 00-.836.284c-.238.11-.456.26-.644.442-.173.188-.307.41-.392.651a2.57 2.57 0 00-.151.935v.15a.6.6 0 00.05.2c0 .075.05.167.084.259.034.091.073.18.117.267.02.058.051.112.092.158a.354.354 0 000 .092l.058.05c.116.106.239.204.368.292.142.065.29.112.443.142h.585a.425.425 0 01.159 0l.1.05.201.075.201.059h.117l.2.058.351.075.343.067h.217l.176.05c.084 0 .134 0 .151.05l.058.05.117.075.142.117.126.042.217.066c.069.019.136.044.201.075l.125.042h.058a.625.625 0 01.117.1.563.563 0 01.101.1l.067.042.075.075.125.067.134.058h.084c.368.266.657.627.836 1.043.18.419.271.871.267 1.327a.096.096 0 010 .058v.076a.488.488 0 000 .108v1.644a2.283 2.283 0 01-.217.609c-.116.23-.25.451-.402.659-.15.204-.312.399-.484.584-.136.16-.29.303-.46.426-.1.076-.21.137-.326.183l-.502.2-.526.176-.402.108h-3.201l-.184-.067a1.162 1.162 0 00-.326-.1l-.334-.083-.327-.134a1.309 1.309 0 01-.3-.25 1.43 1.43 0 01-.067-.15c0-.067-.059-.134-.092-.192a.75.75 0 00-.084-.2.501.501 0 010-.134l-.075-2.561c0-.042 0-.084.084-.134a.283.283 0 01.058-.142z" fill="#000"/><path d="M23.308 69.964c10.272-8.935 22.227-15.592 34.946-20.371-12.585 4.923-24.362 11.73-34.602 20.745h0l-.004.004C7.058 85.269.078 102.825 1.724 119.835c1.644 17 11.897 33.365 29.59 45.945 24.778 17.94 60.92 26.116 95.965 23.87 35.044-2.245 69.099-14.92 89.655-38.81l.004-.005c5.144-6.137 9.247-13.252 11.7-20.889-1.836 6.628-4.942 12.951-8.929 18.558-9.758 13.585-23.814 23.566-38.956 30.508-46.508 20.985-108.39 17.838-150.377-11.984C12.55 154.12 2.287 137.326.714 120.055-.859 102.793 6.24 84.969 23.309 69.964z" fill="#fff" stroke="#057C02"/></g><defs><clipPath id="clip0_188_11531"><path fill="#fff" d="M0 0h231v193H0z"/></clipPath></defs></svg>