<svg viewBox="0 0 80 52" xmlns="http://www.w3.org/2000/svg" xmlns:xlink="http://www.w3.org/1999/xlink"><style>:root&gt;svg{display:none}:root&gt;svg:target{display:block}</style><svg fill="none" viewBox="0 0 35 18" id="arrow-right" xmlns="http://www.w3.org/2000/svg"><path d="M34.5 9L19.5.34v17.32L34.5 9zm-34 1.5H21v-3H.5v3z" fill="#000"/></svg><svg fill="none" viewBox="0 0 16 16" id="cart" xmlns="http://www.w3.org/2000/svg"><path fill-rule="evenodd" clip-rule="evenodd" d="M9.697 7.387h2.215a.606.606 0 00.599-.613.6.6 0 00-.6-.612H9.697a.6.6 0 00-.6.612c0 .335.264.613.6.613zm4.844-4.245c.488 0 .808.171 1.127.547.32.376.376.914.304 1.403l-.76 5.356a2.054 2.054 0 01-2.022 1.788H4.47c-1.064 0-1.943-.832-2.031-1.91l-.736-8.9-1.207-.212A.614.614 0 01.704.007L2.611.3c.271.05.471.278.495.555l.152 1.829a.492.492 0 00.488.458H14.54zM4.342 13.526c-.671 0-1.215.556-1.215 1.241 0 .678.544 1.233 1.215 1.233.663 0 1.207-.555 1.207-1.233 0-.685-.544-1.24-1.207-1.24zm8.992 0c-.671 0-1.215.556-1.215 1.241 0 .678.544 1.233 1.215 1.233.664 0 1.207-.555 1.207-1.233 0-.685-.543-1.24-1.207-1.24z" fill="#000"/></svg><svg fill="none" viewBox="0 0 80 52" id="check-icon" xmlns="http://www.w3.org/2000/svg"><path d="M5 19.359L32.783 47 75 5" stroke="#417B3C" stroke-width="10" stroke-linecap="round" stroke-linejoin="round"/></svg><svg fill="none" viewBox="0 0 18 16" id="esc" xmlns="http://www.w3.org/2000/svg"><path d="M16 8l1.255-5.636-5.508 1.732L16 8zm-7.5 8a.5.5 0 000-1v1zm-7-8a7 7 0 017-7V0a8 8 0 00-8 8h1zm7-7a6.991 6.991 0 015.74 2.993l.82-.573A7.991 7.991 0 008.5 0v1zm-8 7a8 8 0 008 8v-1a7 7 0 01-7-7h-1z" fill="#000"/></svg><svg fill="none" viewBox="0 0 21 28" id="fly" xmlns="http://www.w3.org/2000/svg"><path d="M6.575 14.798h0a5.36 5.36 0 00.965 2.014c.531.674 1.282 1.219 2.286 1.248a.518.518 0 00.4-.515v-.001h0l.002-3.275a5.573 5.573 0 00-.17-1.236 2.723 2.723 0 00-.235-.615 1.002 1.002 0 00-.358-.398s0 0 0 0l.025-.043c-.38-.209-1.179-.753-1.414-1.345l-1.501 4.166zm0 0l-.002-.005c-.213-.637-.19-1.299-.074-1.87.117-.57.327-1.045.483-1.306h0l.001-.002a2.238 2.238 0 011.047-.963l-1.455 4.146zm7.935-.158h0v.004a5.611 5.611 0 01-.969 2.048c-.533.694-1.284 1.264-2.288 1.33a.498.498 0 01-.4-.502h0v-.001l.002-3.277A5.64 5.64 0 0111.027 13a2.83 2.83 0 01.236-.623 1.05 1.05 0 01.359-.41c.197-.115.505-.323.79-.58.271-.243.527-.534.646-.837.443.182.811.508 1.046.927h0v.002c.158.256.367.722.483 1.287.116.566.138 1.226-.076 1.873zM13.285 3.185c.132.196.202.427.202.665a1.225 1.225 0 01-1.204 1.224 1.171 1.171 0 01-1.11-.723 1.197 1.197 0 01-.067-.694 1.23 1.23 0 01.945-.962c.233-.05.475-.03.695.057.22.087.407.238.539.433zm-3.932.067c.132.196.202.427.202.665a1.216 1.216 0 01-.353.856 1.233 1.233 0 01-.85.368 1.171 1.171 0 01-1.11-.723 1.197 1.197 0 01-.068-.694 1.23 1.23 0 01.946-.962 1.186 1.186 0 011.234.49zm4.099 3.905c0 .646-.02 1.704-.397 2.645-.19.47-.467.908-.876 1.252-.407.342-.947.593-1.664.683-.75-.065-1.307-.296-1.72-.624-.413-.33-.685-.758-.864-1.221-.345-.89-.343-1.899-.342-2.55V7.26c.002-1.253 1.303-2.314 2.933-2.342 1.63-.029 2.93.989 2.93 2.24z" fill="#000" stroke="#fff" stroke-width=".1"/><path d="M13.606 7.975c3.676 3.972 6.007 9.213 6.747 14.614l.121 1.286c.09 1.23-.325 2.75-1.576 3.289-.712.311-1.556.105-2.206-.162-1.348-.557-2.39-1.535-3.294-2.623a15.624 15.624 0 01-2.467-3.869l-.188-.476-.15-.49-.114-.498v-.032l.01-.012h.014a.044.044 0 01.028-.001.047.047 0 01.018.022c.386 1.283 1.125 2.423 1.928 3.479 1.427 1.744 3.06 3.758 5.42 4.118 1.077.131 1.728-.977 1.807-1.923.09-.572-.073-1.415-.115-2.004a27.942 27.942 0 00-.779-3.942 33.368 33.368 0 00-3.068-7.393 25.906 25.906 0 00-2.203-3.34v-.054h.013a.038.038 0 01.014 0 .048.048 0 01.015 0h.013l.012.011z" fill="#000"/><path d="M7.484 8.143a39.443 39.443 0 00-2.771 5.397c-1.294 3.058-2.303 6.287-2.692 9.553a144.61 144.61 0 01-.137 1.23c-.07.683.13 1.628.674 1.922.802.347 2.206-.574 2.918-1.054a21.263 21.263 0 002.797-2.782 12.648 12.648 0 002.182-3.37c.014-.042.088-.02.072.025a8.943 8.943 0 01-.804 1.873 18.885 18.885 0 01-2.408 3.29c-.903 1.018-1.93 1.969-3.21 2.508-1.592.758-2.738.01-2.938-1.682-.093-.588.068-1.441.11-2.035a28.48 28.48 0 01.805-3.984 34.889 34.889 0 013.126-7.514 27.082 27.082 0 012.23-3.417h.026a.048.048 0 01.016 0h.012a.048.048 0 010 .027.042.042 0 010 .026l-.008-.013zm6.23-1.107c.957-.598 1.792-1.464 2.028-2.577.123-.57-.027-1.188.284-1.72a2.252 2.252 0 011.347-1.134c-.49.283-.876.718-1.1 1.237a2.876 2.876 0 00-.133 1.222c-.056 1.374-1.156 2.563-2.426 2.968v.004zm6.564 1.845c-1.154.459-2.596.257-3.287-.837-.27-.518-.803-.64-1.356-.61-.58.061-1.154.165-1.72.312.805-.376 1.73-.79 2.637-.52.31.111.568.33.73.616.618 1.01 1.886 1.19 2.996 1.04zm-5.731-.391c.575.262 1.131.562 1.665.9.682.465 1.358.993 1.732 1.753.317.663.418 1.358.843 1.953a10.62 10.62 0 001.404 1.582 6.535 6.535 0 01-1.633-1.425c-.47-.554-.63-1.326-.933-1.953-.33-.69-.96-1.218-1.568-1.71-.485-.37-1.022-.742-1.516-1.103l.006.004zM7.311 7.144c-1.27-.361-2.368-1.512-2.42-2.884a2.83 2.83 0 00-.132-1.221 2.488 2.488 0 00-1.098-1.203 2.144 2.144 0 011.345 1.086c.31.522.16 1.145.281 1.71.234 1.106 1.068 1.943 2.024 2.508v.004zM.753 9.217c1.106.11 2.375-.112 3-1.145.161-.292.42-.52.73-.642.907-.301 1.833.08 2.635.428A11.469 11.469 0 005.4 7.607c-.557-.01-1.086.13-1.357.657-.693 1.118-2.135 1.37-3.289.953zm5.735-.592c-.494.378-1.032.77-1.518 1.157-.603.513-1.24 1.064-1.572 1.764-.269.553-.414 1.226-.77 1.756A6.673 6.673 0 01.82 15.014c.52-.498.99-1.044 1.407-1.63.426-.61.529-1.309.846-1.983.376-.773 1.053-1.325 1.736-1.815a14.545 14.545 0 011.667-.956l.012-.005z" fill="#000"/><path d="M7.212 2.954c-.102.123-.182.26-.24.406A3.425 3.425 0 0110.288.39c.446-.008.887.074 1.298.24a3.256 3.256 0 011.995 2.493 1.398 1.398 0 00-1.042-.767 1.446 1.446 0 00-.97.19 1.47 1.47 0 00-.63.769h0a.662.662 0 01-.6.447l-.078.002a.635.635 0 01-.373-.117.637.637 0 01-.229-.31h0a1.4 1.4 0 00-.632-.737 1.424 1.424 0 00-.965-.15 1.47 1.47 0 00-.849.504z" fill="#000" stroke="#fff" stroke-width=".1"/></svg><svg fill="none" viewBox="0 0 16 16" id="search" xmlns="http://www.w3.org/2000/svg"><path fill-rule="evenodd" clip-rule="evenodd" d="M0 6.936C0 3.106 3.072 0 6.862 0c1.82 0 3.566.73 4.852 2.031a6.974 6.974 0 012.01 4.905c0 3.83-3.072 6.936-6.862 6.936S0 10.767 0 6.936zm13.61 5.587l2.044 1.65h.036a1.078 1.078 0 010 1.514 1.05 1.05 0 01-1.497 0l-1.696-1.944a.865.865 0 010-1.22.789.789 0 011.114 0z" fill="#000"/><path d="M7.284 3.642l2.829 2.829" stroke="#fff" stroke-width="2" stroke-linecap="round"/></svg><svg fill="none" viewBox="0 0 25 27" id="squares" xmlns="http://www.w3.org/2000/svg"><path d="M1 6v13a2 2 0 002 2h10a2 2 0 002-2V6a2 2 0 00-2-2H3a2 2 0 00-2 2z" stroke="#000" stroke-width="2"/><g filter="url(#gfilter0_d_236_15309)"><path d="M6 3v13a2 2 0 002 2h10a2 2 0 002-2V3a2 2 0 00-2-2H8a2 2 0 00-2 2z" stroke="#000" stroke-width="2" shape-rendering="crispEdges"/></g><defs><filter id="gfilter0_d_236_15309" x="1" y="0" width="24" height="27" filterUnits="userSpaceOnUse" color-interpolation-filters="sRGB"><feFlood flood-opacity="0" result="BackgroundImageFix"/><feColorMatrix in="SourceAlpha" values="0 0 0 0 0 0 0 0 0 0 0 0 0 0 0 0 0 0 127 0" result="hardAlpha"/><feOffset dy="4"/><feGaussianBlur stdDeviation="2"/><feComposite in2="hardAlpha" operator="out"/><feColorMatrix values="0 0 0 0 0 0 0 0 0 0 0 0 0 0 0 0 0 0 0.25 0"/><feBlend in2="BackgroundImageFix" result="effect1_dropShadow_236_15309"/><feBlend in="SourceGraphic" in2="effect1_dropShadow_236_15309" result="shape"/></filter></defs></svg><svg fill="none" viewBox="0 0 16 16" id="trash" xmlns="http://www.w3.org/2000/svg"><path d="M2.182 14.08c0 1.06.977 1.92 2.182 1.92h7.272c1.205 0 2.182-.86 2.182-1.92l1.455-10.24H.727l1.455 10.24zm12.727-12.8h-4.727S9.856 0 9.455 0h-2.91c-.402 0-.727 1.28-.727 1.28H1.091C.488 1.28 0 1.71 0 2.24v.96h16v-.96c0-.53-.489-.96-1.09-.96z" fill="#000"/></svg></svg>